<svg xmlns="http://www.w3.org/2000/svg" xmlns:xlink="http://www.w3.org/1999/xlink" width="176" height="128" fill="#ff4500"><svg width="20" height="32"><path d="M7.69 31.72l-.35-.28.15-.42c.08-.24.3-.5.48-.57.37-.17.38-.21.19-.72-.14-.35-.49-.52-1.53-.76-.87-.19-1.27-1.02-.76-1.58l.23-.26-.57-.24c-1.05-.44-2.42-2.24-2.42-3.19 0-.4.64-1.03 1.03-1.03.17 0 .3-.02.3-.04l-.36-.93c-.44-1.07-.46-1.57-.08-2.4l.28-.63h-.21c-.12 0-.22-.04-.22-.08 0-.3 1.16-2.29 1.64-2.8.7-.76.76-1 .13-.47-.25.21-.51.38-.58.38s-.15.14-.2.3c-.12.47-.8.4-1.02-.11-.1-.22-.3-.57-.44-.76s-.27-.53-.27-.74c0-.22-.1-.52-.23-.68-.44-.6-.05-1.42.57-1.18l.21.08-.17-.68c-.12-.5-.3-.76-.61-.96-.94-.58-1.7-1.73-1.7-2.58 0-.89 1.01-1.42 1.73-.91l.32.22.18-.22c.3-.36.97-.27 1.32.17.44.56.39 1.26-.17 2.28-.62 1.12-.51 1.27.74 1.03l.89-.18.32-.42c.17-.24.45-.43.62-.43h.31l-.18-.22c-.26-.31-.4-.28-.5.1l-.1.34-.16-.27c-.11-.2-.1-.4.02-.7.24-.59.08-.73-.2-.2-.13.24-.24.36-.25.28L6 8.3c-.04-.57-.13-.86-.3-.97-.6-.34-1-.78-.93-.98.08-.2 1.6-.72 2.12-.72.13 0 .49-.27.8-.6a2.5 2.5 0 0 1 1-.67l.46-.1.33-.71c1.2-2.56 5.35-3.39 7.45-1.5.78.71 1.29 1.8 1.29 2.79 0 .82-.57 3-1.03 3.88-.6 1.17-2.31 2.42-4.1 2.98l-.76.24 1.43.73c1.8.94 1.94 1.05 1.94 1.62 0 .54-.22.82-.66.82-.2 0-.37.15-.48.45l-.17.44h-.42c-.24 0-.56.09-.7.2l-.28.2.58.34c2.76 1.64 4.67 5.98 3.63 8.22a4.45 4.45 0 0 1-2.02 1.94c-.32.14-.77.4-.99.58-1.19 1-2.7 1.05-4.52.15-1.52-.75-2.89-.75-1.99 0 .24.2.52.58.62.85s.42.73.69 1.04c.53.6.62.96.27 1.1-.12.04-.22.26-.22.48 0 .79-.73 1.12-1.35.62zm.75-.62c0-.36-.34-.31-.41.06-.03.15.04.25.18.25s.23-.13.23-.31zm-.88-2.63c0-.06-.2-.3-.44-.54-.47-.44-.96-.43-.87.03.06.32 1.3.8 1.3.51zm5.23-.93c.78-.21.72-.23-1.23-.33l-1.7-.1.66.3c.76.32 1.45.36 2.27.13zm-5.24-1.02c.6 0 .58-.05-.33-.88l-.77-.72-.3.93-.94.1-.17-.32c-.1-.17-.15-.76-.12-1.3l.04-1-.37-.04c-.2-.02-.5.05-.65.17l-.3.2.27.7c.15.38.44.89.64 1.14.5.6 1.96 1.33 2.3 1.15.13-.07.45-.13.7-.13zm6.59-.09c.52-.52.13-1.62-.72-2l-.6-.27-.09.57c-.2 1.38-1.47 1.45-1.47.08 0-.27-.17-.56-.52-.87-.37-.35-.52-.6-.52-.93v-.46l-.94-1.01C8.2 20.36 8 20.04 8 19.42c0-.48-.28-.61-.56-.27-.23.28-.81 2.6-.84 3.38a2.7 2.7 0 0 1-.14.86c-.18.29.59 1.42 1.49 2.19l.84.72 1.5.16c2.3.26 3.57.25 3.85-.03zm2.06-.95c1.42-1.7.38-5.6-2.01-7.57-.46-.37-.63-.47-.42-.23l.37.4-.16.26c-.08.14-.45.34-.8.45l-1.43.43-.76.24-.35-.23c-.19-.12-.53-.27-.75-.32l-.4-.1v.34c0 .2.18.53.41.75s.61.8.84 1.29c.24.48.5.88.6.88s.24.15.31.32c.08.17.37.4.65.48.33.1.53.27.56.46.03.2.3.41.77.62.86.38 1.33 1.04 1.33 1.87v.56l.43-.22c.24-.13.6-.43.8-.68zM5.5 21.25c.05-.57.14-1.24.2-1.5l.1-.46-.37-.25c-1.1-.72-1.53 1.91-.52 3.14.32.38.5.1.6-.93zm5-8.17c-.33-.66-.67-.89-.63-.42.02.23.83 1.28.92 1.2.03-.04-.1-.39-.29-.78zm-4.84-.81c.38-.14.95-.81.81-.95-.03-.04-.35 0-.71.08s-.9.15-1.2.15c-.6 0-.7.2-.41.75l.15.28.48-.08c.26-.04.66-.15.88-.23zm8.52-1.62c.78-.39 1.45-.86 1.88-1.31l.66-.7.4-1.25c.75-2.37.63-3.82-.42-4.84-1.3-1.26-4.36-1.22-5.9.07-.47.4-1.08 1.46-.96 1.67.15.23.68.29.68.07 0-.48.7.03 1.35.99l.24.35.23-.19c.12-.1.57-.23 1-.28l.78-.09-.1.5c-.12.62-.48 1.18-.75 1.18-.13 0-.04.17.22.43.24.24.44.5.44.59 0 .32-.74.65-1.26.56-.59-.1-.65.03-.22.42.38.34.37.63-.04 1.07l-.32.35.37.6-.26-.05c-.15-.03-.35-.21-.45-.41l-.18-.37-.1.25c-.05.15.05.43.26.7l.35.45.44-.07c.24-.04 1-.35 1.66-.69zM4 9.85c.34-.6.45-.95.42-1.36-.06-.7-.48-.85-.74-.28-.22.48-.47.49-.78.01-.33-.5-.93-.5-1.06 0-.14.56.2 1.34.84 1.92.75.68.77.67 1.32-.28z"/></svg><svg width="20" height="32" x="48"><path d="M7.69 31.57l-.35-.28.15-.42c.08-.24.3-.5.48-.57.37-.17.38-.21.19-.72-.14-.35-.49-.52-1.53-.75-.88-.2-1.26-1.03-.74-1.61l.26-.28-.45-.36c-1.45-1.18-1.75-1.5-2.15-2.3-.24-.47-.44-1-.44-1.17 0-.4.64-1.04 1.05-1.04h.32l-.12-.25-.42-1.1-.3-.85.19-.64c.1-.35.25-.93.33-1.3.21-1 .84-2.24 1.43-2.85.3-.3.5-.59.47-.63-.07-.06-.58.5-1.29 1.39-.34.44-.47.36-1.14-.65l-.53-.8.1-.37c.05-.24 0-.5-.15-.71-.33-.48-.3-.7.17-.9l.45-.2c.02 0-.04-.33-.14-.7l-.18-.67-.72-.34c-.9-.42-1.7-1.28-1.82-1.99l-.1-.54.29-.4c.32-.43.9-.56 1.37-.31l.32.17.3-.38c.4-.53 1.04-.51 1.46.02l.32.4-.06.68a5.56 5.56 0 0 1-.41 1.44c-.44.97-.38 1.02.87.8l1.01-.19.3-.4c.23-.3.27-.48.16-.67-.08-.14-.1-.47-.05-.73l.09-.48-.4.9-.1-.3c-.05-.17-.13-.6-.18-.99l-.1-.69-.54-.35c-.32-.2-.54-.47-.54-.63v-.29l.89-.26c.49-.15 1-.27 1.15-.27s.52-.27.83-.6a2.5 2.5 0 0 1 1.02-.68.79.79 0 0 0 .63-.51c.28-.68 1.48-1.7 2.45-2.07 2.67-1.04 5.36-.2 6.29 1.96l.33.77-.07 1.2c-.17 2.85-2.13 5.16-5.21 6.15l-.58.19.43.22c.24.13.66.4.93.61s.78.52 1.11.68l.61.3.05.42c.05.44-.31.99-.66.99-.1 0-.28.18-.38.4l-.2.41-.59.05c-.84.06-.92.23-.27.62 2.05 1.22 3.9 4.31 3.9 6.52 0 1.22-1.22 3.15-2.26 3.56-.26.1-.69.37-.94.6-1.15.97-2.67 1.11-4.27.38l-.89-.41-.82.1c-1.08.13-1.11.17-.61.59.23.2.5.57.62.84s.41.73.68 1.04c.53.6.62.96.27 1.1-.12.04-.22.26-.22.48 0 .79-.73 1.12-1.35.62zm.75-.62c0-.36-.34-.3-.41.06-.03.15.04.25.18.25s.23-.13.23-.3zm-.88-2.63c0-.06-.2-.3-.44-.53-.47-.45-.96-.44-.87.02.06.33 1.3.81 1.3.51zm5.57-1.48l.28-.16-3.11.01.44.21c.5.24 1.94.2 2.4-.06zm-5.21-.55l.58-.1-2.05-1.85-.3.92-.95.09-.16-.31c-.1-.17-.15-.76-.12-1.3l.04-1-.37-.04c-.2-.03-.5.05-.65.16l-.3.21.28.73c.27.7.9 1.42 2.09 2.36l.57.46.38-.12c.2-.07.64-.16.96-.21zm6.33-.6c.13-.26.12-.5-.01-.96l-.18-.6-1.24-.56-.09.57c-.2 1.38-1.47 1.45-1.47.08 0-.27-.17-.56-.52-.88-.37-.34-.52-.6-.52-.92 0-.45-.18-.74-1.44-2.27-.41-.5-.63-.91-.63-1.18 0-.45-.48-.71-.71-.4-.22.3-.82 2.66-.85 3.37-.01.37-.07.75-.13.85-.19.3.38 1.13 1.56 2.25l1.17 1.11 4.9-.09.16-.36zm1.72-.72c.25-.28.57-.88.71-1.33l.26-.82-.18-.98a8.51 8.51 0 0 0-2.28-4.25c-.97-.92-1.15-.98-.79-.28.34.66.31.72-.54.91-.43.1-1.06.28-1.4.4-.35.13-.75.18-.9.12a6.62 6.62 0 0 0-.74-.22l-.48-.12v.26c0 .14.17.41.38.61s.6.76.84 1.25c.25.49.5.92.55.96s.18.2.26.36c.09.15.38.35.65.44.32.1.52.27.55.46.03.2.3.4.77.62.86.38 1.33 1.04 1.33 1.87v.56l.28-.15c.15-.08.48-.38.73-.67zM5.5 20.57c.05-.6.17-1.25.27-1.44l.17-.32-.52-.22c-.68-.29-.64-.3-.9.32a2.3 2.3 0 0 0 0 1.93c.54 1.3.86 1.2.98-.27zm5-8.08c-.32-.66-.58-.85-.68-.53-.06.16.86 1.41.96 1.31.04-.04-.09-.4-.28-.78zm-5.26-.64c.71-.27 1.44-.93 1.24-1.13-.04-.03-.36 0-.72.09s-.9.15-1.2.15c-.62 0-.64.04-.4.72.2.55.09.54 1.08.17zm8.93-1.64a7.11 7.11 0 0 0 2.1-1.53l.89-.92.3-1c1.25-4.02-1.42-6.5-5.42-5.06-.97.35-2.26 1.4-2.26 1.85 0 .26.77.5.9.28l.11-.18.38.25c.2.14.49.46.62.7l.23.46.25-.11c.14-.06.6-.14 1.03-.18l.77-.06v.37c0 .2-.15.58-.34.86l-.34.5.61.84-.37.3c-.27.23-.5.28-.92.23-.63-.09-.7.02-.27.41.39.35.38.64-.02 1.06l-.32.34.38.45h-.23c-.13 0-.34-.14-.46-.33l-.24-.33v.25c0 .14.12.5.26.78l.26.53.45-.08c.24-.04.99-.35 1.65-.68zM3.77 9.4c.53-1.16.5-2.13-.07-2.13-.16 0-.32.17-.42.44-.17.5-.4.55-.83.22-1.03-.78-1.53.54-.55 1.45.37.35 1.16.83 1.39.85.05 0 .27-.37.48-.83zm3.64-.11c0-.03-.1-.14-.23-.24l-.22-.19v.24c0 .14.1.24.22.24s.23-.02.23-.05z"/></svg><svg width="20" height="32" x="96"><path d="M7.63 31.26l-.27-.3.17-.38c.1-.22.31-.42.47-.46.33-.1.35-.17.16-.69-.14-.35-.49-.52-1.53-.75-.86-.2-1.27-1.03-.77-1.57l.23-.26-1.03-.98c-1.15-1.12-2.05-2.76-1.88-3.44.07-.3.69-.82 1.15-.98.06-.03-.05-.44-.25-.93-.47-1.14-.47-1.61.03-2.6.57-1.16 1.08-2.7.8-2.48l-.2.18-.28-.37a9 9 0 0 0-.66-.74c-.28-.29-.36-.48-.29-.75s0-.45-.29-.72c-.47-.44-.47-.65-.02-1l.36-.26-.33-1.36-.6-.17C1.42 9.94.3 8.85.3 8.04c0-.2.2-.56.45-.81l.45-.45 1 .16.24-.36c.4-.6 1.22-.41 1.63.38.3.56.29 1.2-.02 2.17-.14.44-.2.84-.15.9s.6-.02 1.2-.16l1.08-.26.33-.44c.3-.4.32-1.14.02-.95-.16.1-.41-.51-.53-1.3l-.1-.67-.54-.35c-.32-.2-.55-.47-.55-.63v-.29l.9-.27c.48-.14 1-.26 1.15-.26s.51-.27.82-.59c.3-.32.75-.62.99-.68s.77-.42 1.18-.81c.85-.81 1.5-1.17 2.94-1.61 3.16-.97 5.72.71 5.73 3.77v1.04l-.57 1.18a7.7 7.7 0 0 1-3.8 3.64l-1.28.6.57.4c.3.23.69.56.85.74s.58.45.93.61l.65.29-.1.97-.5.16c-.29.1-.54.26-.58.37-.1.33-.5.58-.93.58-.62 0-.62.21 0 .56.99.56 2.27 2.07 2.9 3.44l.6 1.26v1.03c0 1.77-.67 3.37-1.67 4l-.95.63c-1.65 1.12-2.73 1.32-4.2.77l-.83-.31-.99.18c-1.46.26-1.44.25-.95.66.24.2.53.58.63.85s.42.73.7 1.04c.52.6.61.96.26 1.1-.12.04-.22.26-.22.48 0 .76-.88 1.04-1.4.45zm.81-.46c0-.36-.34-.3-.41.06-.03.15.04.25.18.25s.23-.13.23-.3zm-.88-2.62c0-.07-.2-.31-.44-.54-.47-.45-.96-.43-.87.03.06.32 1.3.8 1.3.5zm.8-2.09l.57-.1-2.5-2.26-.28.94-.94.09-.17-.31c-.1-.17-.15-.76-.12-1.3l.04-1-.34-.05c-.36-.05-.92.33-.92.63 0 .53.94 2.02 1.76 2.8l.9.86.71-.1 1.28-.2zm5.04-.33l.65-.16.36-.88-.35-1.19-1.24-.55-.17.67c-.09.37-.27.78-.4.9l-.24.24-.38-.17c-.24-.11-.37-.29-.37-.52 0-.6-.3-1.25-.68-1.5-.27-.18-.36-.37-.36-.76 0-.57-.2-.93-1.15-2.12-.35-.44-.68-1-.73-1.24-.31-1.56-1.6.52-1.73 2.8-.03.41-.1.83-.16.93-.2.32.64 1.44 1.93 2.58l1.3 1.14h1.54c.84 0 1.83-.08 2.18-.17zm2.55-1.44c.43-.64.84-2.4.75-3.24a8.59 8.59 0 0 0-.76-2.06l-.69-1.38-.82-.7c-1.2-1.05-1.26-1.06-.93-.2.37 1 .38.98-.4 1.1-.38.04-1 .2-1.4.34l-.7.25-.61-.24c-.63-.24-.8-.16-.38.19.13.1.44.6.69 1.1.72 1.44 1.2 2.1 1.65 2.27.22.09.45.28.49.43s.4.4.8.59c.85.38 1.32 1.04 1.32 1.88v.57l.34-.22c.18-.12.47-.42.65-.68zM5.49 20.06c.05-.56.14-1.17.2-1.36l.1-.34-.54-.22a1.8 1.8 0 0 0-.57-.19 2.5 2.5 0 0 0-.16 2.3c.53 1.27.86 1.2.97-.19zm.55-6.21c-.04-.05-.12.04-.18.18l-.1.27.18-.19c.1-.1.15-.22.1-.26zm4.46-1.86c-.23-.69-.43-.93-.62-.74-.1.1-.01.34.27.75.48.7.59.7.35-.01zm-5.2-.72c.77-.39 1.35-.96 1.17-1.15-.04-.03-.42.04-.85.17s-1 .23-1.28.23c-.53 0-.6.15-.34.8.18.48.27.48 1.3-.05zm8.77-1.45a7.14 7.14 0 0 0 3.36-3.22l.5-1.04V4.52c-.02-3.27-3.05-4.45-6.67-2.6-.5.27-1.45 1.14-1.32 1.23.03.03.24.13.46.22l.4.17.06-.18c.1-.25.55.04.91.58l.29.43h.92c1.16 0 1.22.07.9.97l-.26.73.35.65-.7.57-1.2-.16.41.3c.5.37.52.71.04 1.16-.2.2-.37.45-.37.57v.22l-.6-.54v.21c0 .11.1.4.23.63s.22.53.22.65v.21l.48-.1c.27-.04.98-.33 1.6-.62zm-10.6-.73c.29-.85.3-1.68.03-2.05-.25-.34-.65-.2-.71.25l-.05.34-.37-.04-.8-.08-.45-.03-.29.82.3.4a3.65 3.65 0 0 0 1.85 1.08c.17 0 .33-.23.49-.7zm3.94-.41c0-.04-.07-.11-.15-.16s-.15-.02-.15.06c0 .09.07.16.15.16s.15-.03.15-.07z"/></svg><svg width="20" height="32" x="144"><path d="M7.55 31.18c-.26-.32-.02-.99.42-1.18.37-.16.38-.2.19-.72-.14-.35-.49-.52-1.53-.75-.93-.2-1.27-1.04-.67-1.67l.32-.35-1.06-1.07c-1.9-1.93-2.32-3.72-1.08-4.59l.3-.2-.37-.88c-.52-1.27-.4-2.25.36-3.1.15-.17.37-.6.5-.98l.22-.68-.28-.17c-.15-.1-.31-.34-.37-.55l-.09-.37-.29.09c-.43.14-.74-.2-.63-.7.05-.26.03-.42-.07-.42-.2 0-.75-.54-.75-.74 0-.09.23-.27.52-.4.6-.3.59-.22.24-1.14l-.27-.73-1.17-.33C.65 9.16 0 8.6 0 7.85c0-.55.58-1.18 1.08-1.18.22 0 .47-.17.68-.45.4-.53.98-.59 1.54-.15.57.45.75 1.06.67 2.23l-.08 1.03h.33c.74 0 1.94-.48 2.32-.93l.38-.46-.42-.73c-.24-.4-.48-.94-.54-1.22-.07-.33-.27-.6-.62-.84-.29-.2-.52-.47-.52-.63v-.28l.89-.27c.49-.14 1.03-.26 1.2-.26s.43-.18.57-.38c.32-.5 1.09-.96 1.58-.96.21 0 .9-.34 1.57-.8 2.7-1.8 5.25-1.87 6.95-.18 1.76 1.77 1.53 4.23-.6 6.44l-1.05 1.1-1.32.65c-.73.35-1.4.64-1.5.64-.23 0 1.5 1.72 2.11 2.1.68.41.66.92-.03 1.33-.3.17-.6.43-.67.59s-.37.33-.63.4l-.48.12.45.24c.82.43 2.2 2.04 2.74 3.22l.51 1.11v2.82l-.35.77c-.46 1.04-2.12 2.55-3.45 3.16l-.64.29h-1.45c-1.26 0-3.16.2-3.78.39-.13.04-.05.18.24.42.24.2.52.6.63.86s.41.73.68 1.04c.54.6.62.96.27 1.1-.12.04-.22.26-.22.48s-.08.47-.18.57c-.25.26-1.08.22-1.3-.05zm.9-.53c0-.36-.35-.3-.42.07-.03.14.04.24.18.24s.23-.12.23-.3zm-.9-2.62c0-.07-.19-.31-.43-.54-.47-.45-.96-.43-.87.03.06.32 1.3.8 1.3.5zm.62-2.04c.94-.09 1.9-.34 1.35-.36-.1 0-.84-.6-1.64-1.32l-1.45-1.32-.28.94-.94.09-.17-.31c-.1-.17-.15-.76-.12-1.3l.04-1-.28-.05c-.68-.14-.86.85-.37 2 .33.78 2.3 2.91 2.6 2.8.1-.03.66-.11 1.26-.17zm4.1-.44c1.26-.3 1.73-.56 1.95-1.1l.2-.47-.18-.58c-.17-.57-.5-.84-1.31-1.1l-.34-.1v.59c0 .35-.1.72-.28.93l-.28.35-.85-.3-.2-1.6-.76-.57v-1.23l-.6-.82c-.95-1.31-1.17-1.69-1.18-1.96a.25.25 0 0 0-.26-.26c-.53 0-.92.2-.92.44 0 .14-.17.75-.38 1.35s-.34 1.25-.3 1.42c.05.18.02.5-.07.73l-.15.4.37.62c.52.89 2.73 2.79 3.67 3.16.95.38.75.37 1.86.1zm4.11-3.26c.17-.6.23-1.18.18-1.9l-.07-1.06-.48-.96a6.33 6.33 0 0 0-2.23-2.73l-1.17-.97.5 1.07c.69 1.42.68 1.47-.33 1.78-1.01.31-1.47.32-1.96.04-.2-.12-.5-.22-.65-.22H9.9l.35.4c.19.24.54.89.78 1.45a6.8 6.8 0 0 0 .82 1.53c0 .06.2.18.46.28.25.09.49.29.53.44s.4.4.8.58c.83.38 1.32 1.04 1.33 1.83v.52l.58-.62c.39-.4.66-.9.83-1.47zM5.5 19.25c.05-.6.13-1.21.2-1.34l.1-.24-1.12-.21-.2.26c-.25.35-.24 1.13.04 1.8.54 1.28.86 1.2.98-.27zm4.92-8.06c-.24-.72-.41-.92-.57-.67-.08.13.6 1.33.75 1.33.03 0-.05-.3-.18-.66zm-5.17-.59c.82-.46 1.4-1.04 1.22-1.22-.04-.04-.52.07-1.06.24s-1.12.3-1.28.3c-.32 0-.34.1-.12.73.2.57.14.57 1.24-.05zm9.15-1.52l1.15-.53 2.05-2.12.31-1c.39-1.26.39-1.51.02-2.5C17 .47 13.83.02 11 1.93l-.77.53.88.65v-.24c0-.4.5-.18.74.32l.22.47 1 .1c1.1.1 1.18.2.77 1l-.24.45.35.77-.34.28c-.26.2-.5.26-.92.2l-.57-.08.83.87-.25.43c-.14.24-.21.54-.16.69.15.37-.28.2-.48-.2l-.16-.33-.25.27c-.32.35-.3.51.05.84.17.15.3.4.3.56v.3l.63-.1a8.88 8.88 0 0 0 1.77-.64zM3.31 9c.36-1.32-.05-2.69-.77-2.6l-.39.04-.15.9H.67l-.05.38c-.07.6.4 1.02 1.46 1.32C3.3 9.39 3.2 9.39 3.3 9z"/></svg><svg width="20" height="32" y="48"><path d="M7.55 31.03c-.26-.31-.02-.98.42-1.18.37-.16.38-.2.19-.71-.14-.35-.49-.53-1.53-.76-.93-.2-1.27-1.04-.68-1.66l.32-.35-2.08-2.15-.33-.88a3.53 3.53 0 0 1-.27-1.7l.07-.8.8-.7-.38-.94a5.4 5.4 0 0 1-.37-1.3c0-.83 1.07-3.4 1.95-4.69.25-.35.4-.67.36-.72s-.27.24-.5.62c-.8 1.34-.92 1.38-1.32.42-.11-.28-.28-.46-.36-.41-.25.15-.58-.24-.58-.67 0-.29-.1-.44-.3-.5-.42-.1-.36-.5.15-1 .31-.32.44-.6.44-.94v-.48l-1.43-.34C.55 8.82 0 8.45 0 7.78c0-.41.71-1.26 1.06-1.26.11 0 .31-.2.45-.44l.25-.45h.45c.95 0 1.94 1.45 1.94 2.85v.43l.48-.1c.91-.2 1.55-.53 1.88-.98l.34-.45-.46-.9a4.3 4.3 0 0 1-.47-1.22c0-.21-.19-.45-.55-.68-.33-.21-.56-.48-.56-.65v-.28l.9-.27c.48-.14 1.02-.27 1.2-.27s.42-.17.56-.38c.34-.52 1.1-.95 1.68-.95.27 0 .95-.23 1.51-.52C11.96.61 14.03 0 14.97 0c3.05 0 4.86 3.04 3.49 5.86-.84 1.72-3.38 3.91-4.55 3.92-.43 0-.4.15.15.72.75.8 1.34 1.65 1.34 1.94 0 .27-.73 1.04-.98 1.04-.08 0-.31.18-.5.4l-.37.38.23.08c.44.16 2.1 1.9 2.44 2.55.95 1.87 1.15 3.38.65 4.97l-.3 1.01-.92.95c-1.54 1.61-3.34 2.35-6.22 2.56-2.23.17-2.3.2-1.75.66.24.2.51.58.62.85s.42.73.69 1.04c.53.6.62.96.27 1.1-.12.04-.22.26-.22.48s-.08.47-.18.57c-.26.26-1.09.22-1.31-.05zm.9-.52c0-.37-.35-.31-.42.06-.03.14.04.25.18.25s.23-.13.23-.31zm-.9-2.63c0-.07-.19-.3-.43-.54-.47-.45-.96-.43-.87.03.06.32 1.3.8 1.3.51zM9.1 25.8l1.79-.1-.87-.4c-.52-.25-1.4-.9-2.23-1.66l-1.36-1.25-.28.94-.94.1-.18-.33c-.11-.21-.14-.65-.07-1.27l.1-.94-.25-.1c-.37-.14-.66.33-.66 1.09 0 1.1.49 2.08 1.59 3.19l1 1 .29-.09c.16-.05 1.1-.13 2.07-.18zm4.27-1.02c.27-.15.61-.51.77-.8l.29-.54-.19-.6c-.18-.6-.49-.87-1.31-1.13l-.34-.1v.59c0 .35-.1.72-.28.93l-.28.35-.85-.3-.2-1.6-.76-.57v-1.28l-.89-1.3a8.49 8.49 0 0 1-.89-1.5c0-.2-.35-.23-.8-.06-.32.13-.96 2.06-1.03 3.15-.03.38-.1.76-.16.86-.34.55 2.47 3.39 3.96 3.99.93.38 2.22.34 2.96-.08zm2.78-2.6c.68-1.59.48-3.4-.59-5.24-.42-.73-2.73-2.87-3.1-2.87-.08 0 .04.42.28.93s.47 1.17.52 1.46l.1.53-.57.1c-.9.15-1.57.1-1.97-.13-.2-.11-.47-.21-.58-.21h-.21l.24.26c.13.14.38.6.55 1 .76 1.76 1.05 2.23 1.5 2.4.24.1.48.29.52.44s.4.4.8.58c.83.37 1.32 1.05 1.32 1.82v.51l.44-.42c.24-.22.58-.75.75-1.16zM5.5 18.66c.04-.61.17-1.26.27-1.45.23-.42.19-.47-.53-.57l-.57-.08-.18.51a2.3 2.3 0 0 0 .04 1.85c.54 1.29.86 1.2.97-.26zm4.95-7.88c-.28-.9-.38-1.05-.54-.88-.13.12-.08.3.19.69.41.6.49.65.35.19zm-5.15-.91c.7-.23 1.39-.87 1.18-1.08-.04-.04-.51.1-1.04.3s-1.03.4-1.12.4c-.09 0-.16.16-.16.38 0 .24.07.36.18.31l.95-.32zm8.3-.61a5.18 5.18 0 0 0 3.03-1.8c1.62-1.66 2.1-3.15 1.52-4.82-.76-2.22-3.4-2.63-6.91-1.06l-.85.38.77.6.27-.17c.42-.26.54-.2.63.25l.08.43 1.8.38-.11 2.08-.28.2c-.15.12-.5.2-.76.16l-.48-.05.3.31c.3.33.39.88.15 1.03-.08.05-.1.18-.06.3.11.3-.08.28-.42-.02L12 7.2l-.3.27c-.16.15-.3.37-.3.5s.14.33.3.43c.17.1.3.3.3.45 0 .63.3.7 1.6.4zM3.56 8.48c0-1.16-.63-2.26-1.3-2.26H1.9l.2 1.04-.57-.09c-.66-.1-.98.15-.9.71l.05.34 1.18.32c1.63.43 1.7.43 1.7-.06z"/></svg><svg width="20" height="32" x="48" y="48"><path d="M7.55 30.88c-.26-.31-.02-.98.42-1.17.37-.17.38-.21.19-.72-.14-.35-.49-.52-1.53-.76-.87-.19-1.27-1.02-.75-1.59l.24-.27-.38-.4c-.47-.51-1.48-2.52-1.8-3.59-.36-1.2-.31-1.73.19-2.23l.43-.43-.37-.73c-.52-1.06-.58-1.77-.21-2.6l.3-.68h-.21c-.12 0-.22-.1-.22-.23 0-.28.68-1.64.88-1.77.32-.2 1.48-1.86 1.3-1.86-.23 0-.78.71-1 1.26-.19.52-.55.47-.82-.12a1.47 1.47 0 0 0-.56-.63l-.32-.14.09-1.06-.38-.17c-.5-.22-.47-.56.07-1.06.27-.26.45-.57.45-.8v-.38l-.78-.22c-.43-.12-1.04-.26-1.36-.32C.72 8.09.15 7.56.15 7.04c0-.46.6-1.11 1.03-1.11.17 0 .3-.1.3-.22 0-.28.58-.67.99-.67.82 0 1.82 1.44 1.82 2.63v.63h.33c.5 0 1.52-.55 1.86-1.02l.31-.42-.37-.56c-.21-.3-.43-.88-.48-1.27l-.09-.71-.52-.35c-.29-.2-.52-.47-.52-.63v-.28l.9-.27c.48-.14 1.02-.27 1.19-.27s.45-.2.63-.44c.45-.61 1.1-.91 1.92-.88.44.01.95-.1 1.4-.3C12.67.07 15.3-.23 16.82.22c1.38.41 2.33 1.89 2.35 3.64v.96l-.41.89a6.93 6.93 0 0 1-4.18 3.48l-.6.17.56.59c.3.32.7.85.86 1.18l.3.6-.23.36c-.12.2-.35.36-.5.36s-.42.16-.61.37c-.21.22-.51.37-.76.37-.63 0-.64.23-.02.6 3.02 1.8 4.35 5.51 3.01 8.38-1.1 2.36-2.69 3.22-7.17 3.9-2.27.36-2.3.37-1.75.83.23.2.51.57.62.84s.41.73.69 1.04c.53.6.62.96.27 1.1-.13.04-.23.26-.23.48s-.08.48-.17.57c-.26.26-1.09.22-1.31-.05zm.9-.52c0-.36-.35-.31-.42.06-.03.15.04.25.18.25s.23-.13.23-.31zm-.9-2.63c0-.06-.19-.3-.43-.54-.47-.44-.96-.43-.87.03.06.32 1.3.8 1.3.51zm.48-2c.6-.13 1.51-.27 2.04-.33l.95-.1-.93-.43a9.56 9.56 0 0 1-2.3-1.67l-1.36-1.26-.33.88h-.45c-.64 0-.82-.4-.7-1.58l.11-.94h-.2c-.34 0-.56.32-.56.81 0 1.5 1.83 5.15 2.46 4.9.1-.04.67-.16 1.27-.28zm5.34-1.39c.27-.15.61-.52.77-.81l.29-.53-.19-.61c-.18-.6-.49-.87-1.31-1.12l-.34-.1v.58c0 .36-.1.72-.28.93l-.28.35-.85-.3-.2-1.6-.76-.56V19.3l-.6-.95c-.32-.52-.7-1.16-.83-1.42l-.24-.46-.53-.09a2.29 2.29 0 0 0-.54-.05 17.7 17.7 0 0 0-.89 3.07c.06.09.02.39-.07.67l-.17.52.37.64c.52.89 2.73 2.8 3.69 3.19.93.38 2.22.34 2.96-.09zm2.73-2.32l.42-.9V18.4l-1.33-2.61-1.26-1.07a6.6 6.6 0 0 0-1.52-1.08c-.32-.01-.33-.1.05 1.4.18.7.27 1.31.22 1.37-.14.13-1.08.13-1.83-.02l-.63-.12.3.5c.16.28.42.87.57 1.31.4 1.17.76 1.7 1.25 1.89.23.09.46.28.5.43s.4.41.8.59c.94.42 1.35 1.05 1.3 2l-.05.7.4-.38c.21-.2.58-.79.8-1.29zM5.48 18.24c0-.5.12-1.08.29-1.45l.28-.61-.54-.1-.62-.12c-.17-.01-.58 1.03-.58 1.49-.01.49.3 1.4.6 1.76l.17.2.2-.17c.13-.1.2-.48.2-1zm5.08-8.2c-.38-.72-.64-.92-.74-.6-.06.17.83 1.38 1.02 1.38.08 0-.05-.36-.28-.78zM5.24 9.1c.59-.15 1-.34 1.11-.53.28-.45.16-.45-.64-.05-.4.2-.91.37-1.14.37-.28 0-.42.07-.42.22 0 .27-.04.27 1.09-.01zm9.14-.45c1.93-.57 3.38-1.8 3.97-3.36.74-1.99-.07-4.1-1.77-4.55-1.3-.35-4.6.08-5.61.73l-.22.14.55.6.3-.21c.45-.32.7-.27.7.12v.34l1.59.66-.07 1.82-.28.2c-.18.14-.49.19-.85.14l-.57-.07.4.42c.27.28.38.51.31.68-.05.15 0 .37.15.53l.25.27h-.3c-.18 0-.43-.15-.56-.33l-.23-.33-.44.48c-.53.58-.54.66-.1.85.18.08.35.28.38.44.11.7.98.85 2.4.43zM3.7 7.64c0-1.02-.63-2.01-1.3-2.01h-.36l.2 1.01L.81 6.6v.87l1.25.32c1.7.44 1.63.44 1.63-.14z"/></svg><svg width="20" height="32" x="96" y="48"><path d="M7.69 31.13l-.35-.28.15-.43c.08-.23.3-.49.48-.57.37-.16.38-.2.19-.71-.14-.35-.49-.53-1.53-.76-.9-.2-1.3-1.1-.7-1.64l.29-.26-.6-.66a8.6 8.6 0 0 1-1.71-3.45c-.29-1.09-.21-1.63.28-2.12l.33-.32-.35-.7c-.61-1.22-.56-2.02.23-3.38.03-.05-.19-.17-.47-.27-.67-.24-.66-.48.07-1.26l.59-.65-.3-.26c-.16-.15-.29-.4-.29-.55 0-.16-.16-.33-.37-.41-.28-.11-.37-.25-.37-.57 0-.3-.1-.47-.37-.6-.6-.27-.42-.83.44-1.33l.52-.3V8.62l-.92-.18C1.16 8.1.3 7.54.3 6.72c0-.48.63-1.09 1.12-1.09.24 0 .5-.14.68-.37.88-1.1 2.5.5 2.5 2.47v.42h.47c.76 0 1.12-.15 1.38-.54l.24-.37-.38-.73a3.35 3.35 0 0 1-.38-1.3v-.56l-.56-.36c-.33-.21-.56-.48-.56-.65v-.29l.9-.26c.48-.15 1.02-.27 1.19-.27s.45-.2.63-.44a2.02 2.02 0 0 1 1.93-.86 4.9 4.9 0 0 0 2.02-.39L12.8.68l3.56-.01.89.42c1.15.54 1.63 1.01 2 1.98.88 2.37-.51 4.94-3.39 6.25l-1.08.5.6.61c.85.87.82 1.87-.06 1.87-.2 0-.36.15-.47.44l-.17.45h-.42c-.23 0-.61.13-.84.28l-.43.28.66.38a8.61 8.61 0 0 1 2.94 3.35l.5 1.11v3.27l-.48.99c-1.04 2.11-2.28 2.77-6.33 3.33-3.3.46-3.15.4-2.62.85.24.2.52.59.63.86s.42.73.69 1.04c.53.6.62.96.27 1.09-.13.05-.22.27-.22.5 0 .78-.73 1.1-1.36.6zm.75-.62c0-.37-.34-.31-.41.06-.03.14.04.25.18.25s.23-.13.23-.31zm-.88-2.63c0-.07-.2-.3-.44-.54-.47-.45-.96-.43-.87.03.06.32 1.3.8 1.3.51zm1.51-2.12c.88-.1 1.6-.21 1.6-.26s-.32-.22-.7-.38c-.41-.17-1.28-.81-2.12-1.58l-1.42-1.3-.33.87h-.45c-.64 0-.82-.4-.69-1.57l.1-.95h-.3c-1 0-.12 3.37 1.27 4.9l.53.6.46-.08 2.06-.25zm4.3-1.12c.27-.16.61-.52.77-.81l.29-.53-.19-.61c-.18-.6-.49-.87-1.31-1.13l-.34-.1v.59c0 .35-.1.72-.28.93l-.28.35-.85-.3-.2-1.6-.76-.57V19.6l-.81-1.25c-.45-.68-.81-1.35-.82-1.5s-.06-.26-.13-.26-.34-.04-.59-.09l-.46-.1v.23c0 .13-.2.84-.46 1.58s-.41 1.41-.36 1.5c.05.08.02.38-.07.67l-.18.51.38.64c.52.9 2.73 2.8 3.69 3.2.93.37 2.22.34 2.96-.1zm2.75-1.97l.4-.82v-3.27L16 17.55c-.54-1.06-1.05-1.64-3-3.37l-1.14-1 .53 1.12c.3.61.57 1.42.61 1.78l.07.66H10.4l.36.93c.64 1.66 1.1 2.41 1.57 2.6.24.08.47.28.5.43s.4.4.8.58c1.19.53 1.63 1.7 1.11 2.94-.27.66 1-.77 1.38-1.55zm-10.64-4.1c0-.5.12-1.1.32-1.55.35-.8.29-.97-.38-1.04l-.43-.05-.35.66c-.49.97-.38 2.13.27 2.92l.17.2.2-.17c.12-.1.2-.47.2-.97zm.44-6.4c-.22-.07-.83.52-.93.9l-.08.3.59-.57c.32-.32.51-.6.42-.63zm5.78-.1l-.16-.43-.13.21c-.1.15-.05.3.1.48.32.35.39.25.19-.27zm-.7-1.14l-.7-1.06c-.18-.3-.3-.37-.41-.26-.2.2.17.79.9 1.46.69.64.72.61.2-.14zM5.55 9.2c.32-.09.68-.3.79-.48l.2-.32-.35.1c-.2.07-.66.15-1.05.2l-.7.08v.72l.25-.07.86-.23zm10.33-.49c2.53-1.16 3.72-3.73 2.7-5.82-.8-1.61-3.89-2.19-6.8-1.27l-1.02.33.46.45.34-.24c.53-.37.78-.3.68.17l-.08.4.87.01c1.1.01 1.14.06.84.99l-.24.76.32.6-.35.28c-.25.21-.5.27-.9.21-.64-.08-.7.03-.26.43.22.2.28.38.22.63-.06.23 0 .46.17.65l.27.3-.37-.06a.8.8 0 0 1-.53-.4l-.17-.34-.94 1.13.26.06c.4.07.64.31.64.61 0 .2.22.32.85.5 1.08.28 1.78.2 3.03-.38zM3.94 7.31c-.14-1.08-.53-1.74-1.03-1.8l-.42-.05.2.87L.95 6.3l-.04.4c-.04.28.05.46.3.62.37.24 1.87.65 2.47.67l.35.01-.1-.7zm2.68-1.64c-.04-.14-.07-.06-.07.18s.03.36.07.26c.04-.1.04-.3 0-.44z"/></svg><svg width="20" height="32" x="144" y="48"><path d="M7.69 31.27L7.34 31l.15-.42c.08-.23.3-.49.48-.57.37-.16.38-.2.19-.72-.14-.35-.49-.52-1.53-.75-.87-.2-1.27-1.03-.75-1.6l.25-.27-.46-.48c-.82-.86-1.97-3.49-1.97-4.5 0-.34.13-.63.38-.88l.38-.38-.4-.98c-.47-1.18-.42-1.83.2-2.83l.42-.68-.56-.5c-.71-.64-.7-.69.14-1.12.39-.2.96-.63 1.28-.95l.57-.6-.3-.09c-.42-.13-.87.13-1.14.67-.32.6-.64.55-.94-.15-.15-.36-.36-.6-.54-.63l-.3-.04.03-.58c.03-.4-.04-.63-.21-.76l-.25-.19.18-.4c.11-.24.4-.48.77-.63.38-.15.6-.32.6-.5 0-.14.03-.35.07-.47l.09-.22-1.09-.26a9.69 9.69 0 0 1-1.48-.46c-.8-.4-.95-1.31-.33-1.93l.38-.38.47.08c.34.05.58-.01.82-.2 1.01-.82 2.22.3 2.03 1.86l-.1.78.34.09c.66.17 1 .09 1.44-.36l.45-.45-.24-.64-.45.86-.1-.3c-.05-.17 0-.54.13-.84s.17-.57.1-.61c-.17-.1-.41.19-.5.58l-.06.3-.4-.82.37-.81-.26-.15c-.59-.35-1-.78-.92-.99.08-.2 1.61-.72 2.16-.72.15 0 .42-.2.6-.44.51-.69 1.13-.94 2.07-.84l.81.08 2.16-.72h1.46c3.06 0 4.84.84 5.66 2.66 1 2.2-.8 4.47-4.43 5.65-.45.15-.74.27-.65.27s.47.25.85.55l.69.54v1l-.42.25c-.23.13-.48.38-.56.55s-.27.33-.43.36c-.16.03-.36.15-.44.26s-.42.3-.73.41l-.58.2.67.39a8.62 8.62 0 0 1 2.94 3.35l.51 1.11v3.56l-.32.7c-1 2.2-2.6 2.92-6.99 3.22-2.62.18-2.69.2-2.12.68.24.2.52.57.62.84s.42.74.69 1.04c.53.6.62.96.27 1.1-.12.04-.22.26-.22.49 0 .78-.73 1.11-1.35.61zm.75-.62c0-.36-.34-.3-.41.07-.03.14.04.24.18.24s.23-.12.23-.3zm-.88-2.62c0-.07-.2-.31-.44-.54-.47-.45-.96-.43-.87.03.06.32 1.3.8 1.3.5zm1.13-2.06l1.57-.1-.57-.28c-.32-.17-1.18-.85-1.92-1.53l-1.34-1.23-.33.88h-.45c-.62 0-.79-.38-.73-1.6l.04-1h-.59l-.05.49c-.08.92.95 3.4 1.8 4.28l.44.48.28-.15c.16-.08.99-.2 1.85-.24zm4.68-.74c.27-.15.61-.52.77-.81l.29-.53-.19-.61c-.18-.6-.49-.87-1.31-1.12l-.34-.1v.58c0 .36-.1.72-.28.93l-.28.35-.85-.3-.2-1.6-.76-.56v-.59c0-.67-.21-1.13-1.13-2.48a3.9 3.9 0 0 1-.65-1.28c0-.24-.1-.36-.39-.43-.4-.1-.64.07-.64.47 0 .1-.2.82-.45 1.6s-.42 1.47-.36 1.55c.05.08.01.38-.08.67l-.17.52.37.64c.52.89 2.73 2.8 3.69 3.18.93.39 2.22.35 2.96-.08zm2.82-1.97l.33-.67v-3.56L16 17.98a8.65 8.65 0 0 0-2.49-2.86l-.49-.35.3.5c.6.99.5 1.07-1.69 1.25-.65.06-1.3.15-1.45.2l-.26.1.38.5c.2.28.5.88.67 1.33.56 1.49.88 2.02 1.35 2.2.25.09.48.28.52.43s.4.41.8.59c1.18.52 1.62 1.7 1.1 2.94-.23.57 1.11-.88 1.45-1.56zm-10.7-4.24c.06-.56.2-1.27.34-1.57.34-.77.3-.95-.2-1.13l-.44-.15-.27.4c-.67.98-.78 1.73-.4 2.64.53 1.27.85 1.2.98-.19zm6.78-5.72c-.09-.27-.44-.79-.8-1.15s-.76-.95-.94-1.29c-.34-.69-.54-.87-.68-.63-.13.2.29.83.94 1.43.28.27.53.62.54.78.02.24.89 1.34 1.06 1.34.02 0-.04-.22-.12-.48zM6.22 9.29l.37-.15L5.71 9c-.9-.12-1.11-.03-1.12.44 0 .2.96.11 1.63-.16zm8.48.05c2.84-.72 4.71-2.31 4.7-3.98 0-1.96-1.64-3.09-4.68-3.25-1.41-.07-3.27.09-2.67.22l.27.07-.18.97.88-.31c1.06-.37 1.1-.35.97.63l-.1.75h-1.22l.47.3c.26.15.55.43.65.61l.17.33-.35.29c-.26.2-.5.26-.9.2-.64-.08-.68-.02-.29.41.27.3.57 1.72.36 1.72-.2 0-.63-.5-.64-.73 0-.15-.2-.03-.53.35l-.52.6.27.05c.4.08.64.32.64.62 0 .26.22.33 1.27.42.17 0 .81-.11 1.43-.27zM4.38 7.45c.13-.87-.14-1.43-.72-1.5l-.4-.04v.45c0 .51-.15.56-.66.22-.55-.35-1.03-.23-1.1.29-.06.57.06.66 1.26.98 1.5.4 1.5.4 1.62-.4zm7.26-5.04c-.12-.12-.68.27-.6.42.06.1.2.05.38-.1.16-.14.26-.29.22-.32z"/></svg><svg width="20" height="32" y="96"><path d="M7.69 31.27L7.34 31l.15-.42c.08-.23.3-.49.48-.57.37-.16.38-.2.19-.72-.14-.35-.49-.52-1.53-.75-.9-.2-1.3-1.1-.7-1.64l.3-.28-.96-.97c-1.11-1.12-1.71-2.27-1.71-3.27 0-.71.31-1.33.67-1.33.26 0 .28.09-.15-.96-.47-1.13-.47-1.54 0-2.6l.38-.84-.45-.46c-.6-.6-.57-.8.18-1.1.35-.15.96-.6 1.35-1l.72-.72-.45-.1c-.32-.06-.69 0-1.22.24l-.78.33-.2-.28c-.11-.15-.2-.43-.2-.62 0-.23-.12-.4-.37-.49-.41-.15-.46-.38-.2-.95L3 11.1l-.25-.27c-.49-.54-.01-1.02.87-.85l.48.09.09-.55c.1-.68.2-.62-1.27-1.03-.83-.24-1.33-.48-1.56-.73-.88-1 .3-2.6 1.47-1.98l.3.16.48-.25c.64-.35 1.2-.2 1.58.41l.3.48-.06.82c-.03.45-.1.92-.16 1.06l-.11.24 1.02.34.45-.46c.27-.26.42-.54.38-.67-.12-.3-.28-.27-.56.12l-.25.33.07-.44.17-.86.1-.4-.22.08c-.13.05-.27.26-.33.48l-.1.4-.14-.35c-.09-.24-.07-.53.05-.88l.2-.52-.29-.16c-.62-.36-1.02-.8-.94-1C4.86 4.5 6.38 4 6.93 4c.15 0 .42-.2.6-.44.46-.62 1.1-.91 1.92-.88.39.02.85-.04 1.04-.14 1.17-.63 3.9-.9 5.56-.54 5.73 1.21 5.18 5.78-.93 7.85l-.96.32.5.18c.28.1.72.34 1 .55l.49.37v.5c0 .37-.1.59-.4.82-.23.18-.45.47-.5.64-.04.2-.33.46-.72.66-.36.18-.73.4-.8.48s-.28.15-.43.15c-.18 0 .07.3.73.87 1.56 1.35 1.91 1.78 2.51 3.05l.56 1.18.06 1.35c.04.98-.01 1.6-.19 2.21l-.25.86-1.59 1.66-2.61 1.16-1.8-.17c-1.58-.16-2.64-.14-3.29.06-.13.04-.05.19.24.43.24.2.53.59.63.85s.42.74.69 1.04c.53.6.62.96.27 1.1-.12.04-.22.26-.22.49 0 .78-.73 1.12-1.35.61zm.75-.62c0-.36-.34-.3-.41.07-.03.14.04.24.18.24s.23-.12.23-.3zm-.88-2.62c0-.07-.2-.31-.44-.54-.47-.45-.96-.43-.87.03.06.32 1.3.8 1.3.5zm.8-2.08l.72-.1-2.65-2.42-.33.87h-.45c-.61 0-.79-.38-.73-1.6l.04-1h-.74l-.04.59c-.08.92.36 1.83 1.42 2.93l.96 1 .54-.08 1.26-.19zm4.75-.14l.74-.25.58-1.08-.18-.61c-.18-.6-.5-.87-1.32-1.12l-.34-.1v.58c0 .36-.1.72-.28.93l-.28.35-.84-.3-.2-1.6-.77-.56v-.59c0-.68-.18-1.07-1.02-2.2a5.25 5.25 0 0 1-.76-1.35c-.19-.69-1.03-1-1.03-.36 0 .1-.2.85-.45 1.65s-.41 1.55-.37 1.67c.05.12.01.44-.08.71l-.16.5.36.63c.47.79 2.46 2.58 3.35 3.02.83.41 2 .44 3.05.08zm3.34-3.1c.1-.58.15-1.51.11-2.07l-.07-1.03-.63-1.2c-.73-1.41-1.64-2.34-2.13-2.2-.18.06-.76.2-1.29.34s-1.16.33-1.4.46c-.25.12-.64.27-.87.31l-.43.1.4.46c.2.26.55.85.76 1.33.78 1.76.97 2.07 1.42 2.24.24.09.48.28.52.43s.4.41.8.59c.95.42 1.35 1.05 1.3 2.02l-.05.71 1.37-1.43.18-1.06zM5.48 19.7c.05-.52.2-1.3.36-1.72.32-.87.32-.89-.34-1.08l-.46-.13-.37.81c-.43.93-.47 1.48-.15 2.24.52 1.24.86 1.2.96-.12zm7-5.8c-.12-.27-.6-.89-1.06-1.38s-.95-1.12-1.1-1.39c-.19-.37-.3-.46-.42-.33-.2.19.48 1.27.94 1.52.15.08.4.4.56.72.22.43 1.08 1.32 1.3 1.34l-.22-.48zM5.96 9.98c.76-.13.7-.23-.25-.52-.9-.26-.97-.24-.97.27v.34h.33c.19 0 .59-.04.9-.1zm8.52-.52c3.65-1.16 5.15-2.58 4.88-4.6-.14-1.08-1.24-1.83-3.34-2.28a7.77 7.77 0 0 0-3.27-.05L12 2.7v.32c0 .18.04.46.09.63l.08.3.68-.34c.38-.19.81-.34.97-.34h.3l-.1.56c-.05.3-.1.66-.1.8 0 .15-.16.28-.44.34-.24.06-.44.12-.44.15s.2.25.44.5c.25.24.45.51.45.6 0 .32-.74.65-1.26.56-.59-.1-.63-.03-.26.38.17.2.26.53.26 1.02 0 .82-.08.88-.49.35l-.29-.36-.24.27c-.32.35-.3.65.06.87.16.1.3.28.3.4 0 .36.87.28 2.47-.23zM4.8 8.21a3.7 3.7 0 0 0-.06-1.85.62.62 0 0 0-.52-.29h-.37v.37c0 .45-.14.47-.77.08-.87-.53-1.52-.29-1.42.53.05.47.12.51 1.6.99 1.39.45 1.43.46 1.54.17zm6.52-5.05c.12-.31.07-.35-.33-.25l-.33.09.17.2c.22.27.38.26.49-.04z"/></svg><svg width="20" height="32" x="48" y="96"><path d="M7.69 31.27L7.34 31l.15-.42c.08-.23.3-.49.48-.57.37-.16.38-.2.19-.72-.14-.35-.49-.52-1.53-.75-.84-.19-1.3-1.13-.78-1.57.3-.25.28-.4-.1-.52-.94-.3-2.5-2.47-2.5-3.5 0-.47.53-1.16.9-1.16h.26l-.35-.85c-.44-1.08-.44-1.55 0-2.5l.36-.77-.36-.34c-.5-.47-.5-.46.92-1.8l1.28-1.21-.38-.13c-.28-.09-.54-.04-.97.18-.88.45-1.5.35-1.5-.25 0-.12-.13-.38-.3-.59-.32-.4-.38-.92-.14-1.17.1-.1.1-.27-.02-.55l-.18-.39.17-.37c.2-.45.55-.48.77-.07.24.44.4.36.5-.29.05-.32.13-.68.17-.8.07-.17-.18-.37-.94-.75C1.74 8.27 1.18 7.25 2 6.44c.38-.39 1.22-.5 1.51-.2.12.12.26.11.5-.01.17-.1.48-.15.68-.11l.35.07-.16-.2c-.1-.11-.14-.3-.1-.4.08-.2 1.63-.7 2.17-.7.15 0 .39-.17.52-.37.35-.53 1.1-.96 1.69-.96.26 0 .81-.17 1.2-.37s1.26-.51 1.9-.68l1.15-.32 3.55.14.75.32c1.82.81 2.7 2.45 2.14 3.97-.48 1.26-3.2 3.23-5.48 3.97l-1.5.49 1.38.26c.76.14 1.5.32 1.64.4.39.2.33.89-.11 1.3-.21.2-.37.51-.37.74 0 .43-.54 1.04-.92 1.04-.12 0-.31.1-.41.22s-.37.22-.59.22h-.4l-1.11-1.15a10.5 10.5 0 0 1-1.44-1.76c-.35-.7-.54-.87-.69-.64-.13.21.55 1.19 1.12 1.6.24.18.44.42.44.53s.55.65 1.22 1.21c.67.56 1.7 1.47 2.27 2.02l1.05.99.63 1.34c1.38 2.89.76 5.86-1.4 6.76-.32.14-.76.4-.98.59-1.13.94-2.65 1.03-4.33.24l-1-.47-.62.09c-1.01.14-1.05.17-.57.57.24.2.52.59.63.86s.41.73.68 1.04c.54.6.62.96.27 1.09-.12.05-.22.27-.22.5 0 .78-.73 1.1-1.35.6zm.75-.62c0-.36-.34-.3-.41.07-.03.14.04.24.18.24s.23-.12.23-.3zm-.88-2.62c0-.07-.2-.31-.44-.54-.47-.45-.96-.43-.87.03.06.32 1.3.8 1.3.5zm5.57-1.34l.28-.16-3.11.01.44.22c.5.23 1.94.2 2.4-.07zm-5.08-.72l.28-.07-1.89-1.71-.35.85h-.45c-.6 0-.78-.39-.72-1.6l.04-1H3.93l-.05.36c-.13.9.95 2.55 2.04 3.13.5.27 1.26.28 2.13.04zm6.2-.41l.17-.37-.36-1.21-1.23-.55-.17.67c-.1.36-.28.77-.41.9l-.24.24-.37-.17c-.25-.12-.38-.3-.38-.53 0-.59-.3-1.25-.68-1.5l-.36-.23v-.57c0-.42-.14-.77-.52-1.3-1.1-1.52-1.4-2.05-1.4-2.45v-.41h-.86l-.1.55c-.06.3-.27 1.07-.47 1.7s-.32 1.22-.27 1.3c.05.09.01.38-.08.66l-.17.5.25.5c.13.27.76.97 1.38 1.56l1.13 1.08h4.97l.17-.37zm1.67-.55c.53-.62.75-1.5.74-2.94v-1.25l-.63-1.23a10.7 10.7 0 0 0-1.16-1.81l-.53-.6h-.6c-.36 0-1.04.2-1.74.53a5.8 5.8 0 0 1-1.69.51c-.63 0-.66.13-.16.72.2.24.51.77.69 1.16.5 1.15 1.05 1.92 1.5 2.1.24.08.46.28.5.42s.4.41.8.6c.84.37 1.32 1.04 1.32 1.84v.54l.3-.07c.17-.05.46-.28.66-.52zM5.48 20.5c0-.45.1-1.05.22-1.34.32-.75.29-.89-.24-1.07a7.25 7.25 0 0 0-.5-.16c-.14 0-.66 1.41-.66 1.78 0 .46.32 1.38.61 1.72l.17.2.2-.16c.13-.1.2-.48.2-.97zm.44-9.45c.73-.26.7-.43-.13-.88-.8-.44-.85-.42-.99.47l-.1.62.36-.01c.19 0 .58-.1.86-.2zm8.25-1c.95-.3 1.76-.69 2.67-1.3 2.74-1.8 3.32-3.17 2-4.63-.83-.93-1.57-1.19-3.6-1.27l-1.73-.07-2.05.5.33.66c.19.36.36.73.4.82.06.2.6-.04 1.12-.52l.34-.3.13.21c.08.12.14.53.14.91v.7l-.44.1c-.24.05-.44.11-.44.14s.2.25.44.5c.25.24.45.51.45.6 0 .32-.74.64-1.27.56-.58-.1-.62-.03-.25.38.23.26.4 1.89.2 1.89-.17 0-.6-.52-.6-.72V9l-.3.27c-.39.35-.38.57.03 1.01.39.41.46.4 2.44-.22zm-7.03-.87h.31l-.56-.61-.52.65-.08-.23c-.05-.12.01-.43.14-.67.43-.82.22-1.07-.28-.33-.16.24-.33.4-.39.37-.13-.08-.5.8-.37.93.05.05.27.2.5.34l.4.25.28-.35c.15-.19.4-.34.58-.34zM4.96 8.6c.48-.92.23-1.93-.47-1.93h-.34v.37c0 .48-.34.48-.66-.01l-.25-.38-.94.09-.05.42c-.06.54.27.9 1.3 1.44 1.03.53 1.13.53 1.4 0zm.97-1.56c0-.2-.12-.43-.28-.51l-.27-.15.24.51c.28.6.3.62.3.15zm5.18-3.19v-.44l-.72.33.32.28c.42.34.4.35.4-.16z"/></svg><svg width="20" height="32" x="96" y="96"><path d="M7.69 31.42l-.35-.28.15-.42c.08-.23.3-.49.48-.57.37-.16.38-.2.19-.72-.14-.35-.49-.52-1.53-.75-.86-.2-1.27-1.03-.76-1.58l.23-.26-.72-.37c-1.11-.57-2.12-2.01-2.12-3.04 0-.51.5-1.2.88-1.2h.27l-.35-.86c-.44-1.07-.44-1.55 0-2.48l.34-.75-.35-.26c-.51-.4-.46-.5.95-1.91l1.29-1.3h-.33c-.18 0-.75.21-1.28.47l-.95.47-.25-.2a.5.5 0 0 1-.16-.5c.05-.2-.04-.43-.24-.64l-.31-.34.4-.74-.18-.38c-.41-.9-.15-1.4.56-1.03L4 12v-.51c0-.28.04-.6.08-.7.05-.14-.28-.39-.93-.72l-1-.52-.36-.68C1.08 7.53 2.31 6 3.34 6.97l.32.3.19-.23c.3-.36.98-.28 1.33.17.4.5.4 1.34-.02 2.3l-.32.74.21.13c.46.29 1.1.15 1.45-.3.18-.26.46-.45.64-.45h.32l-.53-.58-.55.65V9.3c0-.23.06-.55.15-.71s.13-.38.1-.48c-.04-.1-.19.08-.34.38-.34.71-.53.46-.42-.56l.09-.74-.57-.37c-.34-.22-.57-.48-.57-.65v-.29l.89-.27c.48-.14 1.03-.26 1.2-.26s.43-.18.56-.38C7.77 4.5 8.56 4 8.97 4c.17 0 .56-.26.87-.57C11.42 1.8 15.96.67 17.7 1.46c.87.4 1.62 1.31 1.85 2.24.24 1 .13 1.68-.45 2.96l-.49 1.05-1.28 1.23c-1.37 1.33-3.09 2.34-4.32 2.55l-.63.1.27.2c.15.11.62.27 1.04.36s1.1.28 1.5.42l.73.26.09 1.22-.45.32c-.25.17-.46.42-.46.53s-.18.3-.4.4c-.23.09-.51.24-.63.34s-.42.24-.67.32l-.44.14.68.4c1.73 1.01 3.59 3.84 3.79 5.77.19 1.82-.8 3.69-2.28 4.34-.42.19-.8.42-.87.51-.21.35-1.62.88-2.32.88a6 6 0 0 1-2.82-.94 1.36 1.36 0 0 0-1.01-.28c-.89.1-.93.16-.47.55.24.2.53.59.64.85s.41.74.68 1.04c.53.6.62.96.27 1.1-.12.05-.22.27-.22.49 0 .78-.73 1.12-1.35.61zm.75-.62c0-.36-.34-.3-.41.06-.03.15.04.25.18.25s.23-.13.23-.3zm-.88-2.62c0-.07-.2-.31-.44-.54-.47-.45-.96-.43-.87.03.06.32 1.3.8 1.3.5zm5.25-.95l.6-.18-.97-.1c-.52-.06-1.32-.1-1.77-.1l-.82-.02.67.28c.78.33 1.48.37 2.3.12zm-5.25-1c.57 0 .55-.07-.38-.93l-.75-.7-.33.88h-.45c-.62 0-.79-.38-.73-1.6l.04-1-.42-.04c-.77-.09-.9.6-.33 1.72.42.83.66 1.06 1.64 1.56.52.26.82.33 1 .23.13-.07.45-.13.71-.13zm6.69-.23l.17-.37-.36-1.2-1.24-.57-.09.58c-.2 1.38-1.47 1.44-1.47.07 0-.26-.17-.55-.52-.87-.39-.36-.52-.6-.52-.96 0-.5-.57-1.46-1.18-2.01a3.3 3.3 0 0 1-.9-1.7c0-.22-.09-.3-.36-.3h-.36l-.17.63-.46 1.62a3.14 3.14 0 0 0-.2 1.15c.05.09.02.4-.07.68l-.18.51.39.66c.2.35.75.97 1.21 1.36l.84.72 1.5.17c.82.09 2.02.17 2.65.18l1.15.02.17-.37zm1.52-.39l.53-.46.31-1.03c.44-1.46.34-2.17-.58-4.02a9.78 9.78 0 0 0-1.25-2l-.5-.48-.44.23c-.24.12-.6.22-.82.22s-.7.1-1.1.23a6.3 6.3 0 0 1-1.51.22c-.85 0-.97.15-.5.66.17.17.66.97 1.1 1.77l.79 1.46.5.17c.33.1.53.27.56.46.03.2.3.4.77.62.86.37 1.33 1.04 1.33 1.86 0 .67.14.69.81.1zM5.48 20.97c0-.42.1-1.09.24-1.47.26-.76.2-.9-.4-1.04l-.4-.09-.31.67c-.46.96-.34 2.07.3 2.84l.16.2.2-.17c.13-.1.21-.47.21-.94zm5.08-8.12c-.38-.71-.64-.92-.74-.6-.06.17.83 1.38 1.02 1.38.08 0-.05-.35-.28-.78zm-5-1.01c.53-.15.94-.48.95-.77 0-.06-.24-.07-.55-.02s-.74.01-.96-.07l-.4-.16v.6c0 .64.05.67.95.41zm7.53-.96a8.52 8.52 0 0 0 3.9-2.33l1.2-1.15.4-.9c.93-2.07.45-3.96-1.16-4.57-1.53-.57-5.92.5-7.12 1.76l-.38.4.88.33v-.29c0-.15.06-.28.14-.28.13 0 .86.8 1.12 1.24l.15.24.8-.37c1-.46 1.05-.46 1.05.05 0 .67-.3 1.36-.58 1.36-.44 0-.43.14.01.59.23.23.43.5.43.58 0 .32-.74.65-1.27.56-.6-.1-.63-.02-.19.45l.33.35-.38 1.04.36.43h-.21c-.3 0-.57-.3-.57-.64v-.3l-.3.27c-.37.34-.37.45.04.97.4.51.25.49 1.35.2zM4.86 8.1l-.05-.62-.65-.1-.1.39c-.12.5-.37.48-.78-.07-.42-.57-.91-.55-1.12.04-.24.68.2 1.36 1.2 1.87l.86.44.34-.66c.24-.46.33-.86.3-1.29z"/></svg><svg width="20" height="32" x="144" y="96"><path d="M7.69 31.57l-.35-.28.15-.42c.08-.24.3-.5.48-.57.37-.17.38-.21.19-.72-.14-.35-.49-.52-1.53-.75-.86-.2-1.27-1.03-.77-1.58l.23-.26-.73-.24c-.4-.13-.86-.39-1.03-.57a7.58 7.58 0 0 1-1.22-2.48c0-.38.64-1.03 1.02-1.03h.28l-.35-.85c-.42-1.04-.44-1.55-.06-2.39.3-.67.28-.91-.08-.91-.12 0-.21-.05-.21-.11 0-.24 1.08-1.71 1.9-2.6.7-.74.52-.82-.44-.18-.43.28-.9.52-1.04.52-.35 0-.61-.38-.5-.73.07-.21-.01-.36-.3-.55l-.4-.25.08-.39a.96.96 0 0 0-.13-.66c-.5-.7-.13-1.48.53-1.13l.31.17-.2-1.13-.8-.72C1.37 9.55 1.1 8.51 1.92 7.7c.48-.48.83-.54 1.3-.21l.3.22.19-.22c.3-.36.97-.27 1.33.19l.32.4-.06.77c-.04.52-.2.96-.46 1.35-.4.58-.51 1.07-.24 1.07.63 0 1.6-.39 1.9-.76.18-.23.48-.43.65-.43h.3l-.54-.6-.37.68-.1-.27c-.06-.15-.03-.44.07-.65s.14-.41.1-.45c-.04-.04-.16.1-.26.32-.24.53-.41.23-.42-.74V7.6l-.56-.36c-.32-.21-.55-.48-.55-.65v-.29l.89-.26c.49-.15 1-.27 1.15-.27s.52-.27.83-.6A2.5 2.5 0 0 1 8.7 4.5a.79.79 0 0 0 .63-.5c.2-.51 1.53-1.79 2.2-2.14C13.68.76 16.73.82 17.76 2c2.4 2.73.08 7.56-4.64 9.71l-.88.4.9.46c.5.26 1.24.53 1.62.62.92.2 1.1.37 1.1.98v.5l-.36.14a.65.65 0 0 0-.41.48c-.03.23-.17.36-.42.39-.2.03-.5.17-.67.32s-.45.34-.65.41l-.35.13.57.35a8.45 8.45 0 0 1 2.91 3.18 10.6 10.6 0 0 1 1.15 3.52c0 1.29-1.33 3.1-2.58 3.52-.31.1-.8.34-1.07.53-.75.5-1.47.7-2.33.63a6.72 6.72 0 0 1-2.8-1.12c-.18-.17-.46-.24-.82-.2-.78.06-.82.13-.34.54.23.2.5.57.62.84s.41.74.68 1.04c.53.6.62.96.27 1.1-.12.04-.22.26-.22.49 0 .78-.73 1.11-1.35.61zm.75-.62c0-.36-.34-.3-.41.06-.03.15.04.25.18.25s.23-.13.23-.3zm-.88-2.63c0-.06-.2-.3-.44-.53-.47-.45-.96-.44-.87.02.06.33 1.3.81 1.3.51zm5.25-.79l.6-.17-1.78-.27c-2.53-.38-2.73-.33-1.19.3.86.34 1.53.38 2.37.14zm-5.25-1.16h.46l-1.57-1.45-.3.93-.94.1-.17-.32c-.1-.17-.15-.76-.12-1.3l.04-1-.37-.04c-.2-.02-.5.05-.65.17l-.3.2.27.68c.47 1.23.83 1.63 1.8 1.96.55.2.98.27 1.13.19.14-.07.46-.12.72-.12zm6.69-.07l.17-.37-.36-1.21-1.24-.56-.09.58c-.2 1.37-1.47 1.44-1.47.07 0-.27-.17-.56-.52-.87-.38-.35-.52-.6-.52-.94v-.47l-.97-1.12a6.59 6.59 0 0 1-1.12-1.63l-.14-.52h-.66l-.35 1.3c-.2.7-.37 1.6-.38 1.97s-.08.76-.14.86c-.18.28.58 1.42 1.44 2.15l.8.68.65.01c.36.01 1.15.1 1.76.21s1.53.2 2.04.21l.93.02.17-.37zm1.85-.55c.45-.47.93-1.58.93-2.13.01-1.49-1.76-4.99-2.81-5.55l-.26-.14.14.57-.79.23c-.43.13-1.25.27-1.82.32s-1.26.1-1.53.15l-.5.07.46.52c.25.28.62.83.83 1.21.63 1.17 1.1 1.72 1.6 1.88.28.1.48.27.51.45.03.2.3.41.77.62.89.4 1.33 1.04 1.33 1.94v.63l.41-.2c.22-.12.55-.38.73-.57zM5.48 21.4c0-.43.1-1.1.23-1.47s.21-.7.19-.73l-.52-.2-.47-.15-.3.65c-.46.96-.33 2.07.3 2.83l.17.2.2-.17c.12-.1.2-.47.2-.96zm4.97-8.2c-.21-.41-.45-.72-.53-.67-.22.14-.18.26.32.94.6.81.7.7.2-.27zm-4.74-.9c.41-.13.92-.68.76-.83-.04-.04-.33 0-.64.08s-.82.16-1.13.16c-.56 0-.66.14-.46.65.09.24.52.22 1.47-.07zm8.47-1.7c1.2-.7 2.92-2.49 3.4-3.53l.42-.91V3.48l-.3-.6c-.2-.4-.5-.69-.96-.93l-.67-.34-1.26.07c-1.79.1-3.05.54-3.99 1.38-1.16 1.04-1.26 1.37-.49 1.6.25.08.33.04.33-.13 0-.49.89.08 1.27.81l.22.43.63-.3c.78-.35 1.3-.37 1.3-.04 0 .56-.36 1.39-.6 1.39-.43 0-.42.14.02.59.23.23.42.5.42.58 0 .32-.73.65-1.26.56-.58-.1-.65.03-.22.42.37.32.38.63.05 1l-.26.27.38.6-.27-.05c-.14-.03-.33-.2-.42-.38l-.17-.32-.17.17c-.25.24-.22.38.16.85l.33.41.7-.26c.4-.15 1.03-.45 1.41-.67zm-9.96-.4l.43-.63.02-1.63-.26-.05c-.16-.03-.32.1-.43.33-.22.48-.47.49-.78.01-.47-.71-1.13-.38-1.13.57v.59l.72.72c.88.87.9.87 1.43.09z"/></svg></svg>