<svg xmlns="http://www.w3.org/2000/svg" width="250" height="250" viewBox="0 0 250 250">
  <g stroke-linecap="round" stroke-linejoin="round">
    <path fill="#fffaf0" stroke="#ebdbc0" d="M77.927 151.757c-12.181 18.087-17.684 38.1-19.76 54.26-1.117 11.047.57 20.89.732 31.098-.183 4.817-2.233 8.898-5.781 12.387 6.732-2.54 15.969-6.754 16.578-12.786 2.466-5.637 2.897-15.524 8.672-16.014 1.919-.076 0 0 5.623-.193 7.994-.274 10.309-4.477 10.457-7.98-.052-3.967-1.555-7.498-2.392-11.23-.44-4.051.303-5.756 2.358-11.827.767-6.396-5.136-13.854-5.814-20.067-.444-4.027-.844-8.043.791-11.55l6.452-20.543z" />
    <path fill="#ebdbc0" d="M58.168 206.018c8.08-15.75 12.3-34.086 25.061-47.105l5.357 10.359c-.456-3.987-.768-7.949.805-11.418l6.385-20.328-17.849 14.231c-12.266 18.145-17.328 37.226-19.76 54.26z" />
    <path fill="#fffaf0" stroke="#ebdbc0" d="M145.944 143.159c21.839 4.227 52.09 11.357 64.951 18.403l28.285 12.31c5.182 1.41 2.221 3.358-2.913 5.45-4.894 1.702-17.876-1.2-21.801-1.033-6.133-.286-5.742 8.5-9.772 11.502-3.03 1.813-6.093-.484-9.022-1.823-6.49-3.485-12.882-7.797-19.215-10.335-3.307-1.077-6.832-1.299-9.728.092-5.658 2.115-8.881-2.444-11.84-4.98-4.607-4.214-9.578-6.537-14.623-8.47l-10.304-23.28zM80.487 123.53c8.662 14.296 55.42 22.384 78.471-9.332l.066-34.577-85.137 8.833z" />
    <path fill="#fffaf0" stroke="#ebdbc0" d="M83.591 133.266c.965-11.445 2.037-22.88-4.692-35.058l14.95-8.738c8.345 8.912 37.216 9.535 47.942-3.588l10.964 5.515c1.712 9.599 4.721 20.052 8.833 29.353l8.387 10.297c8.352 2.54 15.414-.625 15.595-8.435.42-10.072-3.637-15.49-7.658-21.378 9.148-4.979 16.612-11.641 22.928-19.452l8.763-14.072c1.37-3.377 3.143-6.92 1.691-10.031-15.898-8.502-48.612-13.341-70.4-14.522C131.929 26.495 113.332 7.705 96.109.498c-14.867 11.445-22.1 35.835-26.446 55.815-26.436 6.656-47.292 21.988-62.412 37.38l.012 2.043c1.28 1.766 2.876 3.236 4.625 4.565l24.22 13.954c7.927 3.57 16.683 5.483 25.382 7.508-.168 3.992-.072 8.028.51 12.146l9.068 5.17z" />
    <path fill="#ebdbc0" d="m93.354 192.597-4.09-7.917 2.572 13.59c.271-2.065.812-3.857 1.518-5.673z" />
    <path fill="#f5ebd8" stroke="#ebdbc0" d="M107.81 12.996c10.775 12.741 22 25.438 27.721 41.864l-13.343 8.034C115.91 48.22 107.027 34.37 98.46 20.42l-.094-1.739z" />
    <path fill="#fff" d="M86.595 11.717c5.635-1.935 10.965-2.998 15.857-.04-1.118-2.806-1.1-5.163.664-7.092-2.248-1.307-4.618-2.54-6.932-3.514-4.302 3.147-7.25 7.292-9.59 10.646zm113.293 41.799c-9.224 1.561-19.377 2.968-25.09 4.947 14.002-1.307 27.716-2.596 35.048 7.357.94-2.457 2.226-5.124.985-7.806-3.348-1.767-7.266-3.254-10.943-4.498zM12.972 88.82c1.436 1.171 3.643.965 6.645-.62 17.471-10.8 38.725-16.783 47.495-17.562-11.093 4.197-24.313 6.32-41.064 23.04L12.026 99.78c-1.94-1.352-3.057-2.559-4.277-4.224l.007-1.68z" />
    <path fill="#e8a1e2" stroke="#ebdbc0" d="m65.007 104.429-3.517 17.334" />
    <path fill="none" stroke="#ebdbc0" d="M164.24 86.997c5.282 4.512 10.306 9.107 13.672 14.237" />
    <path fill="#ebdbc0" d="M65.007 104.429c1.652 9.869 4.063 19.749 4.593 29.819a159.12 159.12 0 0 1-7.6-.34c-.709-5.004-.636-7.37-.51-12.145.923-4.994 2.516-12.458 3.517-17.334z" />
    <path fill="#ebdbc0" d="m31.373 104.836 18.454 3.229 14.41.08-2.849 13.46c-9.406-2.16-18.674-4.246-26.072-7.806-1.312-2.916-2.545-5.961-3.943-8.963z" />
    <path fill="#f5ebd8" stroke="#ebdbc0" d="M10.88 101.516c3.997-3.684 8.471-7.128 11.911-11.089 4.79 3.897 18.77 36.966 24.347 52.134-5.971 2.428-11.877 2.645-17.808 3.721z" />
    <path fill="#ebdbc0" d="M11.027 101.542c3.517-2.074 6.925-4.462 10.73-5.712 6.094 14.81 6.22 32.203 4.863 43.567zm141.922-9.082 12.39 26.359c-1.194.645-2.48 1.418-3.751 1.931-3.871-8.953-6.913-18.725-8.64-28.29zm21.871 32.926c4.358.98 5.873 3.05 5.136 5.721-2.207.913-6.283 1.107-9.822-.146l-1.415-5.945zm-.366-28.658c9.05-4.42 17.311-10.197 25.231-16.182l1.155 1.236c-6.592 8.18-14.598 15-22.928 19.452-.98-1.447-2.215-3.038-3.458-4.506z" />
    <path fill="#f5ebd8" stroke="#ebdbc0" d="m195.015 74.486 9.535-12.259a2214.36 2214.36 0 0 1 34.153 37.41c-4.263 5.178-8.954 9.286-14.22 11.96-10.781-11.89-19.884-25.49-29.468-37.11z" />
    <path fill="#ebdbc0" d="m206.208 88.618-5.914-20.72-5.107 6.578zm-101.75-73.454c-1.406 1.868-3.49 4.898-2.664 6.158 2.573 3.705 2.755 7.123 3.948 10.662l-7.152-11.6-.094-1.63Zm65.963 161.507-1.734-9.851c7.278 5.782 16.575 10.943 20.973 17.61-5.583-2.947-13.339-8.376-19.239-7.759zm-38.781-32.105c10.85 10.474 19.226 21.43 28.1 32.223-1.913-1.176-5.255-5.007-8.448-7.112-3.201-2.11-6.774-3.824-11.026-5.402-2.083-6.473-5.555-13.178-8.627-19.709z" />
    <path fill="none" stroke="#ebdbc0" d="m54.198 140.119-1.479-.482" />
    <path fill="#fffaf0" stroke="#ebdbc0" d="M90.062 130.933c-8.238 5.083-27.973 3.114-38.406 2.06l3.123 3.455-6.578-.1 4.518 3.29-4.252 1.395c1.634.81 3.925 1.115 7.11.73 2.66 6.116 6.11 13.309 9.235 15.748 7.753-1.527 17.742-8.494 25.516-14.22-2.072 15.335-2.02 27.235 11.316 37.855 7.05 4.61 9.698 5.923 9.698 5.923 1.561-4.321 3.07-8.4 3.172-13.295 4.21-.82 8.421-1.708 12.692-4.369 3.908 2.454 10.932 5.9 15.349 5.715-.76-11.236-7.454-22.943-12.593-34.126l15.982 2.165c6.7-.472 13.466-.755 19.867-2.06 2.359-3.268 4.307-9.543 4.917-13.754 3.333-1.533 6.163-3.207 8.869-5.43l-4.564-.061c1.586-1.98 4.119-4.202 4.732-6.868l-5.85 1.873c1.096-1.962 2.078-3.954 2.708-6.04-7.815 6.682-14.576 11.373-26.294 12.738-15.15 13.434-40.023 14.978-60.267 7.376z" />
    <path fill="none" stroke="#ebdbc0" d="m130.01 167.27-2.804 2.135m-69.802-27.857-1.828.216m54.454 31.844 4.484.166m13.3-36.233 2.148 3.453" />
    <path fill="#ebdbc0" d="M96.714 133.059c1.464 3.293 14.578 7.112 21.743 2.353-12.193.292-12.387-.512-21.743-2.353zm3.72 20.516c20.618 15.893 28.48-5.362 28.825-7.272-1.358 2.52-5.296 10.881-17.408 11.125-5.145-.122-7.778-2.424-11.417-3.853z" />
    <path fill="#f5ebd8" d="m109.735 185.625-2.763-9.617c-15.07-5.177-14.04-18.93-16.114-32.828l-.607 3.87c-1.975 17.945 2.183 26.152 11.427 33.557 2.445 1.696 2.905 1.976 8.057 5.018z" />
    <path fill="none" stroke="#ebdbc0" d="m93.401 140.8-3.073 2.492" />
    <path fill="#ebdbc0" d="M129.279 167.828c2.199 3.145 5.915 4.99 9.627 6.838-4.234-1.37-8.292-2.943-11.7-5.26zm20.291-63.595c-.45 5.789-4 9.622-6.9 9.55-4.168.1-4.407-3.356-4.407-9.013s2.486-10.028 6.327-10.028c3.84 0 5.37 4.478 4.98 9.491zm-47.566 5.627c-.073 6.304-2.779 9.692-7.252 9.808-4.169.1-6.123-3.615-6.123-9.272s3.38-10.31 7.22-10.31 6.22 4.117 6.155 9.773z" />
    <path fill="#fff" d="M98.813 105.063c0 2.296-1.842 3.853-3.477 3.853-1.635 0-2.56-1.463-2.56-3.76 0-2.296 1.606-4.392 3.241-4.392s2.796 2.002 2.796 4.299zm48.48-5.797c0 2.297-1.842 3.853-3.477 3.853-1.635 0-2.56-1.462-2.56-3.759 0-2.296 1.606-4.393 3.241-4.393s2.796 2.003 2.796 4.3z" />
    <path fill="#f5ebd8" d="M89.297 113.265c.587 7.464 9.11 7.755 11.137 1.876 1.841-6.65-2.458-3.741-2.843-3.265-1.443 1.913-3.043 4.985-6.178.986-.717-1.138-2.165-.947-2.116.403zm49.543-6.757c-.893 9.32 6.902 8.366 9.21 1.782 1.772-6.486-.366-4.669-1.174-3.406-3.252 4.262-4.335 5.173-5.779 1.104-.493-1.326-2.082-1.017-2.256.52z" />
    <path fill="#ebdbc0" d="m92.425 119.208 1.894 5.05 3.04-5.15c-1.626.531-3.264.758-4.934.1zm48.12-5.834.482 6.977c1.708-1.361 3.254-3.887 4.52-7.684-1.57.795-3.213 1.403-5.002.707z" />
    <path fill="#fffaf0" stroke="#ebdbc0" d="M113.075 127.506c2.855 6.225 11.132 7.372 14.119-3.423-6.382-2.382-10.8-.636-14.119 3.423z" />
    <path fill="#ebdbc0" stroke="#ebdbc0" d="M112.355 122.677c4.336.616 11.127-1.7 15.451-2.717l-.612 4.123c-6.642-1.891-11.235-.573-14.119 3.423-.67-1.363-.978-2.935-.72-4.83zm-1.146-.631 1.146.63m16.612-2.79-1.16.074" />
  </g>
</svg>