<svg xmlns="http://www.w3.org/2000/svg" width="300" height="120" viewBox="0 0 300 120">
  <path fill="#fff" d="m183 7.75 50 15 50 35L300 64v56H0V63.75l15-6 50-35 50-15z"/>
  <path fill="gold" d="M127.69 35.1 126 37.74h-3l2 3-2 3h3l1.93 2.31 1.33-2.32 2.74.01-2-3 2-3h-3zM32.5 79.25a1.5 1.5 0 1 0 0 3 1.5 1.5 0 0 0 0-3zm6-5a1.5 1.5 0 1 0 0 3 1.5 1.5 0 0 0 0-3zm7.5-4.5a1.5 1.5 0 1 0 0 3 1.5 1.5 0 0 0 0-3zm5.5-3.5a1.5 1.5 0 1 0 0 3 1.5 1.5 0 0 0 0-3zm7-4a1.5 1.5 0 1 0 0 3 1.5 1.5 0 0 0 0-3zm7-4a1.5 1.5 0 1 0 0 3 1.5 1.5 0 0 0 0-3zm6.5-3.5a1.5 1.5 0 1 0 0 3 1.5 1.5 0 0 0 0-3zm6.5-3.5a1.5 1.5 0 1 0 0 3 1.5 1.5 0 0 0 0-3zm8-3a1.5 1.5 0 1 0 0 3 1.5 1.5 0 0 0 0-3zm7-3a1.5 1.5 0 1 0 0 3 1.5 1.5 0 0 0 0-3zm7-2a1.5 1.5 0 1 0 0 3 1.5 1.5 0 0 0 0-3zm8-2a1.5 1.5 0 1 0 0 3 1.5 1.5 0 0 0 0-3zm8-1a1.5 1.5 0 1 0 0 3 1.5 1.5 0 0 0 0-3z"/>
  <path fill="gold" d="M149 0C92.59 0 44.68 22.12 12.08 54H0v10h14c1.33 0 2.6-.78 3.54-1.72C48.28 31.47 94.3 10 149 10s100.72 21.47 131.46 52.28c.94.94 2.21 1.72 3.54 1.72h16V54h-14.08C253.32 22.12 205.42 0 149 0Z"/>
  <path fill="none" stroke="gold" stroke-width="2" d="M300 76h-25c-29.42-31-71-50.25-126-51.25C94 25.75 52.42 45 23 76H0"/>
  <path fill="gold" d="m149 27.55-4 5.2h-7l3 5-3 7h7l4 6.12 4-6.12h7l-3-7 3-5h-7zm21.31 7.55L169 37.75h-3l2 3-2 3 2.74-.01 1.33 2.32 1.93-2.31h3l-2-3 2-3h-3zm95.19 44.15a1.5 1.5 0 1 0 0 3 1.5 1.5 0 0 0 0-3zm-6-5a1.5 1.5 0 1 0 0 3 1.5 1.5 0 0 0 0-3zm-7.5-4.5a1.5 1.5 0 1 0 0 3 1.5 1.5 0 0 0 0-3zm-5.5-3.5a1.5 1.5 0 1 0 0 3 1.5 1.5 0 0 0 0-3zm-7-4a1.5 1.5 0 1 0 0 3 1.5 1.5 0 0 0 0-3zm-7-4a1.5 1.5 0 1 0 0 3 1.5 1.5 0 0 0 0-3zm-6.5-3.5a1.5 1.5 0 1 0 0 3 1.5 1.5 0 0 0 0-3zm-6.5-3.5a1.5 1.5 0 1 0 0 3 1.5 1.5 0 0 0 0-3zm-8-3a1.5 1.5 0 1 0 0 3 1.5 1.5 0 0 0 0-3zm-7-3a1.5 1.5 0 1 0 0 3 1.5 1.5 0 0 0 0-3zm-7-2a1.5 1.5 0 1 0 0 3 1.5 1.5 0 0 0 0-3zm-8-2a1.5 1.5 0 1 0 0 3 1.5 1.5 0 0 0 0-3zm-8-1a1.5 1.5 0 0 0-1.5 1.5 1.5 1.5 0 0 0 1.5 1.5 1.5 1.5 0 0 0 1.5-1.5 1.5 1.5 0 0 0-1.5-1.5z"/>
</svg>
