<svg xmlns="http://www.w3.org/2000/svg" xmlns:xlink="http://www.w3.org/1999/xlink" viewBox="0 0 1060.7529 652.98535"><defs><linearGradient id="f"><stop offset="0" stop-color="#959641"/><stop offset="1" stop-color="#47480b"/></linearGradient><linearGradient id="e"><stop offset="0" stop-color="#3f2112"/><stop offset="0.23767146" stop-color="#6e432e"/><stop offset="0.70207834" stop-color="#3f2112"/><stop offset="1" stop-color="#9b6448"/></linearGradient><linearGradient id="d"><stop offset="0" stop-color="#3f2112"/><stop offset="0.23767146" stop-color="#6e432e"/><stop offset="0.58972871" stop-color="#3f2112"/><stop offset="1" stop-color="#9b6448"/></linearGradient><linearGradient id="c"><stop offset="0" stop-color="#fffae1"/><stop offset="0.36265349" stop-color="#d0b086"/><stop offset="0.66208857" stop-color="#ddc293"/><stop offset="1" stop-color="#ffffe8"/></linearGradient><linearGradient id="b"><stop offset="0" stop-color="#3f2112"/><stop offset="1" stop-color="#9e664a"/></linearGradient><linearGradient id="a"><stop offset="0" stop-color="#fffbc6"/><stop offset="0.39645892" stop-color="#eb9a7b"/><stop offset="0.62466848" stop-color="#e79770"/><stop offset="1" stop-color="#ffedc2"/></linearGradient><linearGradient xlink:href="#a" id="t" x1="386.24399" y1="572.55212" x2="434.15216" y2="572.05566" gradientUnits="userSpaceOnUse"/><linearGradient xlink:href="#a" id="u" x1="449.27606" y1="565.19159" x2="522.60065" y2="565.19159" gradientUnits="userSpaceOnUse"/><linearGradient xlink:href="#b" id="v" x1="420.72345" y1="359.51776" x2="474.55954" y2="429.72748" gradientUnits="userSpaceOnUse"/><linearGradient xlink:href="#c" id="s" x1="385.74753" y1="455.01578" x2="430.92517" y2="454.89166" gradientUnits="userSpaceOnUse"/><linearGradient xlink:href="#c" id="r" x1="442.56882" y1="442.75879" x2="492.82468" y2="442.75879" gradientUnits="userSpaceOnUse"/><linearGradient xlink:href="#b" id="q" x1="430.80643" y1="270.41794" x2="489.3067" y2="327.44781" gradientUnits="userSpaceOnUse"/><linearGradient xlink:href="#d" id="p" x1="363.28757" y1="305.74344" x2="-96.911316" y2="681.06537" gradientUnits="userSpaceOnUse"/><linearGradient xlink:href="#c" id="o" x1="228.67725" y1="321.42737" x2="249.64474" y2="365.58286" gradientUnits="userSpaceOnUse"/><linearGradient xlink:href="#e" id="n" x1="486.81381" y1="219.23827" x2="816.27832" y2="637.33112" gradientUnits="userSpaceOnUse"/><linearGradient xlink:href="#c" id="w" x1="548.45172" y1="103.71581" x2="582.97675" y2="147.65231" gradientUnits="userSpaceOnUse"/><linearGradient xlink:href="#b" id="x" x1="439.32553" y1="146.64677" x2="448.64981" y2="97.148933" gradientUnits="userSpaceOnUse"/><linearGradient xlink:href="#c" id="j" x1="397.02728" y1="179.9673" x2="408.50522" y2="179.47084" gradientUnits="userSpaceOnUse"/><linearGradient xlink:href="#c" id="h" x1="468.30234" y1="182.93294" x2="478.37372" y2="182.93294" gradientUnits="userSpaceOnUse"/><linearGradient xlink:href="#f" id="l" x1="434.33084" y1="204.06447" x2="434.4726" y2="182.65051" gradientUnits="userSpaceOnUse"/><linearGradient xlink:href="#f" id="g" x1="470.6084" y1="200.95168" x2="513.9082" y2="156.89508" gradientUnits="userSpaceOnUse"/><linearGradient xlink:href="#f" id="i" x1="0.42722395" y1="298.96127" x2="398.97101" y2="152.92506" gradientUnits="userSpaceOnUse"/><linearGradient xlink:href="#c" id="k" x1="420.23166" y1="207.29729" x2="444.75922" y2="207.29729" gradientUnits="userSpaceOnUse"/><linearGradient xlink:href="#f" id="m" x1="829.35468" y1="227.72865" x2="774.75281" y2="528.58191" gradientUnits="userSpaceOnUse"/></defs><path d="M496.2 142.12l18.87 39.97-15.39 18.37c-10.24-17-10.2-28.8-12.66-48.16 1.81 22.48-3.19 24.01-7.52 41.75-1.08 4.4-9.42-17.22-9.42-17.22l11.98-34.21z" fill="url(#g)" fill-rule="evenodd" stroke="#443a00" stroke-width="1px" transform="translate(107.28 -67.87)"/><path d="M474.12 173.15L468.14 192l4.32.67c2.85-6.35 4.91-12.45 5.38-19.27z" fill="url(#h)" fill-rule="evenodd" transform="translate(107.28 -67.87)"/><path d="M387.73 131.45c-9 45.44-16.37 70.16-57.74 88.66-37.78 15.48-67.37 18.98-107.1 21.85l44.88 2.29-44.15-2.38c-42.08-4.37-79.02-6.73-118.3-3.16-59.4 5.5-99.46 17.92-147.45 49.5 27.82-9.13 56.06-16.76 84.26-24.57 21.03-5.83 42.27-8.13 63.89-9.83-19.06.47-37.36 4.44-55.88 8.46-37.55 23.94-61.77 54.24-91.21 87.02 32.63-20.15 64.18-41.9 95.83-63.54 38.5-19.33 73.98-23.51 115.85-30.89 47.74-5.74 90.63 1.93 130.94-1.4 49.93-4.14 64.38-17.24 86-40.37 11.67-12.48 18.61-47.75 18.61-47.75l-5.96-8.77-7.03 24.92c-4.8 21.23-8.56 20.49-22.81 36.86-24.13 19.72-54.73 23.5-82.68 26.33 43.87-11.65 68.9-19.95 99.18-55.11l5.96-7.03 9.48-34.4-8.07-21.41z" fill="url(#i)" fill-rule="evenodd" stroke="#443a00" stroke-width="1px" transform="translate(107.28 -67.87)"/><path d="M400.56 169.96l2.35 21.04-3.23-.4c-1.51-7.14-.76-13.64-.91-20.9z" fill="url(#j)" fill-rule="evenodd" transform="translate(107.28 -67.87)"/><path d="M444.25 201.85l-.35 17.9-23.17.36v-25.45z" fill="url(#k)" fill-rule="evenodd" stroke="#330b00" stroke-width="1px" transform="translate(107.28 -67.87)"/><path d="M425.96 207.66c5.7-5.74 10.81-3.39 17.13 0 0 0 11.29-4.23 16.13-7.7a43.27 43.27 0 0 0 10.68-10.92c4.28-6.37 9.18-21.1 9.18-21.1l-79.68-6.2.5 10.92s1.8 12.73 3.18 18.12c2.36 9.18 22.88 16.88 22.88 16.88z" fill="url(#l)" fill-rule="evenodd" stroke="#443a00" stroke-width="1px" transform="translate(107.28 -67.87)"/><path d="M612.76 226.25l38.96 11.06c62.13 11.4 118.52 24.33 170.08 53.97 40.53 23.3 70.95 61.03 103.91 94.17 9.65 9.7 27.39 30.54 27.39 30.54s-26.98-13.64-35.81-25.27c-39.78-52.43-85.48-74.62-134.1-103.21-11.2-6.6-35.8-15.45-35.8-15.45l-51.96-16.5 49.85 16.15c70.83 37.47 108.33 86.16 144.98 140.77 25.83 38.5 15.93 89.82 4.21 139.02-6.74-33.66-9.98-67.7-13.34-101.8-1.84 41.74-13.92 74.55-26.68 113.73 3.6-36.55 17.96-90.96 9.83-125.67-10.28-39.23-29.16-79-59.68-106.02-18.15-16.06-35.3-30.76-56.16-40.72-39.82-19-79.26-31.32-127.79-34.4l9.6-2.8c23.99.04 40.2 2.6 62.18 9.69-23.84-7.87-48.32-13.54-72.6-19.86z" fill="url(#m)" fill-rule="evenodd" stroke="#000" stroke-width="1px" transform="translate(107.28 -67.87)"/><path d="M477.78 212.2c31.28-22.46 39.28-52.94 48.47-79.01l11.91-2.98c45.73 47.36 75.79 86.96 106.74 143.97l16 68.2c7.28 50.83 10.03 88.26 12.41 138.2-.85-69.04-8.22-121.54-22.95-187.29 51.26 70.1 83.98 132.72 115.63 211.17l31.6 109.52c8.73 34.41 18.63 56.37 36.85 85.3 0 0-11.96 6.83-18.6 7.38-11.7.97-22.95-4.85-34.4-7.37-32.22-7.09-63.64-26.4-96.54-21.77-18.69 3.04-35.7 12.34-53.01 20.36-5.73-45.85-4.9-89.84-3.87-135.75 12.67-59.85 2.61-113.68-15.89-169.8l-20.35-52.12 22.34 59.08c-33.72-43-66.4-81.44-107.73-123.12-16.15-16.3-41.2-55.11-41.2-55.11z" fill="url(#n)" fill-rule="evenodd" stroke="#330b00" stroke-width="1px" transform="translate(107.28 -67.87)"/><path d="M228.65 342.82l12.8-7.14 13.23-.8 16.51-22.72-34.63 9.68-13.9 3.23-21.42-.8L216 351.2c4.32-2.72 8.55-6.32 12.66-8.4z" fill="url(#o)" fill-rule="evenodd" stroke="#330b00" stroke-width="1px" transform="translate(107.28 -67.87)"/><path d="M385.38 230.99s-8.18 9.67-12.66 14.02c-1.82 1.77-7.45 1.5-7.45 1.5l.25 5.2-68.89 57.47 18.01-14.85c-10.63 6.43-24.42 6.05-36.79 7.92-21.8 26.55-38.18 46.6-52.7 76.19l42.26-35.31-42.44 35.25s-14.47 5.9-21.85 8.44c-10.57 3.64-32.09 9.74-32.09 9.74s-23.76 29.21-37.28 42.25c-37.35 36.01-85.28 63.8-120.41 98.64-45.4 46.1-119.36 153.06-119.36 153.06s25.96-8.55 39.32-11.23c46.9-9.41 142.53-16.85 142.53-16.85 36.72-52.25 76.76-102.07 120.76-148.14 22.41-23.48 46.18-44.48 72.56-64.93l-48.7 18.59c26.3-11.49 79.66-25.23 97.6-47.75 13.3-17.91 41.42-58.27 41.42-58.27l37.57-49.5z" fill="url(#p)" fill-rule="evenodd" stroke="#330b00" stroke-width="1px" transform="translate(107.28 -67.87)"/><path d="M602 262.1s-5 4.91-8 6.69a62.22 62.22 0 0 1-17.37 6.84c-13.84 3.29-28.3 2.8-42.48 3.87-9 .67-18.01 1.97-27.03 1.58-5.61-.25-16.68-2.46-16.68-2.46l18.26-17.55z" fill="#330b00" fill-rule="evenodd"/><path d="M415.11 338.76c15.27.16 31.58-1.32 44.85-5.44 11.87-3.03 23.03-3.8 34.08-3.84 0 0-5.34-9.93-6.77-15.33-6.22-23.59-7.3-72.8-7.3-72.8l-9.12-21.27-38.42-2.65-41.9 14.97-3.67 34.09s1.6 41.92-.43 62.74c-.55 5.67-3.18 16.8-3.18 16.8 11.24-7.9 17.4-5.94 31.86-7.27z" fill="url(#q)" fill-rule="evenodd" stroke="#330b00" stroke-width="1px" transform="translate(107.28 -67.87)"/><path d="M449.98 467l-6.83-31.4 46.8-16.89 2.35 47.04z" fill="url(#r)" fill-rule="evenodd" stroke="#330b00" stroke-width="1px" transform="translate(107.28 -67.87)"/><path d="M636 331.86c-5.05 12.88-15.49 21.23-25.94 28.85-3.5 2.55-4.57 2.85-11.84 5.32l-.88-17.38 31.94-21.94z" fill="#330b00" fill-rule="evenodd"/><path d="M386.37 469.79l-1.86-32.65 47.53 2.61-1.98 33.76z" fill="url(#s)" fill-rule="evenodd" stroke="#330b00" stroke-width="1px" transform="translate(107.28 -67.87)"/><path d="M504.31 608.08l3.34 44.4h23.87l-.35-45.63-16.85-4.39z" fill="#330b00" fill-rule="evenodd" stroke="#330b00" stroke-width="1px"/><path d="M397.12 676.56c9.96-3.95 18.72-2.93 26.86-.97 0 0 2.95-31.76 3.72-47.68 3.25-17.67-2.32-35.28-2.24-51.88-.42-15.02 1.8-29.5 3.23-42.95 1.64-22.88 1.69-41.4 1.49-64.29-14.85-5.54-29.32-4.36-43.9.57 2.17 22.39 2.94 45.44 7.53 67.7 1.6 6.03.97 12.12.5 17.5-.24 2.82-1.09 5.6-1 8.44.19 5.13 2.51 10.01 2.86 15.14 1.4 20.58-3.17 43.05-3.1 61.8.14 12.28 4.05 36.62 4.05 36.62z" fill="url(#t)" fill-rule="evenodd" stroke="#330b00" transform="translate(107.28 -67.87)"/><path d="M603.83 600.18l13.7 52.28h23.57l-11.82-56.67-13.34-10.88z" fill="#330b00" fill-rule="evenodd" stroke="#240900" stroke-width="1px"/><path d="M522 664.53c-9.61-4.3-16.68-1.28-25.44 4.4 1.57-21.16-8.51-41.86-13.17-59.33-3.5-13.54-7.2-27.25-9.83-41.08.35-18.37-8.83-35.97-13.16-52.13-4.93-18.87-5.98-33-10.53-49.67 13.78-6.54 27.66-6.86 42.3-4.04 2.78 17.67 3.48 37.44 4.21 53.71.38 8.08.37 16.19 1.23 24.22.86 15.09 6.06 27.4 12.81 41.25 0 0 4.78 12.09 5.97 18.43a1180.8 1180.8 0 0 0 3.69 46.17c.62 6.02 1.93 18.07 1.93 18.07z" fill="url(#u)" fill-rule="evenodd" stroke="#330b00" transform="translate(107.28 -67.87)"/><path d="M357.45 411.95l10.43 17.37 21.34 13.9 31.78 2.49s13.73.8 20.47-.25c6.2-.96 18-5.46 18-5.46s9.58-7.68 15.02-10.43c5.97-3 18.99-6.45 18.99-6.45s3.43-7.25 6.45-9.68c3.53-2.85 12.66-4.97 12.66-4.97 4.47-4.47 7.7-6.2 15.64-8.93-19.77-13.82-39.6-27.38-58.58-41.83-6.88-5.24-8.93-17.38-9.5-24.15-18.06 5.05-29.26 3.76-52.44 6.04-6.3 9.07-9.97 17.74-15.63 26.18-10.72 15.97-22.19 32.05-34.63 46.17z" fill="url(#v)" fill-rule="evenodd" stroke="#330b00" stroke-width="1px" transform="translate(107.28 -67.87)"/><path d="M472.64 357.57c11.68-14.8 18.07-38.55 29.74-48.94l-27.32 52.39zm56.06-25.07c3.5 4.3 3.42 37.08 3.7 45.29l-6.67-.35c.92-14.98 1.97-29.96 2.98-44.94zm-31.67 42.83c6.51-10.5 8.74-46.36 20.27-59.85l-14.92 60.47zm127.54-38.77L574.7 296l45.1 44.36zm-24.77 18.85l-32.65-48.7 25.27 51.07zm-33.46 16.69c-2.2-15.48-2.57-18.38-9.8-25.96 3.62 8.87 3.99 18.05 5.34 27.44.97.03 4.46-1.48 4.46-1.48zM491.9 188.32c-.12.62-1.43 17.03-1.86 25.57-.51 10.29-2.2 20.68-.86 30.9.62 4.75 4.1 13.78 4.1 13.78s1.4-13.14 1.6-19.74c-.12-22.52-2.5-26.99 7.7-46.3z" fill="#330b00" fill-rule="evenodd"/><path d="M492.73 163.12a74.25 74.25 0 0 0-.25 30.47c.4 1.97 3.27 3.29 5.26 2.98 2.46-.37 5.29-2.96 5.1-5.44-.76-9.66 1.49-20.8 2.7-29.06-5.78 1.97-8.55 1.83-12.81 1.05z" fill="#b07e4c" fill-rule="evenodd" stroke="#330b00" stroke-width="1px"/><path d="M502.7 163c-2.55 8.25-2.56 22.13-2.08 27.8.19 2.34-5.68 3.18-6.1.99-.74-4.02-.77-18.7.49-28.42z" fill="#330b00" fill-rule="evenodd"/><path d="M312.34 257.1c-4.8-1.7-8.52.66-12.97 1.37-7.96 4.91-6.77 11.13 4.4 4.53 0 0-12.05 6.46-13.53 12.4-1.18 4.71.6 11.37 4.84 13.75 8.63 4.84 19.56.84 29.02-6.17 1.5-14.14-11.76-25.88-11.76-25.88zm18.03-.07c3.29 5.53 7.27 10.59 6.14 17.55l12.11-6.67c-.09-5.96-2.22-9.32-4.56-13.86z" fill="#452100" fill-rule="evenodd" stroke="#330b00" stroke-width="1px"/><path d="M548.13 239.26a18.54 18.54 0 0 0-5.87-1.14 25.37 25.37 0 0 1-6.24-.9v-.33c-.99 0-1.9-.24-2.7-.81-.82-.49-1.45-.9-2.26-1.39a3.69 3.69 0 0 1-1.09-2.69v-2.85l.63-7.26c0-.9-.09-1.87-.27-2.93-.27-.9-.63-1.8-1.17-2.7l1-.15c.99.32 1.89.73 2.8 1.14.9.49 1.7 1.06 2.52 1.55l.82 1.7.63.17 2.44-3.1h.36c.54-.9 1.17-1.7 1.9-2.52a12.1 12.1 0 0 0 1.62-2.45l1.8-.4c.82.24 1.72.48 2.54.73.9.24 1.8.57 2.62.98l.36 1.05-.81.9a11.4 11.4 0 0 0-3.44 1.22c-1.17.58-2.26 1.15-3.25 1.55v.41a5.45 5.45 0 0 0-2.89 1.55 8.26 8.26 0 0 1-2.62 1.87l-1.8 4.33h-.46l-.63 4.56 1.17 2.6c1.54.5 3.17.82 4.8.9 1.7.17 3.42.25 5.23.25l11.02-2.85c.54-1.06 1-2.29 1.27-3.5.27-1.15.27-2.54.18-3.84h.54l.63 2.45h.45l1.27 1.55.81 1.14 1.8.4v.33l5.16.98v.16h.18l.18 1.22 1 .41-1 .16v.58h-.63c0 .4-.1.57-.37.65a2 2 0 0 0-.63.32c-3.52 0-6.86.41-10.03 1.3a305 305 0 0 1-9.57 2.7zm-29.54-18.34l-1.54-.41v-.4l-2.62-.58c-.09-.73-.54-1.22-1.17-1.8-.63-.48-.9-1.13-.81-2.03a7.3 7.3 0 0 0 1.98-6.28h1.27l4.06 1.55.64 1.8-.82 5.37.64 1.96-.64.82h-1zm35.05-7.59a31.35 31.35 0 0 0 3.34-5.05c.9-1.63 1.72-3.42 2.53-5.05h-3.25c-3.8.4-7.5.97-11.11 1.7-3.62.82-7.05 1.8-10.48 2.86v.4l-.81.66-5.15 2.94v.4l-1.54.17a2.6 2.6 0 0 0-1.44-.66 3.27 3.27 0 0 1-1.45-.4 1.7 1.7 0 0 1-.63-1.39c0-.57-.1-.98-.36-1.39l-.64-.48c1.81 0 3.44-.25 4.97-.66 1.45-.4 2.9-.97 4.43-1.63l.09-.4 2.17-.66.54-.57 1.17.25c3.8-1.3 7.77-2.29 11.93-2.94 4.06-.49 8.3-.9 12.65-1.14l2.62.33.63-.17c1.35.41 2.7.82 4.15 1.23a22 22 0 0 1 3.98 1.87l.45 1.14-2.35 1.23-1.08-.17c-1 .08-1.9.33-2.71.74a8.8 8.8 0 0 1-2.71.81l-.18.33-3.26 1.06-.18.57h-.45l-.18.57c-.81.08-1.44.33-2.08.73-.63.41-1.35.82-1.98 1.23zm-25.48-12.3l-.8-.17-1.45-3.34.63-.73 3.61-.58 1.27-4.07-5.51-.73-.46-.5-1.8-.97-2.08-1.47v-.57h3.52l2.9.16 4.78-1.22v-.57l-.18-.73h-.45v-.25l.27-2.12c-.27-.49-.54-.9-.81-1.3-.36-.41-.45-.82-.36-1.47l.45-.9 2.35-.24c1.17.16 2.07.32 3.07.57a16 16 0 0 1 2.8.98l.27 1.06c-.27.24-.45.49-.54.81-.1.33-.1.65-.1 1.06l.64.17.18-.41c.45-.25.81-.41 1.17-.65.28-.17.73-.17 1.36-.09l5.42 1.3.63.9h-.45v.33l.45.98c-1.71.49-3.34.9-5.06 1.3-1.62.33-3.34.82-4.87 1.47l-1.72 3.1h-.36l-.9 2.53h.9l3.43-.98 4.25.9v1.05h-.37v.57c-2.7.9-5.33 1.72-8.04 2.45-2.7.82-5.32 1.63-8.04 2.36z" fill="#190b00"/><path d="M551.5 146.74c2.7-14.79 7.57-28.14 14.21-41.43l5.8-6.49 10.27-2.2 1.66-16.76-9.83-6.67c-7.73.97-13.57 6.86-17.99 12.73-2.62 3.49-4.3 12.37-4.3 12.37-6.41 13.02-12.74 23.05-14.01 36.73z" fill="url(#w)" fill-rule="evenodd" stroke="#330b00" stroke-width="1px" transform="translate(107.28 -67.87)"/><path d="M678.92 30.89c-2.36-10.23-8.13-15.27-16.03-12.85-2.45 4.15-3.83 7.3-4.16 11.97l2.64-4.57h2.98c4.05 1.17 6.81 3.4 9.13 8.08l-.95 4.58zm10-2.29c1.74-12.44-2.27-18.65-8.6-23.25 5.05-1.12 11.8-7.87 12.47-3.25l-3.16 5.44 2.28 2.98s9.06-5.44 17.02-5.09c2.63.12 21.42 5.24 4.92 5.62-12.52-.82-20.25 15.9-24.93 17.55z" fill="#452100" fill-rule="evenodd" stroke="#330b00" stroke-width="1px"/><path d="M498.17 65.18s1.07 14.9 4.04 21.6c2.86 6.44 6.43 13.82 12.8 16.84 21.43 10.17 51.58 11.02 71.1-2.46 3.86-2.66 5.44-12.99 5.44-12.99l-87.06-28.25z" fill="#140b00" fill-rule="evenodd"/><path d="M384.75 130.94c-1.15-12.72 23.88-28.4 31.8-30.75 15.59-4.28 35.62-7.4 48.44 2.46 11.55 8.88 23 24.41 31.14 34.75 2.16 5.38 1.58 14.02-3.96 16.36-33.88 12.05-81.35-2.63-107.42-22.82z" fill="url(#x)" fill-rule="evenodd" stroke="#140b00" stroke-width="1px" transform="translate(107.28 -67.87)"/><path d="M505.37 162.07c7.82-2.35 13.07-4.37 19.16-9.47l-.62 3.6c-5.42 5.42-11.95 6.05-18.85 9.03zm54.43-12.35l12.28-.5.5 3.97-13.16.25z" fill="#b07e4c" fill-rule="evenodd" stroke="#330b00" stroke-width="1px"/><path d="M588.72 177.15s-8.12-3.9-11.18-7.08c-1.6-1.65-2.52-3.86-3.47-5.95-2.15-4.73-4.96-14.77-4.96-14.77l7.07-.5c3.11-1.26 5.95-3 8.81-4.72-.85 6.43 4.35 11.28 5.84 17 1.16 4.88-.13 14.78-.13 14.78z" fill="#b07e4c" fill-rule="evenodd" stroke="#330b00" stroke-width="1px"/><path d="M571.96 149.47c1.38 4.19 9.94 24.95 14.27 21.85 1.5-2.7.75-10.06.75-10.06-2.37-5.24-5.76-9.66-5.22-15.14l-5.08 2.85z" fill="#330b00" fill-rule="evenodd"/><path d="M523.93 156.17c12.44 1.83 24.6 1.88 35.87-2.73l-.38-5.7a106.76 106.76 0 0 1-34.25 1.86z" fill="#3f2112" fill-rule="evenodd" stroke="#330b00" stroke-width="1px"/><path d="M525.02 149.7l.53-3.69 33.79-.7.04 2.37c-11.38 2.47-22.81 2.6-34.36 2.02z" fill="#b07e4c" fill-rule="evenodd" stroke="#330b00" stroke-width="1px"/></svg>