<svg xmlns="http://www.w3.org/2000/svg" width="512" height="512" viewBox="0 0 135.47 135.47">
   <defs>
      <filter id="a" width="1.25" height="1.2" x="-.11" y="-.09" color-interpolation-filters="sRGB">
         <feFlood flood-color="#000" flood-opacity=".5" result="flood" />
         <feComposite in="flood" in2="SourceGraphic" operator="in" result="composite1" />
         <feGaussianBlur in="composite1" result="blur" stdDeviation="3" />
         <feOffset dx="3" dy="3" result="offset" />
         <feComposite in="SourceGraphic" in2="offset" result="composite2" />
      </filter>
   </defs>
   <path fill="#fff" stroke="#ff80b2" stroke-linecap="square" stroke-width="4" d="M41.33 71.87c-13.3-23.75-21.98-45.14-14.3-58.22 15 .31 22.95 29.66 28.98 51.2l19.37.78c6.47-23.13 16.94-52.9 29.5-51.72 10.14 15.56-4.36 37.8-13.52 58.6 9.63 12.3 17.82 25.6 4.42 39.51-12.26 12.72-39.21 13.36-56.53 1.56C17.79 98.97 34 83.1 41.33 71.87Z" filter="url(#a)" />
   <path fill="#ff80b2" d="M61.28 101.47c1.1 1.28 3.6 2.22 3.6 3.82-5.27 3.02-6.71-3.37-8.1-2.28-1.86 1.48 3.03 4.05 4 4.34 2.1.61 4.84-1.23 5.52-1.56l-.11-4.3z" />
   <path fill="#ff80b2" d="M71.1 101.47c-1.1 1.28-3.6 2.22-3.6 3.82 5.27 3.02 6.71-3.37 8.09-2.28 1.87 1.48-3.02 4.05-4 4.34-2.09.61-4.83-1.23-5.51-1.56l.11-4.3zm1.31-8.55 3.44-1.47c.02 1.34.03 2.69.64 3.92 4.71 9.48 17.72-4.04 6.72-8.34v-.49c2.96-.95 4.44-2.73 3.92-5.89-5.24 2.45-14.7 5.85-14.72 12.27M42.97 80.65c.04 3.15 1.03 4.61 3.93 5.89-1.22.87-2.38 1.7-3.18 2.99-5.6 9.15 12.29 13.16 10.54 1.92l3.92 1.47c-.07-6.11-10.14-10.14-15.21-12.27" />
</svg>