<svg xmlns="http://www.w3.org/2000/svg" width="112.02" height="66.06" viewBox="0 0 112.02 66.06">
   <path fill="#e5dac8" stroke="#e5dac8" stroke-linecap="round" stroke-linejoin="round" d="M111.4 40.35c-3.6 3.4-7.66 6.36-10 11.04-8.25 10.64-16.7 9.29-25.2 4.88l-3.34-.45c-9.05 11.84-18.3 13.53-27.83 1.53l-2.25-.18c-6.8 6.7-14.3 9.43-24.22-1.8C12.5 53.9 6.44 52.29.5 49.4c32.78-7.86 67.34-13.66 110.9-9.05Z" />
   <path fill="#fffaf0" stroke="#e5dac8" stroke-linecap="round" stroke-linejoin="round" d="M90.01 14.82c.46-4.17.36-8.38-1.09-12.55-4.93.72-8.7 1.99-11.7 3.79" />
   <path fill="#fffaf0" stroke="#e5dac8" stroke-linecap="round" stroke-linejoin="round" d="M98.61 30.34C83.53-12.22 24.69-.47 16.62 34.24" />
   <path fill="#fffaf0" stroke="#e5dac8" stroke-linecap="round" stroke-linejoin="round" d="m111.52 40.16-13.6-11.7c-13.84-5.44-60.61-6.09-81.61 6.12-6.26 3.9-11.14 9.17-15.72 14.73 35.87-10.33 73.13-11.53 110.93-9.15Z" />
   <path fill="#e5dac8" stroke="#e5dac8" stroke-linecap="round" stroke-linejoin="round" d="m39.56 29.52-8.92 10.96c-3.09.42-22.75 4.92-24.77 5.4 1.26-1.37 8.6-7.99 9.81-8.55 6.71-3.77 16.23-6.57 23.9-7.82z" />
   <path fill="#fffaf0" stroke="#e5dac8" stroke-linecap="round" stroke-linejoin="round" d="M100.46 43.8c-12.25-2.26-17.48.35-23.12 3.58 5.95 16.5 22.95 10.26 23.12-3.58zm-25.93.89c1.16-2.83-25.78-2.69-26.13.64.62 13.37 23.84 18.34 26.13-.64ZM19.8 47.82c2.08 11.02 19.91 12.6 24.29 2.14-3.53-3.82-19.08-4.58-24.29-2.14Z" />
   <path fill="#e5dac8" stroke="#e5dac8" stroke-linecap="round" stroke-linejoin="round" d="M87.66 13.26a22.3 22.3 0 0 0-.5-7.74c-2.68.26-4.78 1.3-6.68 2.35" />
   <path fill="#fffaf0" stroke="#e5dac8" stroke-linecap="round" stroke-linejoin="round" d="M42.11 5.92c.23-.3-10.8-5.97-11.47-5.37-.78.71-3.63 14.1-3.1 14.25" />
   <path fill="#e5dac8" stroke="#e5dac8" stroke-linecap="round" stroke-linejoin="round" d="m39.53 7.65-6.97-3.53c-1.3 2.96-1.36 5.96-1.63 8.33z" />
   <ellipse cx="-67.84" cy="16.8" fill="#e5dac8" stroke="#e5dac8" stroke-linecap="round" stroke-linejoin="round" rx="1.12" ry=".8" transform="scale(-1 1)" />
   <path fill="none" stroke="#e5dac8" stroke-linecap="round" stroke-linejoin="round" d="M73.11 18.14c-1.86 4.5-3.51 2.23-5.16-.03-1.72 1.5-3.37 4.65-5.29.33" />
   <ellipse cx="-58.85" cy="13.15" fill="#e5dac8" stroke="#e5dac8" stroke-linecap="round" stroke-linejoin="round" rx="1.69" ry="2.35" transform="scale(-1 1)" />
   <ellipse cx="-65.95" cy="38.06" fill="#e5dac8" stroke="#e5dac8" stroke-linecap="round" stroke-linejoin="round" rx="1.53" ry="2.38" transform="scale(-1 1) rotate(19.41)" />
   <path fill="#e5dac8" stroke="#e5dac8" stroke-linecap="round" stroke-linejoin="round" d="M39.62 26.79c-.5-8.53.11-17.55 14.21-23.27-17.02 2.5-33.11 12.24-36.92 30.06a63.48 63.48 0 0 1 22.71-6.8Z" />
</svg>