<svg width="31.68" height="150.08" viewBox="0 0 31.68 150.08" xmlns="http://www.w3.org/2000/svg"><path style="fill:none;stroke-width:1;stroke-linecap:square;stroke:#fff;stroke-opacity:1;stroke-miterlimit:4;stroke-dasharray:none;opacity:.1" d="m21.525 126.2-.623 5.962-5.265 2.87 5.48 2.435 1.102 5.894 4.008-4.459 5.453.71v-.79l-2.508-4.336 2.508-5.275v-.127l-5.8 1.236zM4.078 106.621l.72 5.717-4.3 3.836 5.66 1.08 2.319 5.275 2.777-5.049 5.734-.574-3.943-4.2 1.225-5.634-5.215 2.453z"/><path style="fill:#fff;stroke-width:15.1181;stroke-linecap:square;opacity:.1" d="m27.223 90.988-.444 6.303-5.445 3.209 5.86 2.371 1.369 6.168 3.117-3.71V94.927Z"/><path style="fill:none;stroke-width:1;stroke-linecap:square;stroke:#fff;stroke-opacity:1;stroke-miterlimit:4;stroke-dasharray:none;opacity:.1" d="m23.64 66.95-1.003 4.14-3.979 1.521 3.627 2.235.217 4.254 3.246-2.76 4.113 1.107-1.62-3.94 2.323-3.568-4.248.325z"/><path style="fill:#fff;stroke-width:15.1181;stroke-linecap:square;opacity:.1" d="m18.857 60.363-15.51 3.998L0 61.451v32.113l5.236-6.341 15.955 1.4-8.593-13.516zM28.648 35.277l-3.988 6.434-7.56.36 4.884 5.783-1.992 7.302L27 52.296l4.68 3.071V42.443l-.35-.086zM13.354 9.297l-11.778 5.85L0 14.27V42.92l.895 1.922 6.087-11.654 13.055-1.592-9.203-9.393Z"/><path style="fill:none;stroke-width:1;stroke-linecap:square;stroke:#fff;stroke-opacity:1;stroke-miterlimit:4;stroke-dasharray:none;opacity:.1" d="m31.68 0-4.506 3.525-5.46-1.712 1.962 5.375-3.317 4.662 5.717-.204 3.41 4.594 1.573-5.5.62-.209z"/></svg>