<svg xmlns="http://www.w3.org/2000/svg" xmlns:xlink="http://www.w3.org/1999/xlink" width="305.33" height="204" viewBox="0 0 305.33 204">
   <defs>
     <pattern xlink:href="#a" id="b" patternTransform="matrix(3 0 0 2 130 145)"/>
     <pattern id="a" width="10" height="10" patternTransform="translate(130 145)" patternUnits="userSpaceOnUse">
       <path fill="#d40000" d="M0 0h5v10H0Z"/>
       <path fill="maroon" d="M5 0h5v10H5Z"/>
     </pattern>
   </defs>
   <path fill="url(#b)" d="M233.33 42.67c-16.3-4.46-30.56-10.53-48-7.38-18.82 3.39-34.1 16.26-48 28.5-22.78 20.06-43.9 42.1-68 60.68-10.55 8.13-21.9 16.4-34.66 20.72-6.7 2.27-15.1.06-21.2 3.42-6.02 3.33-7.24 12.54-2.23 17.37 3.92 3.77 10.39 3.52 15.43 3.3 15.26-.67 30.16-8.73 42.66-16.87C99.9 132.5 124.8 105.08 152 81.13c13.87-12.21 30.58-27.6 50.67-24.73 9.93 1.42 29.6 8.48 33.9 18.4 2.62 6-.4 11.54-2.24 17.2a73.26 73.26 0 0 0-3.5 20c-.53 21.82 8.17 43.77 18.21 62.67 4.65 8.75 10.87 18.8 18.97 24.75C287.96 209.16 305 185 305 170h-27s-22.97-31.45-24.17-51.33c-.51-8.65.61-21.24 11.59-22.33C278.23 95.08 285 116 285 116h20s-3.3-15.37-8.52-25.3c-8.3-15.83-22.01-28.05-32.7-42.09-4.96-6.53-8.4-14.07-13.4-20.58-10.3-13.38-24.34-23.27-41.05-26.49-31.29-6.02-65.76 7.24-96 14.14C90.73 20.84 67.34 26.3 44 25.1c-10.64-.54-21.35-7.35-31.67-6.72-7.93.48-11.16 8.78-6.98 15.12 3.77 5.7 11.04 8.67 17.32 10.57 15.22 4.59 31.07 3.96 46.66 2.2 29.36-3.31 57.9-11.45 86.67-17.82 18.97-4.2 41.7-10.77 59.97-.89 6.9 3.73 12.2 9.31 17.36 15.1z"/>
 </svg>