<svg width="237.5" height="237.5" xmlns="http://www.w3.org/2000/svg">
   <path d="M6.62-.8.07 5.75v2.83L9.45-.8H6.62zm16.97 0L.07 22.72v2.83L26.42-.8h-2.83zm50.9 0L.08 73.63v2.83L77.33-.8H74.5zm16.98 0L.07 90.6v2.83L94.3-.8h-2.83zm16.97 0L.07 107.57v2.83L111.27-.8h-2.83zm50.91 0L.07 158.48v2.83L162.18-.8h-2.83zm16.97 0L.07 175.45v2.83L179.15-.8h-2.83zm16.97 0L.07 192.42v2.83L196.12-.8h-2.83zm44.21 6.7L5.9 237.5h2.83L237.5 8.73V5.9zm0 16.97L22.87 237.5h2.83L237.5 25.7v-2.83zm0 50.92L73.79 237.5h2.82L237.5 76.61V73.8zm0 16.96L90.76 237.5h2.82L237.5 93.58v-2.83zm0 16.98L107.72 237.5h2.83L237.5 110.55v-2.82zm0 50.9-78.86 78.87h2.82l76.04-76.04v-2.82zm0 16.98-61.9 61.89h2.84l59.06-59.06v-2.83zm0 16.97-44.92 44.92h2.83l42.09-42.1v-2.82z" fill="#dbe2e3" opacity="0.5" />
</svg>