<svg xmlns="http://www.w3.org/2000/svg" width="425.95" height="660.41" viewBox="0 0 425.95 660.41">
  <g stroke="#ebdbc0" stroke-linecap="round" stroke-linejoin="round" stroke-width="2" transform="translate(-1407.67 -326.5)">
    <path fill="#f5ebd8" d="M1567.71 382.22c.43 36.07-31.25 73.2-62.06 74.37-41.63 1.57-71.43-31.9-71.43-61.52 0-53.85 34.73-67.57 67.39-67.57 32.65 0 65.66 17.8 66.1 54.72z"/>
    <path fill="#fffaf0" d="m1510.65 456.09 5.46 3.29m-17.76-2.88 2.85 139.9"/>
    <path fill="#f5ebd8" d="M1621.49 792.3c8.09 11 9.96 18.88 10.51 26.1-15.5 1.48-27.98-1.52-38.3-7.66-1.31-2.19-1.18-3.22-.78-4.28 6.52-6.3 14.82-11.65 28.57-14.15z"/>
    <path fill="#fffaf0" d="m1492.6 634.06.84 13.68a1705.37 1705.37 0 0 0-69.5 131.57c-4.22 8.5-6.26 12.68 9.63 12.95l159.68-.02c6.25.59 5.23 8.2.65 8.77-54.16 2.5-112.6 3.55-168.22 1.16-14.34-.76-20.56-5.08-15-17 24.29-52.02 49.35-100.07 81.93-151.1z"/>
    <path fill="#f5ebd8" d="m1493.44 647.74 9.11-.27.52-12.21c2.11-10.37 3.32-20.73 2.99-31.1-.59-10.9-13.86-10.6-14.55-.13-.75 10.3-.1 20.23 1.1 30.03z"/>
    <path fill="#fffaf0" d="m1503.07 635.26-.52 12.2L1588 780.3c3.23 4.07 10.24-2.5 8.63-5.65-29.31-46.84-83.63-128.82-93.55-139.39z"/>
    <path fill="none" d="M1492.6 634.06c3.36-1.37 6.78-1.89 10.47 1.2"/>
    <path fill="none" d="M1501.2 596.4c-2.98 16.8-3 32.07 1.61 44.96"/>
    <path fill="#fffaf0" d="M1632 818.4c12.52-7.82 1.08-41.93-8.66-23.47"/>
    <path fill="#fffaf0" d="M1621.49 792.3c21.3-45.67 71.48-44.53 97.38-7 14.4 32.04 33.74 48.34 74.01 59.53 29.91 12.28 27.3 36.24 20.26 56.03 7.26.1 14.1 1.05 19.47 4.93-2.25 2.8-5.37 5-9.87 6.23-16.87 16.26-42.28 24.16-62.84 25.45-13.86 22.1-46.24 27.4-63.62 19.48-5.5 1.81-10.91 3.5-13.53.9-9.36-7.6-15.5-18.65-16.06-28.38-34.88-9.54-39.73-48.35-38.45-83.93l-6.74-26.82c.64-6.32 1.53-11.74-.01-26.41z"/>
    <path fill="none" d="M1694.87 866.9c-12.73 48.21 12 77.45 59.68 69.23m-58.27 20.82c-3.1-2.22-6.04-4.73-8.12-8.83"/>
    <path fill="#f5ebd8" d="M1719.95 960.14c-2.68 4.97-4.85 9.8-1.76 13.08 10.86-1.6 14.15 3.4 16.9 6.24-7.6.28-15.34-.36-22.7 1.56-19.51 3.43-31.02 5.5-33.22 1.93 4.01-7.21 19.73-9 30.6-11.7l-.35-11.05z"/>
    <path fill="#f5ebd8" d="M1691.78 957.25c-1.13 6.14-5.54 12.4-.42 18.31l-12.19 7.4c-7.36 5.54-39.82 2.66-20.1-3.59 5.45-1.23 11.1-1.44 16.8-1.47 10.21-4.5 7.72-12.5 6.88-20.06l9.03-.6z"/>
    <ellipse cx="1644.61" cy="783.08" fill="#ebdbc0" rx=".87" ry="1.47"/>
    <ellipse cx="1662.19" cy="814.43" fill="#ebdbc0" rx=".83" ry="1.33"/>
    <path fill="none" d="M1621.5 818.72c-4.7-7.94-8.32-16.07-.01-26.41"/>
  </g>
</svg>
