<svg xmlns="http://www.w3.org/2000/svg" width="2560" height="1440" viewBox="0 0 2560 1440">
  <path fill="#fffdfa" stroke="#ebdbc0" stroke-miterlimit="2" stroke-width="3.78" d="M1.89 1.89h2556.22v1436.22H1.89z"/>
  <g fill="#fffaf0" stroke="#ebdbc0" stroke-linecap="round" stroke-linejoin="round" stroke-width="3.785" transform="matrix(.99852 0 0 .99868 .003 .003)">
    <path stroke-miterlimit="0" d="M1668.339 1.89a420.298 420.298 0 0 0-7.114 73.129c0 115.593 47.673 226.451 132.531 308.188 84.858 81.736 199.95 127.655 319.958 127.655 218.546-.413 409.334-151.223 448.177-358.378V1.89Zm502.097 97.564c75.037 0 135.866 61.44 135.866 137.229 0 75.79-60.83 137.229-135.866 137.228-75.036 0-135.865-61.44-135.865-137.228 0-75.79 60.828-137.229 135.865-137.229z"/>
    <path stroke-miterlimit="0" d="m2477.46 83.815-23.823 17.2-16.54 29.105-18.71-26.953-22.819-15.895 23.544-16.635 16.984-28.032 16.95 26.845zm-137.861-39.314-14.001 9.649-10.26 17.09-9.433-15.65-13.015-9.108 13.428-9.53 8.243-17.198 11.112 16.517z"/>
    <path d="M549.888 992.544c-172.126 0-313.236 135.118-313.237 301.473.277 50.52 3.785 101.792 29.114 145.985l556.758-1.892c25.33-44.194 38.75-93.835 39.028-144.355 0-166.354-139.536-301.21-311.663-301.211zm1.254 85.262c55.961-.001 101.326 45.7 101.327 102.074 0 56.374-45.366 102.074-101.327 102.074-55.96 0-101.324-45.7-101.324-102.074 0-56.374 45.364-102.074 101.324-102.075z"/>
    <path stroke-miterlimit="0" d="m1138.128 975.337-35.629 25.76-24.739 43.588-27.98-40.366-34.128-23.804 35.211-24.912 25.402-41.982 25.349 40.204zm1332.944-230.31-13.588 9.855-9.435 16.677-10.67-15.444-13.016-9.107 13.429-9.531 9.687-16.062 9.667 15.382zM1459.62 1.89l-45.42 33.69 44.48 30.372 31.472 51.377 29.899-55.042 47.203-31.213-45.316-29.185zM285.14 147.891l-31.768 24.095-23.363 38.565-25.296-36.348-30.643-20.756 30.674-23.651 24.054-37.723 23.96 35.924zm2276.751 717.674v259.26c-167.898 13.652-167.752 142.024-186.722 224.8l-60.204-28.063c-49.999-234.877 61.224-368.955 246.926-455.997zm-224.92-429.83-17.24 13.7-11.97 23.182-13.54-21.469-16.514-12.66 17.038-13.25 12.292-22.326 12.265 21.381zm-74.494 25.12-30.164 21.622-20.945 36.589-23.688-33.884-28.894-19.98 29.811-20.912 21.506-35.24 21.46 33.747z"/>
    <path d="M1.89 310.887v652.06c196.051 24.23 361.427-140.706 361.009-330.043 0-186.203-167.465-339.84-361.01-322.017zM143.22 463.06c28.67 0 51.91 23.24 51.912 51.91 0 28.67-23.242 51.912-51.912 51.912-28.67 0-51.913-23.242-51.913-51.912.001-28.67 23.243-51.91 51.913-51.91zM1.89 1160.752v279.25h85.653c7.692-37 26.176-68.532 55.621-90.698-21.37-52.891-27.304-108.932-.37-171.68-44.603-16.267-90.417-27.083-140.904-16.872Z"/>
    <ellipse cx="89.458" cy="1105.26" rx="29.82" ry="29.578"/>
    <ellipse cx="245.332" cy="1391.136" rx="44.88" ry="44.523"/>
    <ellipse cx="412.188" cy="1310.86" rx="84.042" ry="83.385"/>
    <path stroke-miterlimit="0" d="m182.717 1020.847-24.683 18.806-17.357 27.86-19.435-26.78-22.72-16.48 22.744-17.083 18.185-28.115 18.514 26.756zm156.061-53.667-18.534 15.21-13.032 22.533-14.594-21.659-17.06-13.33 17.078-13.817 13.655-22.74 13.902 21.641zM157.49 213.783l-13.19 10.855-9.277 16.08-10.387-15.456-12.143-9.513 12.156-9.86 9.719-16.229 9.895 15.444zm972.488 848.543c-93.294.221-176.707 50.71-209.525 126.824l-4.869.112c-27.443-11.95-56.756-16.892-87.31-17.174l-1.395.603c.32-2.84.52-5.693.6-8.55 0-54.934-43.78-99.467-97.784-99.467-54.005 0-97.785 44.532-97.785 99.467.08 30.257 13.696 58.832 36.996 77.642l-14.63 17.416c-32.7-36.01-77.22-51.83-122.92-65.63 33.639 110.878-.652 191.586-82.19 246.433h1142.11c4.145-22.744 4.983-48.653.321-74.15-16.884.257-30.72-4.496-43.782-10.517-4.727 21.605-29.143 45.656-58.128 45.731-30.615 0-55.435-24.984-55.435-55.804.073-29.402 31.692-57.16 46.266-58.086-9.515-26.143-14.237-53.634-6.22-84.707-43.206-18.208-88.672-27.152-137.38-22.805l-1.271.03c-35.7-71.27-116.441-117.346-205.668-117.368zm968.926-46.472c-62.266-.837-124.56 24.064-178.029 74.511-103.692-17.899-162.937 23.014-212.67 76.516 15.245 33.461 22.202 63.542 19.986 90.29a51.308 51.308 0 0 0-40.347-19.653c-28.36 0-51.348 23.04-51.348 51.46.063 24.266 17.032 45.19 40.72 50.211-5.5 3.84-11.293 7.587-17.734 11.127 4.88 33.081 16.852 63.221 37.688 89.685h864.721v-343.34c-24.304-14.374-50.939-16.38-73.715-17.392 131.676 173.987-107.785 342.623-229.123 202.356l-.106-.203c-5.606 26.997-29.313 46.37-56.83 46.441-32.143 0-58.201-26.113-58.201-58.326s26.058-58.327 58.201-58.326c7.759 0 17.774-.922 21.35.588-11.056-52.834 2.244-96.612 34.113-133.487-48.815-40.944-103.735-61.72-158.676-62.458z"/>
  </g>
</svg>
