<svg xmlns="http://www.w3.org/2000/svg" width="424.78" height="787.03" viewBox="0 0 424.78 787.03">
  <path fill="#fd5" d="M394.71.18c2.92.07 5.68.47 8.22 1.27 5.07 1.59 9.61 4.64 11.64 9.84 1.99 5.07 2.8 11.48.34 20.07 4.56 3.6 7 13.06 7.91 20.34.91 7.3-.37 16.82-7.46 24.5 6.51 10.76 8.66 21.83 8.84 33.26.19 11.69-5.76 23.7-8.86 35.39l1.63 514.23c5.66 15.05 6.31 24.25 1.54 37.92 3.2 6.28 10.1 23.02 1.32 31.74 5.86 10.54 5.58 20.02.24 26.95-5.35 6.95-11.47 16.68-28.64 10.5-7.5 6.17-12.46 9.62-20.06 9.49-7.63-.13-17.71-3.42-25.12-7.06 0 0-91.56 6.28-103.94 5.78-51.78-2.4-158.68-1.22-158.68-1.22s-6.66.28-9.2 2.16c-4.48 3.31-18.76 10.19-26.24 10.03-7.53-.16-16.9-2.8-24.35-9.88-10.15-1.69-14.05-6.94-17.2-13.23-3.1-6.25-1.82-14.7 5-26-1.79-3.94-3.37-7.98-3.81-12.27-.46-4.4.36-9.04 3.18-13.77l-.36-33.13C2.42 664.42.17 648.54 0 631.63v-.08l2.3-54.22.01-.15c9.95-69.24 18.84-138.03 8.5-200.2L3.35 343.6a1.3 1.3 0 0 1-.03-.42c3.2-52.1-7.02-110.7 9.68-157.55l.93-42.45c-6.75-6.88-9.38-13.24-8.78-19.1.58-5.7 4.06-10.65 8.68-15.22C7.99 97.2 9.33 85.5 15.77 78.2c6.43-7.28 17.8-9.8 30.85-3.99 3.8-6.04 8.47-8.6 13.35-8.41 5.02.2 10 2.86 14.99 5.99 0 0 86.39-19 129.89-25.58 42.8-9.72 125.34-29.52 125.34-29.52 5.7-2.94 11.5-8.4 17.78-11.69 3.17-1.65 6.52-2.75 10.06-2.5 3.28.24 6.64 1.74 9.98 4.68 8.63-4.41 18.25-7.17 26.7-7z" />
  <path fill="#fff" d="M355.05 82.42c-99.09 14.81-201.02 24.44-294.32 49.24.7 6.03.02 10.43-1.82 13.57a13.25 13.25 0 0 1-4.05 4.27l-2.23 560.8a1 1 0 0 1 .47.33l2.37 6.44c.12.02.25 0 .37.02a8.2 8.2 0 0 1 1.81.68 35.5 35.5 0 0 1 4.48 2.73 39.49 39.49 0 0 1 4.09 3.23c.53.5.96.94 1.27 1.38.16.22.3.44.38.75.08.32.05.9-.32 1.25.16-.15.12-.15.1-.12 0 .03-.04.1-.08.2l-.28.77c-.22.64-.48 1.48-.73 2.31-.3 1-.39 1.34-.57 1.97 25.88-3.3 52.3-3.83 74.4-.53l209.46-10.09c.38-2.92 1.18-5.66 3.02-7.87 1.15-1.38 2.85-2.4 4.82-3.23-.73-6.13.47-10.8 2.9-14.26a1 1 0 0 1-.34-.3c-10.7-204.76-6.11-408.84-5.2-613.54z" />
  <path d="M1157.75 66.9c-8.45-.18-18.1 2.59-26.73 7.01-3.35-2.95-6.7-4.45-10-4.68-3.54-.26-6.9.84-10.06 2.5-6.29 3.28-12.1 8.77-17.8 11.7 0 0-82.64 19.86-125.5 29.6-43.56 6.59-130.05 25.64-130.05 25.64-4.99-3.13-9.99-5.8-15-6-4.9-.2-9.58 2.38-13.38 8.43-13.06-5.83-24.45-3.3-30.88 4-6.45 7.3-7.79 19.03-1.95 30.73-4.62 4.58-8.1 9.54-8.7 15.25-.59 5.88 2.04 12.25 8.8 19.14l-.93 42.56c-16.71 46.96-6.48 105.69-9.69 157.92 0 .14 0 .28.04.42l7.46 33.45c10.35 62.32 1.45 131.27-8.5 200.68l-.02.14-2.3 54.35v.08c.17 16.95 2.42 32.87 10.66 45.56l.36 33.22a21.91 21.91 0 0 0-3.18 13.8c.44 4.3 2.03 8.35 3.8 12.3-6.8 11.33-8.1 19.8-4.98 26.06 3.14 6.3 7.05 11.56 17.2 13.26a36.91 36.91 0 0 0 24.4 9.9c7.48.16 21.78-6.73 26.27-10.06 2.53-1.87 9.2-2.15 9.2-2.15s107.04-1.19 158.88 1.21c12.4.51 104.07-5.79 104.07-5.79 7.4 3.65 17.51 6.94 25.14 7.07 7.61.13 12.58-3.32 20.1-9.5 17.18 6.2 23.3-3.57 28.66-10.53 5.35-6.94 5.63-16.45-.24-27.02 8.8-8.73 1.88-25.51-1.32-31.8 4.78-13.71 4.12-22.93-1.54-38.01l-1.64-515.44c3.11-11.7 9.07-23.75 8.88-35.47-.18-11.45-2.33-22.56-8.85-33.34 7.1-7.7 8.38-17.24 7.47-24.55-.9-7.3-3.36-16.78-7.92-20.4 2.46-8.6 1.64-15.03-.34-20.1-2.03-5.22-6.58-8.28-11.66-9.88-2.54-.8-5.3-1.2-8.23-1.26zm-.06 3.04c2.69.04 5.19.4 7.4 1.09 4.42 1.39 7.67 4 9.37 8.35 1.7 4.35-.22 11.9-1.2 20.03 11.24 11.97 9.8 31.18 2.1 38.87-.33.5.9 7.94 1.21 8.44 8.61 22.43 4.42 43.53-1.12 64.6-.03.12-.05.25-.05.38l-3.42 13.98-.02 7.9-1.02 490.25c0 .35.32 8.62.55 8.89 4.5.32 5.64 5.12 5.68 11.74.06 10.48-1.2 15.1-4.29 22.03-.3.68-1.56 3.23-.93 3.63 7.75-1.6 11.4 16.23 4.5 26.82 8.19 4.43 7.57 17.4 3.15 23.59-8.86 12.38-9.2 12.18-25.6 11.2-.37-.03-1.7-.6-1.99-.37-6.67 3.28-8.55 5.67-15.63 6.08-21.56 1.24-16.61-4.94-25.1-6.6-1.71-.34-3.45-.74-5.2-.68-88.19 3.36-177.14 6.42-265.87 8.29-3.38.07-7.38-.1-9.89 2.15-4.05 3.64-13 9.95-19.72 9.47-8.94-.65-18.28-6.17-21.52-11.77-10.04-.28-14.62-3.75-17.18-8.88-2.56-5.13-1.73-12.56 5.23-23.86.27-.42.3-.95.09-1.4-1.87-4.08-3.42-8.08-3.84-12.07-.41-4 .29-6.14 3.01-10.5.47-12.17-.04-24.44-.17-36.63 0-.3-.09-.57-.25-.82-7.95-11.98-10.24-27.45-10.41-44.31l2.3-54.24c9.95-69.41 18.93-138.6 8.48-201.54l-.02-.08-7.44-33.32c3.2-52.8-6.82-111.31 9.6-157.12.06-.16.08-.32.09-.48l.94-43.34c.01-.4-.15-.8-.44-1.1-6.78-6.72-8.88-12.28-8.38-17.23.5-4.95 3.75-9.6 8.53-14.16.49-.47.6-1.2.29-1.8-5.97-11.14-4.6-21.88 1.09-28.34 5.7-6.45 15.82-8.92 28.52-2.8a1.5 1.5 0 0 0 1.96-.61c3.57-6.35 7.25-8.17 11.41-8 4.16.16 9.03 2.64 14.08 5.85.33.21.74.28 1.12.2 0 0 88.49-15.7 132.39-25.21 41.55-9.01 123.94-30.19 123.94-30.19.13-.02.25-.07.36-.13 6.36-3.23 12.21-8.8 17.97-11.8 2.88-1.51 5.67-2.37 8.46-2.17 2.8.2 5.7 1.43 8.93 4.52a1.5 1.5 0 0 0 1.73.24c8.49-4.5 18.18-7.16 26.23-7.04z" color="#000" transform="translate(-762.5 -66.89)" />
  <g fill="none" stroke="#000" stroke-linecap="round" stroke-linejoin="round" stroke-width="2">
    <path d="M65.12 112.55c-6.17-10.22-13.99-19.12-22.6-27.4v-5.32M16.16 109.4c6.46 10.15 17.17 16.55 31.95 19.36m5.51 1.66c6.7-.68 11.47-4.9 12.12-16.8 6.12 3.27 12.1 7.86 19.56-1.57 46.83-10.72 92.78-16.88 138.1-24.84 33.6-5.9 66.52-14 98.8-22.7" />
    <path d="m76.85 81.11 4.4 30.12 3.87 1.1m.73-6.06 43.7-9.18m4.59 0 104.12-21.85m8.44-1.47 76.03-18.73m-17.68 7.88.21 5.64m-11.73-3.16 1.15 7.58m-10.33-4.17.18 5.5m-12.12-2.56v4.59m-12.67-2.21 2.76 4.41m-15.24-4.41 6.17 8.96m64.01-20.07.15 5.97m-78.04 10.29.18 4.04m-12.67-.45.92 2.93m-12.24-.45 1.62 2.6m-11.88-1.24 1.56 2.86m-10.52.07 1.17 3.24M181.4 91.2l1.55 3.76m-11.17-2.34c.07.4.78 2.66.78 2.66m-14.6 0 2.14 2.15m-69.08 8.11 1.17 4.55m5.71-5.72 1.43 4.1m8.18-5.85.85 3.64m7.92-3.18.9 2.27m10.65-4.81 1.43 2.02m8.83-3.58.71 2.4m7.67-4.08 1.88 3.9m219.3-90.7c-12.35 9.18-19.62 23.98-25.45 40.38m-11.16-32.46c-4.15 6.6-7.26 13.3-7.27 20.25m80.89-1.43-39.08 29.22m47.78 5.84c-13.98 11.26-29.09 15.56-44.8 16.1M320 49.97c-.13 16.68 6.15 20.15 17.79 12.6m3.51-2.87c-1.14 2.99-1.89 5.89.39 8.19m3.24 2.85c1.64 2.27 3.39 4.1 5.71 3.64m2.08.65H360M49.3 151.17c7.35-2.51 12.8-7.17 10.2-22.04m-43.72 13.21c5.32 4.9 20.45 6.73 31.78 6.62m12.49-18.08c93.77-25 196.2-34.6 295.66-49.49m.39-6.07c-.84 207.09-5.68 413.5 5.15 620.58M53.95 149.17l-2.24 561.15m-39.83-46.97c1.4-17.75-.84-36.6 7.38-53.66 10.5-86.05 18.24-197.16-3.07-309.14.88-37.6 3.03-77.1-1.14-114.71m26.44-36.02c-3.18 183.7-2.36 372.52-2.28 560.4m10.29 26.81c-10.97 7.16-17.8 20.03-22.41 35.99m-7.62-37.65c8.18-8.03 17.9-15.09 35.53-17.07" />
    <path d="M10.84 718.39c10.51-11.97 26.81-7.24 41.4-7.44l2.67 7.26c.86-1.63 13.08 7.14 12.03 8.17-.4.39-2.02 4.95-2.02 4.95" />
    <path d="M56.47 730.7c4.33-.58 7.47.44 10.74 1.28-7.44 14.5-10.55 20.05-11.02 35.35-.3 4.95 10.3 4.25 16.07 6.06m-11.82-10.51 27.47-1.95m10.52.34 63.26.18m10.28-.46 11.75-1.1m4.96-.28 52.43 1.01m13.49-1.1 78.78-1.74m2.2-20.02c-1.13 12.44 10.66 22.87 18.5 30.25m2.8-32.27c5.53 13.98 20.61 21.5 33.24 30.67m13.24-45.08 12.14 8.05m-15.71-10.2c-.46.37-20.29-7.71-19.67-8.83m-29.61 19.09c-.17-11.43.32-22.44 24.54-18.96" />
    <path d="M358.7 710.87c-4-29.52 36.03-22.62 43.23-15.45M66.94 733.2c26.39-3.48 51.01-3.88 73.49-.51l210.34-10.13M62.33 742c21.84-5.66 51.13-3.92 80.08-2.96 21.08.7 42.73-.13 62.61-.54l129.83-6.98c.2-2.65 1.87-5.24 5.87-7.71M73.5 736.06l.05-3.21M83 731.8l.23 6.37m10.93-7.11-.23 6.43m28.47-4.04.08 4.36m-13.54-5.24-.23 2.94m26.21-3.49-.04 6.38m7.85-3.67-.42 4.27m13.23-7.02-.19 4.59m11.07-4.59.09 6.88m13.13-5.18.09 5.14m7.8-5.19-.09 5m9.23-7.66-.1 7.16m8.59-4.55.05 4.5m16.06-6.65.56 5.96M214.2 734l.19 3.58m19.92-9.46.37 6.06m11.2-5.78 1.01 3.85m9.27-1.37-.91 4.13m11.75-5.33-.55 4.68m14.96-5.87.1 4.86m7.34-4.77v4.5m11.93-4.32.83 3.58m8.99-7.8-.08 8.08m9.82-4.41.64 3.12m88.3-66.47c-51.44-175.65-34.03-349.59 1.96-510.66" />
    <path d="M414.92 80.61c-48.71 132.62-78.14 402.64-16.62 611.83" />
  </g>
</svg>