<svg xmlns="http://www.w3.org/2000/svg" width="106.76" height="150.93" viewBox="0 0 106.76 150.93">
  <g stroke-linecap="round" stroke-linejoin="round" transform="translate(-16.6 -9.5)">
    <path fill="#f5ebd8" stroke="#ebdbc0" d="M62.97 147.9c-16.44-17.5-18.4-39.63-11.88-64.46 4.2-7.66 3.15-17.15 7.16-24.75 1.92-3.65 4.27-5.4 7.86-9.55-1.58-7.78-2.93-15.6 5.29-24.81L72.3 10c6.02.83 9.66 4.5 13.13 8.38 6.84-.98 12.26.95 16.75 4.8 3.1-1.81 6.2-3.67 10.92-2.38l-3.16 6.17 2.27 6.12c3.9 12.44-5.66 25.94-11.19 28.18L83.75 69.5l-6.63 76.63-9.5 7.37z"/>
    <path fill="#ebdbc0" stroke="#ebdbc0" d="M97.25 35.83c4.42-7.87 12.5 1.41 5.63 5.66l-5.47-1.7zM84.08 31.1c-5.53-3.08-11.01 1.4-7.87 5.25 4.87 6.04 9.64.69 7.87-5.25z"/>
    <path fill="#f5ebd8" stroke="#ebdbc0" d="M99 112.21c14.62-.28 16.76 14.1 10.86 26.8L84.08 115.3Zm-3.1-53.44c10.32 5.15 11.3 25.13 9.37 32.44l-16.49-11.5Z"/>
    <path fill="#fffaf0" stroke="#ebdbc0" d="M102.9 145.81c28.37.37 25.4 15-2 6.1-6.2-2.64-12.53-3.98-19.11-5.02l-15-29.11c.85-2.17 1.57-4.42 4.41-5.29l-.77-6.8c-3.01-3-1.95-6.29-.62-9.59-1.6-1.99-1.8-4.17-2-6.36 6-8.6 8.65-18 5.8-28.66l-4.42-5.88c4.1-2.9 3.48-7.72 1.01-13.3 10.78-4.93 16.8-1.6 14.38-11.04 1-2.9 3.58-5.1 6.42-7.2 3.57 2.17 4.28 5.28 4.17 8.67l1.7 3.01c-1.05 5.33 1.25 4.97 5.88 6.65 4.78 6.46 4.29 18.06-6.03 21.18l-.85 5.7c3.13 8.85 3.05 24.6 1.4 33.47 2.28 4.32 2.77 8.49.96 11.78l-2.6 3.56c13.56 1.49 17.95 13.54 14.23 21.34-1.4 2.93-6.96 6.8-6.96 6.8zM72.21 11.56l-.81 12.77c3.06-1.37 7.2-2.12 9.26-4.91-1.6-2.47-5.38-6.26-8.45-7.86zm33.44 16.35c-1.35-3.01 3.35-5.01 7.46-7.11.72 3.22-1.58 8.85-.9 12.29a26.76 26.76 0 0 1-6.56-5.18zM62.97 147.9l10.13 1.54c-.4 15.98-11.1 12.28-10.13-1.54z"/>
    <path fill="none" stroke="#ebdbc0" d="m59.96 36.45 15.88 2.48m-16 2.32 16.39 1.04m24.07 3.03a50.3 50.3 0 0 1 14.96 4.1m-2.13 3.86c-3.99-2.69-7.79-4.52-11.36-4.95m-6.13 69.34c6.41 5.64 3.32 6.36 2.1 9.27 2.5 1.05 1.25 2.78-.1 4.54l.33 3.39-5.47 5.63"/>
    <path fill="#fffaf0" stroke="#ebdbc0" d="M93.52 90.06c4.15-4.55 4.73-7.67 2.58-12.67-2.27-19.8 5.49-5.6 6.46 1.62 7.42 8.94 2.02 15.05-4.65 20.81-.64-3.4-1.44-6.77-4.4-9.76z"/>
    <path fill="#fffaf0" stroke="#ebdbc0" d="M73.6 61.08c5.85 5.62 3.63 12.4 4.95 18.67C84.79 85 94.16 87.5 96.63 94.98c.78 2.36 3.28 9.13-1.73 7.27-8.58-7.54-20.41-10.01-31.16-13.92 10.49-6.2 6.23-9.29 5.26-22.99-.15-2.08 4.6-4.26 4.6-4.26Z"/>
    <path fill="none" stroke="#ebdbc0" d="m96.72 85.38 3.53-5.48"/>
    <path fill="#fffaf0" stroke="#ebdbc0" d="M70.28 148.6c10.8-11.1-1.71-22.65-10.98-27.68 28.78-17.51 34.83 36.99 10.98 27.67z"/>
    <path fill="none" stroke="#ebdbc0" d="M83.32 144.62c4.65-1.32 8.82-1.2 12.02 1.84m-3.16-81.73 4.54-1.57M85.2 66.68l4.83-3.24m-4.33-7.12c1.9.9 3.93.92 6.07.2M57.62 76.75c1.42 5.4 3.25 9.8 6.12 11.58"/>
    <ellipse cx="74.41" cy="48.76" fill="#fff" stroke="#fff" stroke-width="1.11" rx="1.98" ry="1.16" transform="matrix(.977 -.212 .133 .991 0 0)"/>
    <ellipse cx="83.12" cy="69.56" fill="#fff" stroke="#fff" stroke-width="1.08" rx="1.48" ry=".93" transform="rotate(-21.2) skewX(-1.8)"/>
    <path fill="#ebdbc0" stroke="#ebdbc0" d="M90.07 47.77a9.2 9.2 0 0 0-2.61 3.4c1.2.61 2.48.92 3.98.4a11.5 11.5 0 0 0-1.37-3.8z"/>
    <ellipse cx="91.13" cy="42.74" fill="#ebdbc0" stroke="#ebdbc0" rx="1.19" ry=".97"/>
    <path fill="#f5ebd8" stroke="#ebdbc0" d="M53.67 134.76 58.1 142c-10.73 1.28-21.46 2.56-30.73 6.12-13.78 4.96-12.1-3.93-4.3-7.2 9.13-3.7 19.64-5.28 30.6-6.17z"/>
  </g>
</svg>
