<svg xmlns="http://www.w3.org/2000/svg" width="1388.36" height="530.92" viewBox="0 0 1388.36 530.92">
  <path fill="#fffaf0" stroke="#ebdbc0" stroke-linecap="round" stroke-linejoin="round" stroke-width="2" d="M511.78 94.59c-62.56 10.35-103.53 87.78-143.87 117.25-61.75 5.1-120.39-13.41-234.64 10.1-215.13 61.54-131.15 189-6.47 169.81l46.5-53.47 94.57 13.17c30.98-3.68 61.1-1.28 93.33-13.8 51.18-22.67 100.17-48.08 146.02-77.42l89.45-95.46L529.85 87z"/>
  <path fill="#ebdbc0" stroke="#ebdbc0" stroke-linecap="round" stroke-linejoin="round" stroke-width="2" d="M156.07 321c72.66-34.03 152.6-45.73 281.62-55 31.93-.64 59.67-17.44 85-43.5l-18 40c-94.75 60.81-176.28 94.4-239 89.25l-94.5-12.25z"/>
  <path fill="#fffaf0" stroke="#ebdbc0" stroke-linecap="round" stroke-linejoin="round" stroke-width="2" d="M297.37 416.32a86.67 86.31 0 0 1-86.66 86.32 86.67 86.31 0 0 1-86.67-86.32 86.67 86.31 0 0 1 86.67-86.31 86.67 86.31 0 0 1 86.66 86.31z"/>
  <path fill="#fffaf0" d="M551.15 0c1.48.07 3 .8 4.6 2.1a1 1 0 0 1 .06.05l91.47 88.38c11.59-11.74 26.38-17.97 50.02-21.06h.03c22.56-3.59 45.36-2.34 68.06-1.34 13.66-5.59 29.4-6.84 45.14-7.95a1 1 0 0 1 1.06.89c1.66 14.77 2.03 29.59-.67 44.43 34.58 5.85 66.74 19.4 96.4 40.76l54.6 2.62c8.7-9.09 17.95-15.29 30.67-17.62a1 1 0 0 1 .11-.01c19.83-1.33 40.76-.57 56.7-7.58a1 1 0 0 1 1.15.26 36.7 36.7 0 0 1 8.2 15.9 1 1 0 0 1 .08.3c.5 2.1.85 4.23 1.03 6.4a1 1 0 0 1-.03.35l-9.02 33.76.27 9.5a5.4 5.4 0 0 1 2-1.08c1.45-.39 3.17-.2 5.15.24.98-5.26 3.74-8.3 7.52-9.4 3.88-1.14 8.61-.49 13.6.63 4.1-4.95 8.15-9.5 12.2-11.93 2.1-1.26 4.24-1.97 6.38-1.76 1.95.2 3.79 1.28 5.47 3.06 7.28-1.91 14.89-4.35 21.36-4.35 3.31 0 6.36.66 8.83 2.46 2.21 1.62 3.78 4.3 4.75 7.85 14.46-6.3 26.29-5.94 32.64-2.06 3.25 2 5.07 5.06 4.7 8.43-.32 2.83-2.18 5.73-5.48 8.5 4.67.58 8.49 2.6 10.32 5.47a6.47 6.47 0 0 1 .75 5.66c-.54 1.55-1.87 2.96-3.66 4.25a23.14 23.14 0 0 1 5 3.46c1.4 1.41 2.17 2.94 2.01 4.5-.16 1.55-1.2 2.88-2.77 4.03a23.1 23.1 0 0 1-4.37 2.15c53.88 10.9 79 32.48 101.26 55.46 39.45 12.1 74.18 39.2 98.83 87.17l.04.07c8 12.78 11.69 23.46 10.55 32.43-1.14 8.98-7.23 16.02-18.1 21.25a1 1 0 0 1-.15.05c-113.66 34.1-223.57 54.27-338.18 42.65h.03c-28.35-2.08-51.52 2.06-77.4.13-34.5-2.59-67.32-13.22-102.17-15.55a1 1 0 0 1-.4-.2 55.6 55.6 0 0 1-43.02 20.41c-25.57 0-47.1-17.4-53.78-41.1-1.38.59-2.89.93-4.48.93-3.71 0-6.86-1.88-8.94-4.6a11.51 11.51 0 0 1-10.17 6.24c-2.58 0-4.85-1-6.78-2.42A50.96 50.96 0 0 1 675 462.14c-28.21 0-51.12-22.66-51.12-50.6 0-15.97 7.64-30.05 19.32-39.32l-49.56-11.97a1 1 0 0 1-.66-.7c-25.7-.2-51.55-.39-73.17-11.1a1 1 0 0 1-.1-.05c-8.98-5.86-13.1-13.78-13.24-22.15-.15-8.21 3.46-16.8 9.56-24.56a1 1 0 0 1-.08-.1c-9.98-19.92-15.06-39.59-9.7-57.1 5.34-17.44 21.07-32.47 51.97-43.22a97.43 97.43 0 0 1 28.15-30.04 8.91 8.91 0 0 1-2.3-3.07c-1.3-2.93-1.67-6.5-2.41-9.55-4.81-3.52-7.43-7.68-7.14-12.32l-3.06-.27c.37 4.51.23 7.87-.42 10.12-.7 2.47-2.1 3.92-3.78 4.2-1.68.28-3.3-.48-4.72-1.56a13.67 13.67 0 0 1-2.86-3.08c-2.14 1.68-4.4 3.16-7 2.92-2.77-.25-5.4-2.5-8.05-7.29-2.85 1.65-5.22 2.65-7.16 2.94-2.15.31-3.9-.2-5.16-1.29-2.33-2.02-2.95-5.49-3.69-8.69-2.46-.14-4.39-.56-5.77-1.36a5.73 5.73 0 0 1-2.77-3.71c-.64-2.78.36-5.9 1.2-8.9-1.55-1.94-4-3.92-4.58-6.73-.31-1.5.07-3.18 1.36-4.8 1.1-1.4 3.01-2.83 5.6-4.38a10.9 10.9 0 0 1-3-3.27 4.96 4.96 0 0 1-.1-4.56c1.33-2.65 4.98-4.6 10.36-6.27-1.24-2.27-1.24-4.65-1.22-6.78-1.68 1.4-3.4 2.68-5.32 2.87a4.47 4.47 0 0 1-3.68-1.44c-.83-.86-1.52-2.2-2.15-3.85-1.9 1.8-3.63 2.91-5.23 3.03-1.93.13-3.47-1-4.45-2.43a12.95 12.95 0 0 1-1.85-4.85c-.19-1-.09-1.72-.08-2.54-2.06.8-3.85 1.18-5.3.85-1.79-.4-3.02-1.73-3.7-3.4-1.31-3.2-1.2-7.87-1.16-12.93-2.53-.57-4.53-1.48-5.85-2.83a8.18 8.18 0 0 1-2.27-5.47c-.19-3.9 1.62-8.3 3.88-12.57-2.47-2.36-4.2-4.72-4.46-7.23-.25-2.51 1.13-4.91 3.95-6.98-.98-3.33-2.17-6.65-1.98-9.55.1-1.54.67-3.02 1.95-4.05 1.1-.9 2.72-1.37 4.77-1.59.11-3.2.48-6.73 1.81-9.26.72-1.38 1.8-2.52 3.31-2.86 1.5-.33 3.22.16 5.13 1.45a1 1 0 0 1 .16.14c12.63 13.44 20.61 28.62 24.3 45.33a107.2 107.2 0 0 1 22.28-.53c-.09-.2-.15-.4-.23-.6l-.17-.16a1 1 0 0 1 .01-.23c-6.38-14.81-9.24-29-9-38.72.12-5.18 1-9.14 2.97-11.4a4.76 4.76 0 0 1 3.82-1.72z"/>
  <path fill="#fffaf0" stroke="#ebdbc0" stroke-linecap="round" stroke-linejoin="round" stroke-width="2" d="M863.57 407.5a54.8 55.45 0 0 1-54.8 55.46 54.8 55.45 0 0 1-54.8-55.45 54.8 55.45 0 0 1 54.8-55.45 54.8 55.45 0 0 1 54.8 55.45z" color="#000"/>
  <path fill="#ebdbc0" stroke="#ebdbc0" stroke-linecap="round" stroke-linejoin="round" stroke-width="2" d="M875.7 389.1c-4.6.01-9.24.21-13.88.47a56.71 56.71 0 0 1-8.73 52.41c34.88 2.46 67.48 12.94 101.43 15.48 25.57 1.92 48.77-2.23 77.39-.12a1 1 0 0 1 .03 0c114.21 11.58 223.8-8.51 337.3-42.54 8.28-4 13.29-8.88 15.58-14.8-37.4 8.97-72.66 6.49-108.76 9.98-54.07 5.24-109.41 12.2-162.21 16.36a1 1 0 0 1-.11 0c-78.06-2.78-156.14-37.62-238.03-37.25Z"/>
  <path fill="#fffaf0" stroke="#ebdbc0" stroke-linecap="round" stroke-linejoin="round" stroke-width="2" d="M725.02 411.54a50.03 49.51 0 0 1-50.03 49.5 50.03 49.51 0 0 1-50.03-49.5A50.03 49.51 0 0 1 675 362.03a50.03 49.51 0 0 1 50.03 49.5z" color="#000"/>
  <path fill="#ebdbc0" stroke="#ebdbc0" stroke-linecap="round" stroke-linejoin="round" stroke-width="2" d="M514.9 341.75a31.52 31.52 0 0 0 5.85 4.94c22.12 10.93 49.18 10.68 76.18 10.92 21.15-.23 42.73-1.24 61.34 6.03a1 1 0 0 1 .31.2 51.02 51.02 0 0 1 16.41-2.9 50.9 50.9 0 0 1 20.4 4.25 56.73 56.73 0 0 1-17.62-16.36c-4.21-1.79-8.42-3.28-12.62-4.82 3.3 3.62 5.9 7.08 6.34 10.26a1 1 0 0 1-1.22 1.11c-28.16-6.67-49.7-4.52-73.13-4.61h.03c-32.25 1.06-59.8-1.82-82.27-9.02zm180.5 23.44c2 1.2 4.07 2.28 6.2 3.23a50.87 50.87 0 0 0-6.2-3.23zm15.05 6.38a61.1 61.1 0 0 1-8.85-3.15 51.21 51.21 0 0 1 19.82 22.2c.13-.14.18-.37.33-.48.4-.3.88-.51 1.43-.72 1.1-.41 2.53-.74 4.21-1.02 3.37-.57 7.72-.94 12.06-1.14 4.34-.2 8.66-.23 11.94-.11 1.64.06 3.02.16 4.04.3.39.06.69.14.99.22 2.92-7.88 7.48-14.93 14.63-21.9 11.1-9.7 23.8-14.88 37.72-14.88a55.46 55.46 0 0 1 40.02 17.09c15.45-23.81 30.98-39.59 45.16-49.62-12.9-1.45-26.6-6.35-48.07-16.13-19.45-1.93-39.36-.37-59.24-.9-1.17-.03-1.6-1.44-.46-1.7 21.45-4.77 43.96-4.37 66.4-4.46 22.44-.08 45.25-.66 67.3.24 0 0 0 0 0 0 8.45.43 14.68 2.92 20.52 5.6a1 1 0 0 1 .31.24h0a163.85 163.85 0 0 1 13.52-.73c1.9 0 3.8.06 5.7.07-3.86-3.33-7.02-6.71-7.72-10.43-21.05-4.71-43.74-13.52-65.58-19.94-21.95-6.45-42.99-10.44-60.45-5.61-24.38 8.47-46.13 13.06-62.64 9.42-8.26-1.82-15.22-5.75-20.35-12.27-5.14-6.53-8.45-15.6-9.66-27.65v-.06c-.45-11-4.35-18.88-10.38-25.09-6.03-6.2-14.23-10.7-23.21-14.63-8.98-3.93-18.88-7.34-27.05-10.03-4.09-1.34-7.74-2.5-10.64-3.45a65.04 65.04 0 0 1-5.46-1.97 1 1 0 0 1-.44.35l-9.46-1c-2.88 2.67-5.76 4-8.58 3.98-2.7 0-5.23-1.2-7.63-2.94-1.61 1.23-3.32 2.7-5.6 2.94a6.38 6.38 0 0 1-4.05-1.03c-1.22-.75-2.5-2-3.86-3.68-1.9 1.32-3.57 2.2-5.02 2.53-1.65.39-3.1.17-4.26-.39-1.81-.87-3-2.25-4.19-3.38h0c-1.3.69-2.5 1.49-3.75 2.25a429.3 429.3 0 0 0 71.75 43.9c9.54 5.98 18.2 13.83 26.77 21.77a1 1 0 0 1 .29.7 1 1 0 0 1-1.28 1.34c-7.96-3.14-17.43-4.2-25.85-5.97h-.02c-20.3-4.62-32.56-9.18-40.85-15.35-8.3-6.17-12.5-13.92-16.66-24.56a1 1 0 0 1 .02-.62c-.56-.36-1.29-.75-1.76-1.09a10.46 10.46 0 0 1-1.79-1.58c-.46-.54-.84-1.15-.75-1.94.09-.8.74-1.38 1.45-1.69.22-.09.6-.1.86-.18l-13.8-13.46a1 1 0 0 1-.02-.28c-8.52 5.52-15.93 12.54-22.97 20.12 11.56 1.82 22.9 8.49 34.1 13.75 1.07.5.56 2.1-.6 1.89-31.04-5.55-57.08-6.01-75.62 11.5-18.26 17.23-23.89 46.27-15.6 73.7 20.1 13.85 52.82 19.68 80.76 24.48 27.06 4.65 52.36 10.6 77.8 21.15-6.93-11.16-11-25.56-10.35-43.48-1.4-1.28-2.76-2.57-4.2-3.84a1 1 0 0 1-.07-1.42 50.59 50.59 0 0 1 21.68-14.02 1 1 0 0 1 .27-.06l35.63-1.55c8.76-4.21 18.44-5.12 32.55-4.84.3 0 .6.15.78.4 8.38 11.29 12.08 22.39 14.32 33.33 11.99 9.65 21.59 20.4 24 34.12a1 1 0 0 1-1.06 1.17l-2.06-.16c-8.22 9.57-18.14 16.62-34.98 23.47-18.4 5.22-30.84 5.44-42.24 2.36z"/>
  <path fill="#ebdbc0" stroke="#ebdbc0" stroke-linecap="round" stroke-linejoin="round" stroke-width="2" d="M631.02 213.17c3.56 6.18 9.82 10.32 18.52 13.68 7.53 2.9 17.06 5.34 27.48 8.07-2.43-1.12-5-2.2-7.6-3.33-4.68-2-9.27-4.25-12.5-7.7a67.4 67.4 0 0 1-10.22-1.06c-2.4-.52-3.86-1.13-4.7-2.16a2.7 2.7 0 0 1-.61-1.78c.02-.6.23-1.15.5-1.64.28-.51.72-.94 1.1-1.4-3.88-.87-8.17-1.7-11.97-2.68zm497.68-14.09c-26.28 1.58-51.71 9.25-70.28 24.52 11.35.48 22.7.8 34.04.63 8.96-11.44 22.98-19.62 36.25-25.15ZM563.5 91.97a1 1 0 0 1-.27.12l-2.8.65 13.44 36.82a1 1 0 0 1-.36 1.15l-18.44 13.28a1 1 0 0 1-.58.2l-24.77-.82c.74 3.07 2.43 6.83 3.9 8.1.82.71 1.83 1.07 3.56.82 1.72-.26 4.12-1.2 7.29-3.13a1 1 0 0 1 1.41.4c2.68 5.2 5 6.89 6.97 7.07 1.97.18 4.13-1.19 6.42-3.08a1 1 0 0 1 1.5.27 12.3 12.3 0 0 0 2.97 3.37c1.17.89 2.36 1.32 3.18 1.18.82-.14 1.6-.73 2.2-2.78.58-2.05.8-5.46.29-10.56a1 1 0 0 1 1.08-1.1l5.08.44a1 1 0 0 1 .9 1.16c-.7 4.34 1.56 8.11 6.66 11.73a1 1 0 0 1 .4.57c.84 3.32 1.22 6.96 2.36 9.51a6.31 6.31 0 0 0 2.32 2.92c1.03.65 2.4 1 4.43.85.31-.02.61.1.82.32 1.97 2.15 3.54 2.85 4.98 2.98 1.44.13 2.87-.34 4.43-.92a1 1 0 0 1 .93.12c.15.1.24.24.38.35l.15-.01a1 1 0 0 1 .58.5 1 1 0 0 1 .05.2c1.37 1.25 2.53 2.58 3.8 3.19.8.38 1.67.54 2.94.25 1.26-.3 2.92-1.1 5.06-2.7a1 1 0 0 1 1.4.2 15.5 15.5 0 0 0 3.92 3.88c1.1.68 1.96.84 2.78.75 1.65-.18 3.3-1.58 5.17-2.95a1 1 0 0 1 1.2.01c2.39 1.85 4.73 2.92 7.09 2.93 2.36.01 4.84-1.01 7.62-3.73a1 1 0 0 1 .8-.29l5.19.56c-39.94-17.29-53.75-35.91-67.44-53.73-10.17-10.64-16.6-20.95-20.99-31.05Zm233.28-18.7c-14.51.7-28.63.7-44.08 4.13a.9.9 0 0 1-.1.02c-10.5 1.34-19.93.96-28.95 0h.08c-25.51-.74-49.69 2.28-69.73 19.6l12.58 12.15 48.11 43.43c11.83 9.11 18.44 22.54 21.56 38.67a.7.7 0 0 1 .01.05c3.8 26.07 10.03 43.45 18.08 54.3 8.05 10.83 17.84 15.21 29.26 15.44 22.83.46 52.14-16.26 83.7-33.3l.05-.01c14.57-6.85 37.36-9.44 64.1-9.84 26.74-.4 57.42 1.43 87.63 3.65h.01c10.32.6 20.64 1.24 30.95 1.76l-1.24-42.77c0-.1.01-.19.04-.28l8.26-31.34c-.73-1.37-3.45-7.43-4.22-8.67-14.48-5.47-29.02-3.58-47.37-3.18-14.51 6.07-25.24 13.18-36.85 20.13a1 1 0 0 1-.62.14l-25.35-2.16 34.53 15.91c11.25-.3 20.82-.18 28.1.5 7.34.7 12.37 1.8 14.8 4.22a1 1 0 0 1-.66 1.7l-18.13.73-21.68 5.22a1 1 0 0 1-.74-.12c-23.19-12.84-46.78-25.76-67.02-34.87-3.93.32-5.54.6-8.21-1.22-7.87-.72-21.61-1.32-29.09 2.2l-43.75-3.98c-1.2-.11-1.22-1.84-.03-1.99l44.68-5.28c-19.48-11.9-44.25-17.53-70.3-22.74-27.16-5.44-55.64-10.5-80.75-22.23-1.01-.47-.61-1.99.5-1.9l69.5 5.25c2.86-7.86 5.02-15.5 2.34-23.32zM500.1 67.96l-1.33.52c-.04 5.22-.04 9.99 1 12.53.54 1.3 1.19 1.96 2.3 2.21 1.1.25 2.84 0 5.36-1.18a1 1 0 0 1 1.4 1.13c-.12.47-.13 1.87.14 3.32.28 1.45.8 3.01 1.55 4.1.73 1.07 1.52 1.63 2.65 1.55 1.12-.08 2.83-.94 5.03-3.38a1 1 0 0 1 1.7.37c.71 2.28 1.5 3.7 2.23 4.45.72.75 1.3.9 2.04.83 1.48-.15 3.65-1.82 5.84-3.7a1 1 0 0 1 1.65.65c.3 2.85-.18 5.77.99 8a1 1 0 0 1 .55.05c2.05 1.1 3.9 1.82 5.77 1.39 1.86-.43 4.01-2.06 6.48-6.31a1 1 0 0 1 .64-.48l2.72-.62c-23.13-5.87-30.69-10.63-48.7-25.43z"/>
  <path fill="#fffaf0" d="M586.61 132.4a1 1 0 0 1 1.3.56 1 1 0 0 1-.55 1.3l-3.52 1.41a199.2 199.2 0 0 1-3.7 1.4c-.09.03-.02.08-.42.08a1 1 0 0 1-1-1 1 1 0 0 1 1-1c-.35 0-.2.02-.15.01l.23-.07.84-.32c.68-.26 1.58-.6 2.47-.96l3.5-1.4z"/>
  <path fill="#fffaf0" stroke="#fffaf0" stroke-linecap="round" stroke-linejoin="round" stroke-width="2" d="M782.26 218.29a1 1 0 0 1 .22.03c2.05.58 3.42 1.79 3.98 3.27.55 1.48.32 3.1-.37 4.55-1.37 2.9-4.6 5.33-8.3 4.97a1 1 0 0 1-.42-.15 5.03 5.03 0 0 1-2.38-3.7 7.6 7.6 0 0 1 .83-4.2 9.92 9.92 0 0 1 2.67-3.38 5.6 5.6 0 0 1 3.77-1.4z"/>
  <path fill="none" stroke="#ebdbc0" stroke-linecap="round" stroke-linejoin="round" stroke-width="2" d="m576.2 203.96 33.6 10.63M563 91.12 546.32 95c-5.08 8.74-9.38 7.58-13.6 5.3"/>
  <path fill="#ebdbc0" stroke="#ebdbc0" stroke-linecap="round" stroke-linejoin="round" stroke-width="2" d="M716.1 428.57a34.11 23.41 0 0 1-34.1 23.41 34.11 23.41 0 0 1-34.11-23.4A34.11 23.41 0 0 1 682 405.16a34.11 23.41 0 0 1 34.11 23.41z"/>
  <path fill="#fff" stroke="#fff" stroke-linecap="round" stroke-linejoin="round" stroke-width="2" d="M701.03 398.5a16.85 11.85 0 0 1-16.85 11.85 16.85 11.85 0 0 1-16.85-11.86 16.85 11.85 0 0 1 16.85-11.85 16.85 11.85 0 0 1 16.85 11.85z"/>
  <path fill="#fffaf0" stroke="#ebdbc0" stroke-linecap="round" stroke-linejoin="round" stroke-width="2" d="M622.67 429.7a10.26 10.52 0 0 1-10.25 10.53 10.26 10.52 0 0 1-10.26-10.53 10.26 10.52 0 0 1 10.26-10.52 10.26 10.52 0 0 1 10.25 10.52z"/>
  <path fill="#ebdbc0" stroke="#ebdbc0" stroke-linecap="round" stroke-linejoin="round" stroke-width="2" d="M621.1 432.48a7.87 7.32 0 0 1-7.86 7.32 7.87 7.32 0 0 1-7.87-7.32 7.87 7.32 0 0 1 7.87-7.32 7.87 7.32 0 0 1 7.87 7.32zm224.18-10.01a35.9 28.27 0 0 1-35.9 28.27 35.9 28.27 0 0 1-35.9-28.27 35.9 28.27 0 0 1 35.9-28.28 35.9 28.27 0 0 1 35.9 28.28z"/>
  <path fill="#fff" stroke="#fff" stroke-linecap="round" stroke-linejoin="round" stroke-width="2" d="M833.58 384.35a17.79 11.16 0 0 1-17.79 11.16A17.79 11.16 0 0 1 798 384.35a17.79 11.16 0 0 1 17.8-11.16 17.79 11.16 0 0 1 17.78 11.16z"/>
  <path fill="#fffaf0" stroke="#ebdbc0" stroke-linecap="round" stroke-linejoin="round" stroke-width="2" d="M760.93 412.67a10.43 10.31 0 0 1-10.42 10.31 10.43 10.31 0 0 1-10.43-10.3 10.43 10.31 0 0 1 10.43-10.32 10.43 10.31 0 0 1 10.42 10.31z"/>
  <path fill="#ebdbc0" stroke="#ebdbc0" stroke-linecap="round" stroke-linejoin="round" stroke-width="2" d="M757.31 414.9a7.37 7.32 0 0 1-7.37 7.31 7.37 7.32 0 0 1-7.37-7.31 7.37 7.32 0 0 1 7.37-7.32 7.37 7.32 0 0 1 7.37 7.32z"/>
  <path fill="#fffaf0" stroke="#ebdbc0" stroke-linecap="round" stroke-linejoin="round" stroke-width="2" d="M741.98 414.16a10.58 10.42 0 0 1-10.58 10.42 10.58 10.42 0 0 1-10.58-10.42 10.58 10.42 0 0 1 10.58-10.43 10.58 10.42 0 0 1 10.58 10.43z"/>
  <path fill="#ebdbc0" stroke="#ebdbc0" stroke-linecap="round" stroke-linejoin="round" stroke-width="2" d="M737.5 417.7a6.31 6.52 0 0 1-6.32 6.52 6.31 6.52 0 0 1-6.3-6.53 6.31 6.52 0 0 1 6.3-6.52 6.31 6.52 0 0 1 6.31 6.52z"/>
  <path fill="none" stroke="#ebdbc0" stroke-linecap="round" stroke-linejoin="round" stroke-width="2" d="M644.7 419.9a9.24 9.64 0 0 1-9.24 9.63 9.24 9.64 0 0 1-9.24-9.63 9.24 9.64 0 0 1 9.24-9.64 9.24 9.64 0 0 1 9.24 9.64z"/>
  <path fill="#ebdbc0" stroke="#ebdbc0" stroke-linecap="round" stroke-linejoin="round" stroke-width="2" d="M642.03 422.87a7.15 5.98 0 0 1-7.15 5.98 7.15 5.98 0 0 1-7.15-5.98 7.15 5.98 0 0 1 7.15-5.98 7.15 5.98 0 0 1 7.15 5.98z"/>
  <path fill="none" stroke="#ebdbc0" stroke-linecap="round" stroke-linejoin="round" stroke-width="2" d="M852.7 372.75c23.67-19.92 48.55-27.3 73.69-32.04M852.25 442.9c35.02 2.36 67.83 12.99 102.2 15.56 25.72 1.92 48.9-2.22 77.38-.12 114.43 11.6 224.2-8.54 337.8-42.61 21.37-10.28 23.03-26.89 7.1-52.32-24.61-47.92-59.2-74.85-98.54-86.84-22.5-23.26-47.53-44.98-102.6-55.73"/>
  <path fill="none" stroke="#ebdbc0" stroke-linecap="round" stroke-linejoin="round" stroke-width="2" d="M868.7 371.46c70.36-1.86 125.41 4.26 178.45 25m-197.82-27.5c33.8-60.55 74.7-65.13 104.9-67.44 59.3-.04 117.92 6.64 176.04 18.38m129.22-6.88c-51.52-13.87-99.24-9.47-143.7 3.67M555.11 2.87 665.9 109.9l48.12 43.44c11.64 8.94 18.15 22.12 21.25 38.12 15.24 104.65 69.41 71.23 132.5 37.19 28.6-13.42 90.84-10.52 151.25-6.1 42.7 2.52 85.42 5.72 128.13-2.34 8.69 4.28-26.21 29.67-50.26 36.82-18.85 13.07-40.58 18.67-59.43 23.42-23.09 11.58-55.15 16.4-84.69 8.82-42.05-9.33-91.28-35.49-126.87-25.62-48.66 16.91-86.6 18.05-91.37-29.64-.91-22.43-16.13-32.68-34.2-40.6-18.06-7.9-39.69-13.69-43.83-15.7-43.26-17.74-57.03-36.83-71.23-55.31-22.94-24-27.42-46.14-29.85-68.08-14.5-31.48-12.25-61.15-.3-51.45Z"/>
  <path fill="none" stroke="#ebdbc0" stroke-linecap="round" stroke-linejoin="round" stroke-width="2" d="M630.9 112.44c-28.15-18.83-58.81-41.82-76.82-61.05M641.89 152c-20.55-10.78-41.62-20.63-60.6-34.14m456.02 162.3c-10.93 4.8-86.72-8.36-86.4-11.93m145.51-11.15c-4.16 1.08-102.9-3.9-102.64-5.42m-31.6 49.72c-4.84-3.98-8.7-7.96-9.17-11.94"/>
  <path fill="none" stroke="#ebdbc0" stroke-linecap="round" stroke-linejoin="round" stroke-width="2" d="m1053.32 307.48 3.98-8.36c16.04 8.18 27.84 9.96 23.13-6.8 15.7 2.35 21.03.5 8.43-8.6 16.76.45 16.88-4.13 8.91-11.16 18.55-1.24 15.34-6.56 2.97-13.6 10.99.21 16.21 2.48 15.7-6.01 12.49.46 27.1 3.03 20.7-6.96 8.28-3.19 28.75 6.06 21.88-13.75 13.7 2.99 18.56-1.4 16.02-11.95 10.75-3.79 11.89-8.4.78-14.06 9.99-5.68 3-14.7-8.13-14.77 17.85-12.41-.49-27.64-29.92-14.3-3.47-16.2-19.69-10.04-34.6-6.16-6.77-8.02-15.02.37-23.43 10.6-10.35-2.38-19.28-2.57-20.77 8.85-4.77-1.27-7.3-.68-8.84 2.43m76.63 103.58-35.4-11.8"/>
  <path fill="none" stroke="#ebdbc0" stroke-linecap="round" stroke-linejoin="round" stroke-width="2" d="M1183 286.38c-18.4-6.18-22.3-14.54-72.73-15.93m-59.22-46.65-1.25-43.28 9.06-33.9c-.66-7.95-3.24-15.4-9.06-22.03-16.25 7.14-37.28 6.34-57.03 7.65-12.67 2.33-21.76 8.46-30.47 17.66l-55.3-2.66c-29.89-21.58-62.3-35.19-97.19-40.93 2.88-15.05 2.49-30.09.8-45.13-15.82 1.11-31.57 2.37-45.08 7.95-22.78-1-45.57-2.25-68.06 1.33-23.86 3.11-38.45 9.34-49.94 21.21m50.27 153.25c-8.57-7.94-17.2-15.75-26.63-21.66a430.69 430.69 0 0 1-72.15-44.2l15.15 14.77c-9.12.84 2.28 6.18 10.81 10.93-7.08 6.48 9.4 7.91 19.78 10.44-3.03 3.42-6.48 6.9 12.6 7.73 6.09 6.84 18.5 9.07 25.85 14.25"/>
  <path fill="none" stroke="#ebdbc0" stroke-linecap="round" stroke-linejoin="round" stroke-width="2" d="M615.04 199.98c8.27 21.15 16.3 30.07 56.8 39.3 8.34 1.74 17.87 2.8 26 6.01"/>
  <path fill="none" stroke="#ebdbc0" stroke-linecap="round" stroke-linejoin="round" stroke-width="2" d="M629.41 212.56c7.13 14.27 27.5 17.93 54.22 25.15m35.7 45-35.78 1.56a49.53 49.53 0 0 0-21.25 13.75c10.93 9.72 21.15 19.4 28.5 32.98 3.74 9.44 15.31 11.64 28.69 12.18 12.43-1.72 24.86-3.38 36.72-.78l33.6 2.5c-2.37-13.46-11.88-24.1-23.91-33.75-2.22-10.97-5.87-22-14.23-33.27-14.19-.28-23.73.63-32.34 4.83z"/>
  <path fill="none" stroke="#ebdbc0" stroke-linecap="round" stroke-linejoin="round" stroke-width="2" d="M721.44 296.18c1.22-3.76-.26-8.43-2.54-13.37m17.01 21.11c4.64-3.33 12.79-1.55 20.55-.34M656.45 178.24l-9.81-1.05c-5.81 5.7-11.04 4.74-16.02.88-3.63 2.67-7.02 6.33-13.26-1.87-8.84 6.59-10.55.77-14.14-1.77-3.15 1.16-6.33 2.22-10.5-2.32-8.73.67-8.52-7.6-10.16-14.03-5.27-3.74-7.85-7.94-7.07-12.71l-5.09-.44c2.09 20.69-7.43 14.65-10.5 9.39-4.67 3.87-9.42 6.38-14.9-4.31-12.97 7.92-13.94.2-15.59-6.63-11.2-.3-8.78-6.96-7.03-13.32-3.29-4.39-10.28-8.24 2.97-15.55-7.58-5.14-5.15-10.25 6.95-13.67-2.22-2.74-1.33-6.45-1.64-9.38-4.38 3.77-8.76 7.43-11.72-2.03-9.17 10.17-11.8-3.44-11.1-6.48-10.46 4.88-10.16-4.1-10.07-14.85-11.45-2.03-8.84-11.5-4.06-20.31-5.45-4.93-6.74-9.57-.55-13.67-2.02-7.18-5.15-14.16 4.53-14.69.14-6.66 1.65-15.52 8.75-10.7 12.73 13.55 20.73 28.82 24.3 45.7 7.94-1 16.02-1.42 24.37-.55"/>
  <path fill="none" stroke="#ebdbc0" stroke-linecap="round" stroke-linejoin="round" stroke-width="2" d="M586.99 172a96.47 96.47 0 0 0-28.13 30.09c-61.91 21.4-61.86 59.44-42.03 99.06 20.38 14.17 53.34 19.96 81.38 24.78 28.04 4.82 53.53 10.87 79.84 22.15"/>
  <path fill="none" stroke="#ebdbc0" stroke-linecap="round" stroke-linejoin="round" stroke-width="2" d="M666.82 302.36c-3.01 77.7 79.91 90.19 120.47 42.34m-270.14-42.88c-12.46 15.51-14.41 34.33 3.1 45.74 22.42 11.1 49.66 10.8 76.67 11.05 21.18-.23 42.65-1.2 60.99 5.96m-64.05-5.3 50.47 12.2m741.23 27.35c-37.59 9.21-73.08 6.63-109.6 10.17-54.08 5.23-109.43 12.2-162.19 16.35-82.96-2.96-165.33-42.42-253.59-36.68"/>
  <path fill="none" stroke="#ebdbc0" stroke-linecap="round" stroke-linejoin="round" stroke-width="2" d="M512.73 340.05c22.74 7.73 51.07 10.82 84.41 9.72 23.36.09 45.04-2.07 73.36 4.64-.47-3.46-3.8-7.74-8.4-12.38m482.16-147.6c-20.86 5.1-38.63 14.42-51.26 30.71M792.46 104.09l19.94 2.31m-73.57-10.31c13.24 2.73 26.51 5.43 38.13 9.62"/>
  <path fill="#fffaf0" d="M798.58 198.12c-10.01 0-17.81-5.26-17.68-18.15.13-12.26 17.11-28.55 31.93-27.17 26.5 5.37 8.04 44.3-14.25 45.32zm-17.88-28.16-25.12-9.37-13.37-24.75-32.13-26.75c23.41 23.73 29.77 38.26 39.07 60l27.43 13.12c.03-3.81 1.76-7.97 4.13-12.25z"/>
  <path fill="#fff" d="M795.52 179.5c-11.5-2.93-.25-20.93 8.26-19.23 8.15 3.1.04 18.47-8.26 19.23zm2.94 6.8a3.56 3.34 0 0 1-3.56 3.35 3.56 3.34 0 0 1-3.57-3.34 3.56 3.34 0 0 1 3.57-3.35 3.56 3.34 0 0 1 3.56 3.35z"/>
  <path fill="#fffaf0" d="M778.69 182.71c2.9 23.24 29.18 21.2 38.98 9.1 16.14-19.92 17.69-43.78-15.11-41.27 6.27-2 17.95-8.36 27.93 7.34 5.74 11.7-4.84 49.45-38.63 46.67-8.45-1.72-15.2-6.05-13.17-21.84z"/>
  <path fill="#fffaf0" stroke="#ebdbc0" stroke-linecap="round" stroke-linejoin="round" stroke-width="2" d="M477.29 422.33c20.23-18.51 89.9 1.83 114.99 8.62-25.64 7.32-94.4 15.9-115.17 2.17zm129.33 106.41c-22.8 8.2-88.5-28.96-107.57-42.78 25.16-.83 95.15 13.28 110.92 32.53 2.14 2.94.37 8.24-3.35 10.25z"/>
  <path fill="#fff" stroke="#fff" stroke-linecap="round" stroke-linejoin="round" stroke-width="2" d="M255.15 397.21a24.44 21.82 0 0 1-24.44 21.82 24.44 21.82 0 0 1-24.44-21.82 24.44 21.82 0 0 1 24.44-21.82 24.44 21.82 0 0 1 24.44 21.82Z"/>
  <path fill="#ebdbc0" stroke="#ebdbc0" stroke-linecap="round" stroke-linejoin="round" stroke-width="2" d="M253.85 447.84a46.14 39.64 0 0 1-46.14 39.64 46.14 39.64 0 0 1-46.14-39.64 46.14 39.64 0 0 1 46.14-39.64 46.14 39.64 0 0 1 46.14 39.64Z"/>
  <path fill="#fffaf0" stroke="#ebdbc0" stroke-linecap="round" stroke-linejoin="round" stroke-width="2" d="M269.25 442.31a15.85 15.4 0 0 1-15.85 15.4 15.85 15.4 0 0 1-15.85-15.4 15.85 15.4 0 0 1 15.85-15.4 15.85 15.4 0 0 1 15.85 15.4z"/>
  <path fill="#ebdbc0" stroke="#ebdbc0" stroke-linecap="round" stroke-linejoin="round" stroke-width="2" d="M264.83 447.65a10.75 9.93 0 0 1-10.75 9.93 10.75 9.93 0 0 1-10.74-9.93 10.75 9.93 0 0 1 10.74-9.93 10.75 9.93 0 0 1 10.75 9.93Z"/>
  <path fill="#fffaf0" stroke="#ebdbc0" stroke-linecap="round" stroke-linejoin="round" stroke-width="2" d="M295.36 449.12a16.77 16.5 0 0 1-16.77 16.5 16.77 16.5 0 0 1-16.77-16.5 16.77 16.5 0 0 1 16.77-16.51 16.77 16.5 0 0 1 16.77 16.5z"/>
  <path fill="#ebdbc0" stroke="#ebdbc0" stroke-linecap="round" stroke-linejoin="round" stroke-width="2" d="M292.14 454.52a11.3 10 0 0 1-11.3 10 11.3 10 0 0 1-11.31-10 11.3 10 0 0 1 11.3-10 11.3 10 0 0 1 11.31 10z"/>
  <path fill="#fffaf0" stroke="#ebdbc0" stroke-linecap="round" stroke-linejoin="round" stroke-width="2" d="M477.32 430.58a94.55 94.24 0 0 1-94.56 94.25 94.55 94.24 0 0 1-94.55-94.25 94.55 94.24 0 0 1 94.55-94.24 94.55 94.24 0 0 1 94.56 94.24z"/>
  <path fill="#fffaf0" stroke="#ebdbc0" stroke-linecap="round" stroke-linejoin="round" stroke-width="2" d="M469.46 461.4a16.4 17.1 0 0 1-16.4 17.1 16.4 17.1 0 0 1-16.39-17.1 16.4 17.1 0 0 1 16.4-17.1 16.4 17.1 0 0 1 16.4 17.1z"/>
  <path fill="#fff" stroke="#fff" stroke-linecap="round" stroke-linejoin="round" stroke-width="2" d="M430.66 389.71a31.95 27.08 0 0 1-31.95 27.08 31.95 27.08 0 0 1-31.95-27.08 31.95 27.08 0 0 1 31.95-27.07 31.95 27.08 0 0 1 31.95 27.07Z"/>
  <path fill="#ebdbc0" stroke="#ebdbc0" stroke-linecap="round" stroke-linejoin="round" stroke-width="2" d="M415.59 469.21c0 25.96-19.14 42-47.38 42-28.24 0-55.63-21.04-55.63-47s21.64-44 49.88-44c28.24 0 53.13 23.04 53.13 49zm48-1.31a10.32 10.44 0 0 1-10.32 10.44 10.32 10.44 0 0 1-10.32-10.44 10.32 10.44 0 0 1 10.32-10.44 10.32 10.44 0 0 1 10.32 10.44Z"/>
  <path fill="#fffaf0" stroke="#ebdbc0" stroke-linecap="round" stroke-linejoin="round" stroke-width="2" d="M490.43 475.01a16.86 16.68 0 0 1-16.86 16.68 16.86 16.68 0 0 1-16.85-16.68 16.86 16.68 0 0 1 16.85-16.68 16.86 16.68 0 0 1 16.86 16.68z"/>
  <path fill="#ebdbc0" stroke="#ebdbc0" stroke-linecap="round" stroke-linejoin="round" stroke-width="2" d="M486.58 480.65a10.25 10.43 0 0 1-10.25 10.43 10.25 10.43 0 0 1-10.24-10.43 10.25 10.43 0 0 1 10.24-10.43 10.25 10.43 0 0 1 10.25 10.43z"/>
  <path fill="none" stroke="#ebdbc0" stroke-linecap="round" stroke-linejoin="round" stroke-width="2" d="M484.16 190.96c-32.97 17.87-88.58 17.38-124.04 21.57m83.18-56.88c15.78-13.36 44.02-40.34 77.11-46.06m-42.8 57.13 46.4-24.31M171.35 338.54c-2.57-13.48-48.89-42.93-68.77-40.48"/>
  <path fill="#ebdbc0" stroke="#ebdbc0" stroke-linecap="round" stroke-linejoin="round" stroke-width="2" d="m921.36 306.53-13.79-6.72c7.73 7.38 9.98 11.73-16.8 0-1.29 1.37 15.86 11.75-9.46 1.3-9.25-.25-14.75-.6-24-.6 4.37 3.03 17.55 7.9 42.85 14.59z"/>
  <path fill="none" stroke="#ebdbc0" stroke-linecap="round" stroke-linejoin="round" stroke-width="2" d="M785.95 300.17c43.43-4.92 88.93-4.14 134.17-4.07l25.46 6.36c-21.28 1.48-38.3 7.19-51.09 15.74-15.08-1.91-34.77-10-47.9-17.15z"/>
</svg>