<svg xmlns="http://www.w3.org/2000/svg" width="300" height="120" viewBox="0 0 300 120">
   <path fill="#fff" d="m183 112.25 50-15 50-35L300 56V0H0v56.25l15 6 50 35 50 15z"/>
   <path fill="none" stroke="gold" stroke-width="2" d="M300 44h-25c-29.42 31-71 50.25-126 51.25C94 94.25 52.42 75 23 44H0"/>
   <path fill="gold" d="M265.5 40.75c-2 0-2-3 0-3s2 3 0 3zm-6 5c-2 0-2-3 0-3s2 3 0 3zm-7.5 4.5c-2 0-2-3 0-3s2 3 0 3zm-5.5 3.5c-2 0-2-3 0-3s2 3 0 3zm-7 4c-2 0-2-3 0-3s2 3 0 3zm-7 4c-2 0-2-3 0-3s2 3 0 3zm-6.5 3.5c-2 0-2-3 0-3s2 3 0 3zm-6.5 3.5c-2 0-2-3 0-3s2 3 0 3zm-8 3c-2 0-2-3 0-3s2 3 0 3zm-7 3c-2 0-2-3 0-3s2 3 0 3zm-7 2c-2 0-2-3 0-3s2 3 0 3zm-8 2c-2 0-2-3 0-3s2 3 0 3zm-8 1a1.5 1.5 0 1 1 0-3 1.5 1.5 0 0 1 0 3zM141.14 67.6c-5.33-1.28-11.21 7.5-4.13 10.48 2.22.82 5.79-.27 9.4 1.62-6.7 2.54-6.06.8-10.13.25-6.12-.62-3.32 6.86 3.49 8.24-1.42-1.99-2.28-3.5-.63-2.87 3.45.99 7.69 2.77 7.89-1.35.62 2.34 1.97 2.39 3.31 2.44-1.1-1.32-1.94-2.74-1.64-4.66 3.7 3.02 7.33 6.26 11.9 5.93 4.44-.52 6.21-4.09 4.24-8.1-1.64 2.9-3.26 4.56-7.42 1.97-2.6-1.88-5.36-1.35-8.05-1.92l11.88-.78c3.84-.54 5.2-3.55 4.13-6.13-1.64-3.93 1.98-5.19.95-5.6l-2.66-.1c-6.56.3 1.72 7.64-8.36 7.4-1.43-.13-1.32-1.75.34-2.76 2.53-1.28 5.1-2.5 5.12-8.35-.29-10.75-12.38-7.45-17.53-3.84-1.94 1.28-2.24-.55-2.41-2.53-2.67 4.25-3.4 7.63.24 9.36 3.23 1.54 5.94 2.32 11.68.58-1.23 2.15-6.98 1.28-5.91 3.84.9 2.04 1.3 3 6.1 1.8l-.22 1.76c-1.7-.1-3.5 2.16-3.64 3.9-1.33-2.32-4.16-3.5-6.63-3.98-2.57-.56-2.46-3.67-1.31-6.6zM149 120C92.59 120 44.68 97.88 12.08 66H0V56h14c1.33 0 2.6.78 3.54 1.72C48.28 88.53 94.3 110 149 110s100.72-21.47 131.46-52.28c.94-.94 2.21-1.72 3.54-1.72h16v10h-14.08c-32.6 31.88-80.5 54-136.92 54ZM32.5 40.75c-2 0-2-3 0-3s2 3 0 3zm6 5c-2 0-2-3 0-3s2 3 0 3zm7.5 4.5c-2 0-2-3 0-3s2 3 0 3zm5.5 3.5c-2 0-2-3 0-3s2 3 0 3zm7 4c-2 0-2-3 0-3s2 3 0 3zm7 4c-2 0-2-3 0-3s2 3 0 3zm6.5 3.5c-2 0-2-3 0-3s2 3 0 3zm6.5 3.5c-2 0-2-3 0-3s2 3 0 3zm8 3c-2 0-2-3 0-3s2 3 0 3zm7 3c-2 0-2-3 0-3s2 3 0 3zm7 2c-2 0-2-3 0-3s2 3 0 3zm8 2c-2 0-2-3 0-3s2 3 0 3zm8 1c-2 0-2-3 0-3s2 3 0 3z"/>
 </svg>
 