<svg xmlns="http://www.w3.org/2000/svg" width="613.15" height="859.36" viewBox="0 0 613.15 859.36">
  <path fill="#fffaf0" d="M90.54 0A94.83 94.83 0 0 0 0 90.54v8.57c2.22 50.02 42.03 89.05 90 90.67.27 1.26.5 2.43.96 3.93 1.47 4.66 3.89 9.98 8.2 12.43 4.89 2.78 12.84 2.69 19.75 1.97a85.4 85.4 0 0 0 8.42-1.33 14.17 14.17 0 0 0-1.53 3.96c-.42 2.07-.35 4.17.63 5.8l-.12-.44a1 1 0 0 0 .07.18c.05.7.3 1.3.72 2.06.49.86 1.17 1.88 2 3.06 1.66 2.35 3.92 5.34 6.32 8.73 4.82 6.8 10.22 15.26 12.62 23.4v-.03c.04.17.3.8.4 1.11-1.51.26-24.95 4.5-50.57 22.82-26.48 18.92-54.85 52.82-62.42 112.37-3.55 27.9 7.84 56.82 21.38 81.19 5.1 9.16 14.94 16.09 23.5 20.8a106.98 106.98 0 0 0 15.6 7.08c9.91 9.52 14.45 25.69 20.43 39.55 1.92 17.8.69 36.01-2.15 53.76a36.54 36.54 0 0 0-7.59-5.9c-5.39-3.2-12.74-5.49-19.8-1.47-17.35 8.8-29.15 28.27-35.47 49.4-6.33 21.14-7.19 43.98-2.29 59.8a39 39 0 0 0 4.34 9.45 1 1 0 0 0-.04 0c-2.65 1.67-5.32 5.75-7.98 11.51a104.86 104.86 0 0 0-6.95 21.53c-3.54 16.6-4.13 36.64 3.39 53.33v.03c6.4 15.36 12.68 22.55 19.43 25.17 6.75 2.63 13.63.54 20.9-1.92a1 1 0 0 0 .1-.03c17.6-7.93 29.57-22.44 37.81-38.76.16 2.7.44 6.67 1.15 12.06 1.1 8.3 3.03 17.98 6.73 23.82 7.07 11.14 18.24 19.48 30.7 21.05 12.43 1.56 26.04-3.74 37.7-19.38 3.22.84 6.53.54 9.43-.67 6.35-2.65 10.76-7.98 14.06-14.2 2.39-4.5 4.13-9.45 5.7-14.31.2 2.29.55 4.73 1.66 6.46 7.66 12.02 18.02 20.79 29.06 20.15 5.53-.32 11.11-3.05 16.38-8.72 4.98-5.36 9.7-13.47 14.01-24.7.22.33.86 1.15 1.05 1.46a14.88 14.88 0 0 1 2.09 4.37 6.1 6.1 0 0 1-.21 3.54c-.85 2.59-3.3 6.06-7.16 12.1a1 1 0 0 0-.03.04c-5.73 10.19-11.51 20.36-17.05 30.68-5.15 9.58-14.79 30.9-14.97 31.3h362.79V711.6s-.28-1.07-.82-1.17c-33.44-6.12-68.64-14.49-105.32-12.66 6.32-6.9 10.55-14.7 10.75-24.03.22-10.17-4.23-21.95-15.13-36.08 1.06 0 2.01.07 3.09.07h.04c15.9-.73 27.13-5.02 34.66-11.4 7.52-6.38 11.27-14.81 12.28-23.6 1.97-17.2-6.32-35.74-17.29-44.38 6.24-1.5 12.34-3.62 17.61-6.9 13.4-8.34 18.12-27.52 17.96-42.92-.18-16.88-7.3-35.6-20.45-46.37-29.48-24.13-67.28-34.94-98.62-38.4-1.82-10.1-7.86-18.62-14.85-25-7.17-6.56-15.24-10.93-20.85-12.63-7.74-2.33-23.24-5.48-39.62-6.74-15.77-1.21-32.27-.66-43.56 4.25a1 1 0 0 0-.08-.12 663.45 663.45 0 0 1-22.82-22.21c-2.75-13.22-5.73-33.43-13.86-48.26-8.57-15.64-15.27-30.4-35.87-40.64-4.44-4-10.25-7.7-16.76-10.97-13.25-6.65-29.43-11.52-43.06-13.16a1 1 0 0 0-.37.3c-1.19-1.34-2.33-2.58-3.55-3.95a46.87 46.87 0 0 0 4.28-21.47c4.33-4.2 7.58-6.99 9.66-9.2a12.47 12.47 0 0 0 2.36-3.25c.5-1.08.66-2.24.44-3.42-.43-2.37-2.09-4.83-4.86-8.71-2.76-3.88-6.68-9.16-11.76-16.89-4.32-6.79-7.31-11.56-9.73-14.66a17.03 17.03 0 0 0-3.36-3.46 4.97 4.97 0 0 0-3.4-1.03c-2.33.24-4.25 2.13-6.88 5.02-2.3 2.52-5.53 6.25-9.4 10.36-.18-.89-.42-1.63-.44-2.81-.02-1.92.08-4.04-.06-5.97-.15-1.93-.48-3.77-1.77-4.98-.17-.15-.46-.14-.66-.27 16.9-17.2 28.64-43.16 28.64-69.13 0-51.02-40.28-92.54-90.75-94.76h-8.43zm4.5 24.92a69.64 69.64 0 0 1 69.67 69.65c0 18.64-9.7 36.89-21.85 49.5a8.03 8.03 0 0 0-3-3.5 11.46 11.46 0 0 0-6.55-1.77c-2.27.12-4.51 1.1-5.78 3.24-1.28 2.13-1.53 5.21-.37 9.39.07.26.22.42.3.68-2.14-1.42-4.07-2.27-5.73-2.46a6.87 6.87 0 0 0-4.77 1.19 9.37 9.37 0 0 0-2.62 2.96c-.4.67-.53 1.02-.71 1.43-4.25-3.01-8.12-3.51-10.83-2.65a6.31 6.31 0 0 0-3.36 2.31c-.15.23-.16.5-.26.74l-.3-.24a1 1 0 0 0-.16-.08c-3.8-1.54-6.58-1.71-8.6-.82-2.02.89-3.02 2.81-3.36 4.77a14.4 14.4 0 0 0 .32 5.74c.06.25.16.43.23.66a30.33 30.33 0 0 0-6.62-2.24c-1.62-.3-3.16-.39-4.5.1-.9.32-1.55 1.11-1.98 2.06-12.89-6.4-24.97-14.52-33.87-25.67-9.12-11.44-14.95-26.03-14.95-45.34a69.64 69.64 0 0 1 69.66-69.65z" />
  <g stroke="#663f00" stroke-linecap="round" stroke-linejoin="round" stroke-width="2" fill="none" opacity="0.33">
    <path d="M89.49 167.82c-1.8-1-5.8-17.52 8.86-11.58 4.8 2.93 12.9 15.56 3.19 20.91" />
    <path d="M100.18 157.54c-2-2.1 5.02-8.43 14.36-.47 5.07 4.32 10.12 15.16 4.96 19.37-3.77 3.08-13.12-6.38-13.12-6.38" />
    <path d="M114.18 156.36c.67-1.34 3.71-10.25 13.7-2.84 2.53 1.88 4.32 4.82 5.32 7.8 5.83 17.36-11.72 7.19-12.28 6.14" />
    <path d="M141.12 143.24c-.8-7.16-17.46-8.14-13 7.92 4.19 15.07 21.8 10.62 11.34-2.6" />
    <path d="M74.72 167C48.06 153.95 24.4 133.6 24.4 94.56a70.66 70.66 0 1 1 141.31 0c0 19.52-10.36 38.51-23.14 51.3" />
    <path d="M90.92 188.84C41.69 187.67.79 146.65.79 94.76a93.97 93.97 0 0 1 187.93 0c0 25.94-11.87 52-28.88 69.01m172.08 694.59s-2.16-20.85-2.84-31.3c-.78-11.98-1.41-35.98-1.41-35.98l10.21-8.74s8.9 3.92 13.18 6.2c13.93 7.43 27.31 15.87 40.64 24.34 16.19 10.28 32.67 20.25 47.73 32.13 5.16 4.08 14.53 13.35 14.53 13.35m-105.3-70.59 31.58 70.6m8.52-46.87 12.7 14.87m-44.28 17.21-28.54-33.7m-51.19 48.48s2.84-21.3 6.05-31.49c4.1-12.98 6.56-28.2 16.71-37.26 3-2.69 11.53-3.67 11.53-3.67m3.16 1.54s2.9 5.81 3.31 8.98c.97 7.33-1.68 14.7-2 22.09-.59 13.26.11 39.81.11 39.81m-65.15 0s9.83-19.98 15.04-29.82c5.47-10.33 11.31-20.47 17.04-30.66 15.39-24.07 8.95-6.97-30.74-75.52m4.03-39.58 71.12 108.3m-35.76-81.83 45.98 73.09" />
    <path d="M286.45 773.72c-17.91 48.64-43.3 38.6-58.42 14.89-2.12-3.32-1.67-11.7-1.67-11.7" />
    <path d="M236.39 738.4s2.58 17.03 7.01 24.14c6.14 9.53 13.94 17.85 22.22 4.01 2.16-4.52 1.5-19.83 1.5-19.83m-96.79-35.22-14.87 39.77s6.43.58 9.64.4c6.55-.36 12.92-3.7 19.43-2.98 7.96.86 14.43 9.48 22.39 8.67 11.62-1.17 21.47-9.17 29.47-18.96l8.18-38.51c-4.96 9.65-11.58 13.79-19.21 14.54-14.77.7-28.31-9.21-36.26-10.36-6.66-.97-18.77 7.44-18.77 7.44z" />
    <path d="M183.65 718s-11.98 13.47-14.18 21.87c-.32 1.22.24 3.78.24 3.78l11.81.35s4.27-13.35 3.9-20.2c-.1-2.02-1.77-5.8-1.77-5.8zm-14.06 33.33c-3.75 28.82 3.13 35.84 20.44 55.52 4.64 5.31 10.52 5.45 15.36 3.43 12.12-5.06 17.03-20.47 20.97-33.37l1.12-28.54" />
    <path d="M181.17 775.43c.32-11.1 4.58-18 9.57-24.1m33.55-37.93.24-17.96c4.55-7.5 7.81-14.86 6.73-21.73 0 0-7.1-18.89-9.21-28.71-1.04-4.85-1.66-14.77-1.66-14.77-1.95-3.19-3.73-7.68-6.97-.36l-2 5.56m-13.83 70.88s-7.63-21.33-11.93-31.9c-1.42-3.48-5.88-5.5-6.5-9.21-.28-1.66-.23-4.5 1.42-4.84 3.79-.82 8.51-.88 12.05 1.06 5.1 2.8 8.25 8.52 10.63 13.82 2.77 6.16-.64 7.16-4.6 4.73-3.57-2.19-8.63-9.1-8.63-9.1m24.93 30.66c-1.8-7.59-4.2-15-10.05-21.5" />
    <path d="M185.9 658.82s-.52-6.64 1.35-9.04c.72-.92 1.88-1.32 3.25-1.36 3.4-.08 7.12 1.75 9.81 4.06 3.82 3.3 5.9 8.63 5.96 13.66.04 3.2 1.6 10.15-3.07 7.74" />
    <path d="M189.9 648.05s-1.69-7.64 1.01-8.96c2.54-1.24 10.73.42 13.98 3.43 3.75 3.46 8.97 14.78 5.72 21.36-.6 1.23-3.05 4.2-4.32.08" />
    <path d="M193.45 637.85s-1.26-7.57 1.13-9.87a3.28 3.28 0 0 1 3.95-.3c2.46 1.58 7.4 4.19 12.11 8.1 1.45 1.2 2.63 4.64 1.6 6.68-.85 1.67-3.42 3.52-5.2 2.18m37.53 55.25c.49-9.5-6.17-14.15-13.43-18.39m-60.81 30s.26-3.47-.74-4.71c-11.53-14.36-21.64-23.79-29.42-36.75-.86-1.44-.35-5.02-.35-5.02s10.35-.59 15.53-.59c7.75 0 23.22.89 23.22.89" />
    <path d="m169.41 705.96 12.82-4.5c2.75-4.4 5.68-8.27 9.51-9.56" />
    <path d="M183.83 697.92s-14.84-15.22-20.09-23.5c-1.7-2.69.53-9.52.53-9.52m17.96-5.14-43.72-1.38-.05 6.23m.04-6.23c-3.7-1.09 28.2-31.94 39.6-54.38 4.7-9.27 9.33-29.77 9.33-29.77s5.49 21 4.84 31.66c-.18 3.06-2.08 5.82-2.48 8.86-1.05 7.93-1.87 13.99.24 23.99m44.32-56.5c-9.58-13.36-27.32-16.32-44.5-14.68" />
    <path d="m187.43 574.23 3.51-10.34 36.17-6.85 13.85 10.48m-6.08 18.34-1.08-13.2 11.27-7.94 3.35 11.61 10.77-7.43 1.5 14.87-10.6 8.02c-2.55 7.66-.26 17 0 25.65l-10.78 5-4.06-19.2-10.06 6.51-1.67-11.44c3.09-3.8 5.3-7.17 11.36-12.45z" />
    <path d="M237.17 616.17c-5.18 6.5-9.7 19.9-16.29 16.29m26.22-12.16c-1.66 9.07-5.85 19.57-8.51 29.42-2.5 9.21-6.98 27.77-6.98 27.77m18.48-60.05 14.96 62.65c3.98 5.3 10.14 6.51 21.97 1.77 0 0 6.78-24.05 1.54-33.32-9.06-16-25.05-44.78-25.05-44.78l-14-1.18m37.33 115.44c-4.65.7-7.08-7.29-5.6-7.86 4.42 0 7.57 7.76 5.6 7.86zm26.66 39.51c-4.66.71-7.09-7.28-5.6-7.85 4.41 0 7.56 7.75 5.6 7.85z" />
    <path d="M277.82 584.1s20.5 38.94 27.07 59.82c3.45 10.97 6.35 33.91 6.35 33.91l2.85 18.76c.76 5 1.26 9.62-5.69 3.67l-21.38-18.4m-23.51-78.1 10.28.36c-.63-.3 6.97-29.74 4.37-37.45-10.05-14.81-24.03-40.75-22.92-38.16 0 0 1.14 11.23-.35 16.54-1.3 4.6-7.2 12.4-7.2 12.4l-.6 13.23m8.43-27.51 3.84 17.12" />
    <path d="m255.24 528.5-1.89-3.18c-12.36 7.22-25.8 14.12-32.13 23.15l5.9 8.57" />
    <path d="M230.45 539.74c5.56 7.65 10.4 16 14.62 24.98m2.61-7.27c-8.36-19.76-12.72-15.14 7.6-26.9m-28.84 23.4c3.16-6.39 5.22-2.38 14.52 13.57M538.3 762.04c24.24 5.73 48.72 13.07 73.85 24.56m0-75.18c-35.42-6.48-72.65-15.6-111.45-12.37 12.13 21-5.08 47.54-22.4 61.23-35.03 23.27-77.27 16.05-91.81.66-7.76-9.4-17.56-19.2-18.61-29.39-12.39 3.25-11.64-3.8-.17-6.6 0 0 .81-18.75 6.35-25.56 11-13.54 33.93-27.97 58.3-29.57 13.95-.92 28.27-.03 40.78 5.6 11.04 4.96 28.35 23.16 27.56 23.63" />
    <path d="M382.6 756.4c-8.93-.18-18.49-10.46-26.58 3.08M279 575.42s25.97 43.4 33.4 67.33c5.95 19.12 7.42 39.48 8.53 59.48.2 3.56-.34 10.7-.34 10.7m160.31-4.13c-17.21 30.72-49.3 29.52-73.25 20.67m27.05 8.86-.23-7.2m-15.01 6.49.83-8.15m31.66 7.44-1.77-3.54m12.4-5.56-2.95-4.13m19.26-3.19-7.33-5.67m-63.91 14.65c-5.47 4.2-5.07 6.6-3.65 7.3 1.38.67 4.37 3.15 8.85-4.7m8.75-27.17c0 6.32-9.73 12.2-18.64 12.2-8.9 0-14.53-5.04-14.53-11.36 0-6.32 9.8-11.03 18.71-11.03 8.9 0 14.45 3.87 14.45 10.2zm46.7-19.96c0 5.62-2.32 10.77-10.95 10.77-8.63 0-14.54-4.64-14.54-10.27s5.91-10.11 14.54-10.11c8.63 0 10.94 3.98 10.94 9.6z" />
    <path d="M397.95 705.61a2.26 1.96 0 0 1-2.25 1.97 2.26 1.96 0 0 1-2.26-1.97 2.26 1.96 0 0 1 2.26-1.96 2.26 1.96 0 0 1 2.25 1.96zm67.25-20.21a1.71 2.05 0 0 1-1.71 2.04 1.71 2.05 0 0 1-1.71-2.04 1.71 2.05 0 0 1 1.7-2.05 1.71 2.05 0 0 1 1.72 2.05zm-182.37-.88 24.56 22.55m-50.97-23.7c-9.26 34.26 1.04 71.17-18.87 48.77" />
    <path d="M252.76 681.38c-10 34.09-2.27 54.51-13.58 42.54m-1.3-70.89c15.31 9.9 6.75 16.2-3.31 12.05m151.52 22.45-17.21-46.12m0 13.7c-1.8-37.97-8.21-81.53-18.8-99.66" />
    <path d="M236.72 657.03c6.77 3.55 8.97 7.11-1 4.77m8.18 4.23 6.85 8.27m-4.6-11.1 7.91 8.02m-2.12-4.13 5.67-16.3m2.71 11.34-3.78 10.63m8.27 15.48c1.19-3.48 4.24-4.92 15.72 2.83 2.97 2.47.9 7.14-1.9 7.92-4.9-2.36-14.47-3.82-13.82-10.75zm0-.83-12.17-7.68c-2.5-3.58-3.5-6.67 2.72-7.44l8.15 4.84" />
    <path d="M251.1 674.3c.48.23 16.08 10.87 16.08 10.87m1.24 8.21c-2.23-7.33 12.9-.7 13.29 1.18m.23.88 6.15 3.43m-11.02-.9 9.72 5.74m17.36 6.5c-7.7-5.05-12.44-11.51-16.77-6.02.97-12.76 11.3-2.32 19.73 3.42m-19.73-3.42c3.03 7.03 10.62 6.61 16.77 6.02" />
    <path d="M289.62 702.53c-.9 1.67 8.64 6.77 9.34 4.37M318.1 718c-1.47 1.14-9.9-.5-9.93-4.6 1.97-1.4 9.92 0 9.93 4.6z" />
    <path d="M324.24 717.95c-1.62 6.19-22.59 6.1-20.09-6.73 5.75-8.35 20.7 4.36 20.09 6.73zm26.85 11.09c1.88-14.77 16.59-8.64 16.62-4.09" />
    <path d="M354.1 730.72c1-8.97 5.99-7.33 9.1-5.18" />
    <path d="M351.09 729.04c4.96 6.2 10.3 5.79 13.28 3.51" />
    <path d="M351.09 729.04c-2.43 7.44 7.77 12.48 17.2 6.1" />
    <path d="m321.29 721.32 9.68.35c4.42-1.18 8.25 2.94 12.17 5.32 2.34 1.42 7.95 2.05 7.95 2.05m-26.85-11.09c6.67.18 13.17-2.16 20.44 6.32l6.97 1.42" />
    <path d="M330.97 721.67c1.97 6.75 6.45 4.84 10.52 4.37" />
    <path d="M324.71 721.79c7.09 2.24.41 11.46 21.15 6.73m-77.14-37.24c-.56 1.9 4.8 4.38 8.35 6.69M383.2 678.2l8.62 5.2M255.24 460.58c-8.98 7.72-13.15 17.86-16.18 29.65 6.03 11.06 10.12 23.4 14.3 35.09" />
    <path d="M260.09 440.14c-4.7 3.11-7.55 6.99-8.86 11.34 1.22 8.88 12.1 18.16 19.25 27.29m98.4 162.64c10.25 4.8 14.64 2.16 15.37-3 4.62-32.74 13.3-62.72 5.95-88.25-10-12.32-29.11-29.83-35.27-35.27m-76.77 51.78c9.13 5.32 24.82 23.46 28.98 19.19 1.55-1.5 3.4-2.53 8.02.58 4 1.6 5.94 1.15 7.27.09" />
    <path d="M346.8 568.5c9.78-33.37 12.33-81.56-5.43-102.96-6.1-7.66-14.06-9.72-21.15-14.42m0 0c-2.8-11.45-4.9-23.77-19.02-21.32m9.45 12.94 5.67 36.97m-25.63 6.39s-36.28-51.17-50.33-81.4c-7.52-16.18-9.34-37.11-25.52-47.03l1.35-10.28" />
    <path d="M170.62 267.07s5.85 11.33 7.7 17.26c8.35 26.7 31.73 57.2 44.67 70.15m78.21 78.98c-9.53-27.14-22.43-52.47-37.75-76.5" />
    <path d="M279.62 384.47c-9.44-34.79-10-74.68-47.41-101.1-15.04-13.8-24.75-25.22-36.42-38.2m43.51 155.98c1.76-1.33 5.36-2.76 5.36-2.76" />
    <path d="M129.21 205.58c-2.34 2.96-3.5 7.84-1.93 10.45-.15 3.14 16.8 20.52 21.72 37.21.55 2.08 4.81 16.51 21.62 13.83 16.48-6.36 30.2-21.41 29.34-44.36-6.14-7.75-13.85-20.61-20.24-30.3-6.39-9.7-11.46-16.22-16.35-12.3" />
    <path d="M173.58 184.57c-.67.47-24.57 31.46-46.3 31.46" />
    <path d="M199.96 222.71c18.17-17.72 16.39-9.44-4.02-40.48-17.3-27.16-13.32-22-32.57-2.12" />
    <path d="M170.38 180.25c-.96-2.4 12.08-13.41 14-13.83m16.08 82.86c26.97 3.24 64.46 19.38 67.5 36.59" />
    <path d="M259.75 273.19c20.51 10.12 27.02 24.6 35.64 40.34 8.06 14.7 11.05 35.1 13.84 48.36" />
    <path d="M283.24 334.64c16.38 17.6 32.75 34.62 49.03 49.62m-52.65.21c27.9 32.35 50.19 46.99 82.07 49.93 19.4 1.8 58.48-9.03 54.64-20.72-4.86-14.77-71.76-12.28-73.18 0 3.87 9.57 19 9.86 37.93 7.02" />
    <path d="M346.11 472.99c-.03 1.84 29.47 6.96 69.42-5.52 32.15-12.35 32.82-18.1 35.6-42.81-3.18-20.3-24.4-34.3-35.21-37.57-15.25-4.6-61.9-12.61-83.81-2-10.85 5.25-23.62 9.58-21.34 29.17" />
    <path d="M366.89 475.23a92.58 92.58 0 0 0 37.45 21.5" />
    <path d="M407.88 469.9c-4.53 19.43-5.02 29.77 2.37 41.48 18.3 29.04 55.96 51.2 90.26 49.62 12.99-.6 36.33-.65 51.98-10.4 12.89-8.02 17.64-26.88 17.49-42.06-.18-16.6-7.24-35.08-20.09-45.6-29.47-24.14-67.43-34.91-98.77-38.28" />
    <path d="M539.5 508.19c-35.32 14.42-68.03-.15-98.3-34.85" />
    <path d="M528.27 510.79c22.38-31.22-51.62-62.86-89.31-53.76m-48.76 93.13c7.3-13.59 21.33-17.44 37.5-18.19m76.85 167.08c14.5-14.48 19.01-32.75-2.84-60.98m-36.59 23.73c-46.48-5.65-92.04-62.91-22.8-35.1" />
    <path d="M392.35 587.28c16.7 19.95 38.99 49.43 113.37 49.45 62.92-2.9 50.25-62.01 28.4-78.19m-143.27 42.69 14.87 1.25" />
    <path d="M444.74 546.35c-.56-3.35-31.52 6.75 26.59 36.15 58.93 21.83 60.6-4.61 32.8-21.63M91.73 473.8c2.03 1.17 36.25 27.75 35.98 31.55 1.64 11.5 9.46 29.09 24.46 34.65 20.63 7.66 43.2 6.64 75.7-6.52 8.59-3.48 21.71-17.38 21.71-17.38m-53.96 295.06c-23.04 31.05-52.97 20.37-66.83-1.5-7.03-11.08-7.9-38.51-7.9-38.51" />
    <path d="M159.53 695.88c-2.57-2.34-25.38 41.76-21.22 67.33 1.69 10.38 3.61 27.58 14.37 29.4 7.72 1.32 16.7-16.52 16.7-16.52M53.9 704.3c-8.98 5.7-25.94 52.35-11.16 85.14 12.71 30.55 24.57 27.64 39.1 22.73 57.44-25.86 55.1-122.92 55.52-123.15" />
    <path d="M72.65 717.1c-7.24 21.67-21.76 47.8-3.75 52.5 22.2 5.8 47.03-55.34 35.56-57.26" />
    <path d="M114.92 594.3s-14.28-16.22-27.61-8.62c-34 17.2-46.91 76.97-37.3 108.04 9.4 30.31 42.68 28.38 71.93 9.18 9.41-6.19 23.96-23.84 23.96-23.84" />
    <path d="M107.1 500.74s8.7 23.72 10.15 36.16c2.23 19.01.82 38.5-2.33 57.4-4.87 29.19-12.24 45.55-26.02 62.63-44.8 49.97-20.43-48.75-.59-45.37 7.8 1.95-.12 24.1-.12 24.1M228.2 533.23l3.42 4.68m-37.25 5.93 2.67 18.63m-28.66 55.55c4.55-20.43 9.43-47.1 4.85-73.35" />
    <path d="M164.37 543.5c6.91 14.35 7.24 32.5 8.6 50.25m249.68 260.01s2.13 4.37 2.6 4.6M216.5 505.47s5.3-19.77-1.19-25.28c-5.12-4.35-27.69 11.92-32.37 24.1-2.31 6 17.72 9.21 17.72 9.21" />
    <path d="M191.21 510.43c-1.88-6.9-.9-11.89 2.24-19.73m-43.24-12.88s-15.14-29.75-24.45-23.39c-12.98 8.87 2.4 41.32 17.96 43.6 4.76.7 9.1-11.23 9.1-11.23" />
    <path d="M125.88 479.71c13.32-4.36 7.5-14.89 1.77-25.4" />
    <path d="M133.2 474.4s4.4 9.16 7.7 7.68c3.46-1.55-.61-11.34-.61-11.34m97.69-60.06c-2.85-6.9-23.85-23.36-35.75-17.5-8.75 4.32-9.75 17.51-5.78 28.69 8.3 25.5 35.22 21.43 38.26 5.18" />
    <path d="M196.88 418.75c14.83 3.56 18.1-5.74 10.82-26.5" />
    <path d="M207.04 418.87s8.48 10.86 13 7.68c9.73-6.85-1.16-16.9-3.31-16.9m-67.58-154.17s-97.63 15.88-112.7 134.45c-3.51 27.55 7.76 56.29 21.26 80.57 9.85 17.73 38.8 27.53 38.8 27.53 10.3 9.8 14.82 26.2 20.79 40.04" />
    <path d="M88.35 494.21c-.15-21.05 8.47-36.94 20.55-50.79-8.25-10.35-11.88-24.02-15.87-37.42 6.57 11.69 12.77 23.6 24.23 32.24 15.46-14.18 30.82-28.88 48.12-33.58l1.83-25.4 3.45 21.4c12.15-12.19 28.33-23.27 60.71-19.9" />
    <path d="M180.75 391.46c2.73-32.44-2.96-58.95-15.37-80.7m1.83 68.5c.55-33.45-16.06-76.91-28.4-82.03M121.94 433.4c-17.97-22.9-20.68-33.22-21.06-41.6M93.03 406c-3.99-28.8-15.14-30.9-6.68-94.07m-13.54 71.34c6.42 24.2 18.94 44.74 31.92 65m-49.79-20.55c-.45 18.14 6.92 37.9 34.42 61.82 14.91 4.24 8.71 6.9 7.16 8.49" />
    <path d="M84 429.72c-.87-9.17.83-16 4.85-20.72m56.31-51.79c9.3-5.66 16.9-12.07 42.1-10.86m-78.36 97.07c9.64 2.21 21.61 3.4 25.82 8.52" />
    <path fill="#663f00" d="M113.69 445.14s-3.87 17.08-1.81 25.27c2.6 10.32 16.37 27.5 17.07 26.98 0 0-11.5-18.34-12.43-28.8-.69-7.74.13-22.39 9.89-21.13z" />
    <path d="m101.55 459.13 11.87.5m-8.86 18.55 10.02-3.18m-4.84 18.05c3.5.63 7.25-1.37 11.2-5.18" />
    <path fill="#663f00" d="M179.28 408.6c-.76-.55 11.63-18.09 24.1-20.15 22.76-3.76 36.86 26.64 36.86 26.64 3.7-1.1-7.13-24.83-22.21-30.13-13.49-4.73-31.2-.3-38.28 11.82-1.99 3.4-.47 11.81-.47 11.81z" />
    <path d="m174.79 386.03 8.27 10.28m10.87-21.39c3.64 3.7 3.58 7.4 3.19 11.1m26.7 2.13 6.61-10.16m-91.91-164.45-6.85-8.98c-.53.79-23.1 5.78-32.02.7-7.77-4.41-9.66-20.37-9.57-20.43l-15.36-17.84c.38-5.49 10.15-1.65 14.65.71 6.62 3.48 16.9 14.77 16.9 14.77l23.64-.18c7.3-2.9 11.39-9.29 17.6-13.18 2.73-1.71 8.58-4.44 8.58-4.44 9.9-3.55 4.79 10.51 7.28 15.44l.55 13.7" />
  </g>
</svg>