<svg xmlns="http://www.w3.org/2000/svg" width="31.68" height="150.08" viewBox="0 0 31.68 150.08" opacity=".1">
  <path fill="none" stroke="#fff" stroke-linecap="square" d="m21.52 126.2-.62 5.96-5.26 2.87 5.48 2.44 1.1 5.9 4-4.47 5.46.71v-.79l-2.5-4.33 2.5-5.28v-.13l-5.8 1.24zM4.08 106.62l.72 5.72-4.3 3.83 5.66 1.08 2.32 5.28 2.77-5.05 5.74-.57-3.94-4.2 1.22-5.64-5.21 2.45z" opacity=".1" />
  <path fill="#fff" d="m27.22 90.99-.44 6.3-5.45 3.21 5.86 2.37 1.37 6.17 3.12-3.71v-10.4Z" />
  <path fill="none" stroke="#fff" stroke-linecap="square" d="m23.64 66.95-1 4.14-3.98 1.52 3.63 2.24.21 4.25 3.25-2.76 4.11 1.1-1.62-3.93 2.32-3.57-4.24.32z" />
  <path fill="#fff" d="m18.86 60.36-15.51 4L0 61.46v32.1l5.24-6.34 15.95 1.4-8.6-13.51zm9.79-25.08-3.99 6.43-7.56.36 4.88 5.78-1.99 7.3L27 52.3l4.68 3.07V42.44l-.35-.08zM13.35 9.3 1.58 15.15 0 14.27v28.65l.9 1.92L6.97 33.2l13.06-1.6-9.2-9.39Z" />
  <path fill="none" stroke="#fff" stroke-linecap="square" d="m31.68 0-4.5 3.52-5.47-1.7 1.97 5.37-3.32 4.66 5.72-.2 3.4 4.59 1.58-5.5.62-.2z" />
</svg>