<svg xmlns="http://www.w3.org/2000/svg" viewBox="0 0 500 3238.75"><path d="M446.01 2797.88a12 11.36 0 0 1-12 11.37 12 11.36 0 0 1-12.01-11.36 12 11.36 0 0 1 12-11.37 12 11.36 0 0 1 12.01 11.35m1.93-239.07a12 11.36 0 0 1-12 11.36 12 11.36 0 0 1-12.01-11.36 12 11.36 0 0 1 12-11.37 12 11.36 0 0 1 12.01 11.35m10.08-250.66a12 11.36 0 0 1-12 11.37 12 11.36 0 0 1-12.01-11.36 12 11.36 0 0 1 12-11.37 12 11.36 0 0 1 12.01 11.35m-.42-240.58a12 11.36 0 0 1-12.01 11.37 12 11.36 0 0 1-12.01-11.36 12 11.36 0 0 1 12-11.37 12 11.36 0 0 1 12.01 11.35m-5.57-242.29a12 11.36 0 0 1-12 11.36 12 11.36 0 0 1-12.02-11.35 12 11.36 0 0 1 12-11.38 12 11.36 0 0 1 12.02 11.35m5.14-241.01a12 11.36 0 0 1-12 11.37 12 11.36 0 0 1-12.01-11.35 12 11.36 0 0 1 12-11.38 12 11.36 0 0 1 12.01 11.35m-2.14-258.16a12 11.36 0 0 1-12 11.37 12 11.36 0 0 1-12.02-11.36 12 11.36 0 0 1 12-11.37 12 11.36 0 0 1 12.02 11.35m-.86-256.44a12 11.36 0 0 1-12 11.36 12 11.36 0 0 1-12.01-11.36 12 11.36 0 0 1 12-11.37 12 11.36 0 0 1 12.01 11.35m-7.72-255.58a12 11.36 0 0 1-12 11.36 12 11.36 0 0 1-12.01-11.36 12 11.36 0 0 1 12-11.37 12 11.36 0 0 1 12.01 11.35m-14.58-255.58a12 11.36 0 0 1-12 11.36 12 11.36 0 0 1-12.01-11.36 12 11.36 0 0 1 12-11.37 12 11.36 0 0 1 12.01 11.35m12.01-250.86a12 11.36 0 0 1-12 11.36 12 11.36 0 0 1-12.02-11.36 12 11.36 0 0 1 12-11.37 12 11.36 0 0 1 12.02 11.35M437 59.61a12 11.36 0 0 1-12 11.37 12 11.36 0 0 1-12-11.36 12 11.36 0 0 1 11.99-11.37A12 11.36 0 0 1 437 59.6" fill="#fff"/><path fill="#111" d="M312.89 2963.8c-3.93-1.67-6.46-6.12-7.9-13.92-1.11-6-.68-9.62 3.6-30.53 2.69-13.05 4.47-24.17 3.97-24.72-.5-.54-9.02-.38-18.93.36-34.22 2.55-44.32 2.8-59.76 1.45l-15.5-1.35-4.84 5.5c-2.66 3.01-6.79 6.13-9.17 6.92l-4.34 1.43 4.35 4.1c8.67 8.17 14.79 29.19 10.72 36.79-2.96 5.52-10.43 2.36-18.04-7.63-8.01-10.52-26.66-25.66-41.08-33.35l-7.84-4.2-8.73 3.5a153.39 153.39 0 0 0-18.12 9.16c-10.59 6.38-26.28 19.67-26.28 22.26 0 .93 1.46 2.96 3.23 4.5 3.6 3.12 6.77 9.72 6.77 14.11 0 2.2-1.07 3.23-4.49 4.36-6.2 2.04-19.47.51-23.59-2.72-2.83-2.23-3.17-3.4-3.16-10.85 0-9.06 1.17-14.6 5.3-25.22 4.87-12.55 11.65-20.83 25.57-31.25 9.4-7.03 12.14-10.02 20.35-22.21a197.5 197.5 0 0 1 20.67-25.31c6.14-6.18 10.47-11.23 9.61-11.23-.85 0-8.87 3.6-17.82 8.02-17.74 8.74-23.68 10.76-51.82 17.64-20.2 4.94-40.46 7.78-45.84 6.43-5.95-1.5-11.03-6.8-11.03-11.53 0-2.8.76-4.63 2.27-5.44 1.25-.67 9.85-2.1 19.11-3.17 23.83-2.76 53.22-11.33 85.77-25.01 21.24-8.92 34.1-11.94 50.95-11.94 7.6 0 16.52-.84 21.51-2.02 6.8-1.61 12.4-1.86 27.89-1.26 10.66.41 22.74 1.31 26.86 2 11.59 1.93 50.05 4.08 63.85 3.57 13.17-.5 14.5-.94 31.17-10.4a121.54 121.54 0 0 1 16.87-7.49c17.54-6.04 19.93-7.56 27-17.11 5.04-6.82 14.09-13.15 25.5-17.84 4.47-1.84 9.7-5.04 11.64-7.13l3.51-3.78-.87 4.8a73.1 73.1 0 0 1-3.24 10.86c-2.69 6.91-1.48 10.54 2.76 8.27 1.26-.67 6.58-1.22 11.82-1.22 5.25 0 10.63-.58 11.95-1.29 1.98-1.05 1.72-.12-1.4 5.17-4.12 7-7.84 10.7-11.87 11.81-2.56.7-2.56.75-.32 9.7 1.68 6.7 3.21 9.86 6.01 12.4 4.87 4.44 4.86 8.87-.03 16.25-6.1 9.2-8.35 10.14-25.95 10.74l-15.36.53-2.45 4.8c-1.35 2.63-2.45 5.58-2.45 6.55 0 .97-3.15 6.47-7 12.24-3.84 5.76-8.13 13.51-9.53 17.22l-2.54 6.75 2.97 2.34c1.64 1.28 7.5 5.1 13.02 8.48 16.63 10.19 28.9 20.56 32.34 27.33 5.89 11.62 5.35 20.59-1.33 22.27-2.92.73-4.03.14-7.65-4.03a77.96 77.96 0 0 1-7.44-10.59c-2.92-5.2-4.5-6.33-17.71-12.75-21.86-10.62-42.4-19.69-46.44-20.5-3.02-.6-4.5.16-9.3 4.75-11.03 10.55-19.54 22.04-23.22 31.37-4.71 11.94-4.65 13.78.5 16.24 5.96 2.84 10.59 13.18 6.92 15.44-2.27 1.4-18.96 1.84-21.95.57zm129.36-163.84c.2-2.43-.16-5.8-.82-7.5-1.06-2.76-1.28-2.4-2.1 3.48-.95 6.94-3.17 8.57-5.56 4.09-1.06-1.98-.97-2.34.46-1.79 1.84.7 4.2-3.98 2.75-5.43-1.02-1.01-8.23 6-8.23 7.99 0 2.46 3.95 4.22 8.75 3.88 4.04-.28 4.4-.65 4.75-4.72zm-89.23-82.07c-1.45-.28-3.52-2.4-4.64-4.76-2.18-4.58-10.98-36.53-13.42-48.76a188.97 188.97 0 0 0-3.9-15.31l-2.41-7.82-5.26.7c-2.9.4-6.47.96-7.95 1.25-7.09 1.43-61.47 6.8-68.3 6.76-4.27-.03-11.95-.78-17.07-1.68l-9.3-1.63-5.42 4.13c-5.43 4.15-12.17 6.71-17.68 6.72-2.48 0-2.83.47-2.14 2.82 2.54 8.74 4.66 23.61 4.19 29.35-.65 7.77-6.1 15.72-11.2 16.34-3.9.47-5.14-1.18-7.16-9.49-4.22-17.28-14.9-39.01-19.17-39.01-4.08 0-12.6 5.14-22.19 13.38-11.87 10.2-13.75 13.09-13.7 21 .04 5.08.74 7.05 3.75 10.57 7.07 8.27 3.25 15.05-8.5 15.05-8.24 0-10.5-1.14-14-7.06-3.32-5.64-4.45-14.37-2.72-21.06.7-2.76 3.11-12.32 5.34-21.26l4.05-16.24 13.53-13.5c14.9-14.84 18.92-20.32 20.27-27.6.5-2.67 2.38-8.01 4.18-11.88 5.96-12.77 5.85-11.82 1.26-11.04l-22.21 3.83a620.28 620.28 0 0 1-30.12 4.46c-17.05 1.87-50.49 8.39-58.82 11.46-8.02 2.95-11.72 2.05-13.03-3.18-1.6-6.37 1.7-9.54 15.1-14.56 26-9.74 90.13-21.93 120.62-22.92 12.53-.4 18.85-1.2 24.56-3.11 21-7.01 38.38-8.11 70.44-4.47 21.35 2.43 62.61 4.74 70 3.92 6.05-.67 26.98-6.26 33.13-8.84a594.1 594.1 0 0 1 23.56-8.84c4.41-1.57 8.33-4.53 14.37-10.85 9.27-9.7 14.07-12.9 27.53-18.37 5.07-2.06 10.5-4.95 12.08-6.43l2.87-2.7-1.18 5.25a43.86 43.86 0 0 1-2.9 8.57c-4 7.73-3.79 7.9 9.8 8.32 6.82.21 13.67-.1 15.22-.69l2.82-1.07-2.7 5.07c-3.3 6.16-10.02 12.29-13.48 12.29-1.82 0-2.36.62-1.92 2.19.35 1.2 1.25 5.34 2.01 9.19 1 4.99 2.45 8.02 5.09 10.54 5.17 4.95 4.9 9.61-1 17.35-6.32 8.3-11.06 9.9-26.7 9.03-8.38-.47-12.64-.22-14.02.82-1.08.83-3.63 5.16-5.65 9.63a63.31 63.31 0 0 1-9.55 14.38 82.67 82.67 0 0 0-9.98 13.64l-4.1 7.4 5.58 9.48c3.07 5.21 6.86 11.16 8.42 13.23 4.11 5.43 8.2 13.86 8.2 16.9 0 5.47-4.28 10.48-12.87 15.05-3.75 2-6.62 2.45-13.72 2.16-8.54-.35-9.04-.54-10.19-3.8-1.85-5.3.36-9.7 6.51-12.95 2.95-1.55 5.37-3.18 5.38-3.62.01-.44-2.68-2.8-5.98-5.27-3.3-2.46-7.9-6.22-10.22-8.35l-4.22-3.87.68 19.96.69 19.96 6.34 5.96c5.3 4.97 6.35 6.68 6.35 10.35v4.39l-10.31-.17c-5.67-.1-11.49-.4-12.92-.69zm88.62-156.95c.36-1.55.25-5.07-.25-7.82-.96-5.28-1.53-4.57-3.27 4.07-.88 4.37-1.76 4.92-4.12 2.56-1.94-1.94-1.92-3.59.03-3.19.85.17 1.73-.95 1.96-2.5.57-3.67-.44-3.55-4.85.62-4.54 4.28-4.58 6.02-.2 7.62 6.14 2.24 9.97 1.75 10.7-1.36zm-304.13-94.49c-4.65-4.65-5.54-11-4.68-33.23.85-21.84 2.93-34.06 6.5-38.22 9.32-10.86 12.32-16.73 15-29.38 1.17-5.5 3.44-13.51 5.04-17.81l2.92-7.82-3.2-.8c-3.46-.87-25.7.02-49.71 2-8.25.67-25.97 3.49-39.36 6.27-32.3 6.68-38.77 6.58-38.77-.6 0-8.26 18.37-16.24 52.7-22.91 30.47-5.92 50.57-8.1 77.3-8.34 23.86-.22 24.65-.32 37.5-4.4 12.05-3.81 14.46-4.16 29.38-4.18 15.91-.03 29.3 1.2 55.62 5.08 15.73 2.33 42.2 2.53 50 .38 6.31-1.74 15.08-3.07 32.43-4.95 23.46-2.53 41.3-9.58 49.7-19.64 8.2-9.81 14.82-14.3 25.6-17.34 5.57-1.57 11.38-4.11 13.15-5.75l3.18-2.94-.86 3.13c-.47 1.72-2.52 6.46-4.55 10.54-2.07 4.15-3.23 7.88-2.62 8.49.88.88 8.26 1.71 22.72 2.56 1.03.07 3.24-.34 4.92-.9 2.9-.96 2.86-.78-1.08 4.2-5.12 6.47-11.43 11.36-14.65 11.36-2.25 0-2.37.58-1.55 7.19.5 3.95.95 8.13 1 9.28.06 1.15 1.52 3.76 3.24 5.8 4.67 5.56 4.08 9.83-2.31 16.7-7.35 7.88-12.1 9.1-27.1 6.91-6.29-.91-13.17-1.41-15.29-1.1-4.37.64-23.56 18.17-26.84 24.53-1.07 2.06-5.03 6.99-8.81 10.95l-6.88 7.2-1.02 10.96c-1.22 13 .2 23.76 4.55 34.44 4.52 11.14 6.32 13.3 13.75 16.6 7.36 3.25 11 8.21 10.33 14.06-.38 3.35-.4 3.36-12.26 3.67l-11.87.32-3.75-5.27c-4.65-6.51-7.54-11.51-16.45-28.37a1221.8 1221.8 0 0 0-7.67-14.38c-.36-.63-1.42 1.9-2.36 5.62-3.55 14.09-7.55 16.43-27.65 16.23-16.06-.17-20.25-1.6-20.25-6.9 0-5.84 9.9-10.65 22.81-11.1l6.2-.21-.73-10a311.8 311.8 0 0 0-1.53-15.83l-.8-5.82-15.8-.91c-19.12-1.11-43.52-.15-67.02 2.64-15.75 1.87-17.88 2.42-21.25 5.46-8.05 7.25-13.78 9.14-32.66 10.76l-10.15.87-.86 9.46c-.91 10.1-3.86 24.29-5.8 27.9-.64 1.2-3.7 4-6.79 6.23-4.74 3.4-5.62 4.69-5.62 8.23 0 5.18-3.05 6.63-13.93 6.63-6.58 0-7.95-.44-11.06-3.55zm19.97-32.46c-.03-8.84-1.55-9.97-4.75-3.56-2.78 5.56-3.4 10.13-1.9 14.04.74 1.91 1.18 1.77 3.75-1.22 2.17-2.52 2.92-4.9 2.9-9.26zm293.2-118.17c.41-1.61.55-5.13.32-7.81l-.42-4.89-1.75 5.63c-2.33 7.5-3.57 8.7-5.79 5.7-2.35-3.18-2.26-4.21.35-4 1.18.1 2.34-.8 2.6-2.01.24-1.2-.12-2.19-.8-2.19-1.6 0-8.94 6.15-8.94 7.48 0 1.21 8.5 4.87 11.54 4.96 1.26.03 2.47-1.17 2.9-2.87zm-276.3-95.6c-5.75-1.34-9.7-7.93-27.37-45.64-3.17-6.77-5.76-13.37-5.76-14.66 0-2.05-.4-2.18-3.04-.98-2.1.95-4.16 4.14-6.67 10.28-2 4.9-6.33 12.72-9.6 17.4-5.06 7.2-7.24 9.13-14.54 12.8-13.18 6.64-21.15 5.36-21.15-3.4 0-4.65 3.38-8.8 8.4-10.32 1.53-.47 5.58-3.98 9-7.82 7.04-7.9 12.66-20.59 15.58-35.18 1.01-5.05 2.02-9.27 2.24-9.38 21.97-10.65 29.78-17.09 29.78-24.58a28.9 28.9 0 0 1 5.98-17.18c3.5-4.63 3.26-4.71-7.94-2.78-21.5 3.72-57.15 14.14-79.29 23.18-21.52 8.8-22.7 9.18-28.35 9.24-9.55.1-12.31-7.05-5.09-13.17 6.25-5.29 37.18-19.78 55.53-26.01 24.85-8.45 46.14-12.4 74.79-13.88 12.89-.67 16.84-1.42 28.12-5.39 13.02-4.57 13.3-4.6 33.13-4.62 18.27 0 33.68 1.28 53.75 4.49 4.12.65 14.8 1.53 23.75 1.95 13.99.64 18.07.36 29.37-2.05 8.6-1.84 20.46-3.14 34.38-3.78 29.05-1.32 32.7-2.66 45.42-16.67 5.23-5.75 12.57-10.09 24.77-14.64 5.23-1.95 10.84-4.8 12.48-6.35l2.98-2.8-.76 4.3c-.42 2.36-2.15 7.24-3.85 10.84-3.25 6.9-3.03 9.88.6 7.97 1.15-.6 6.13-.73 11.05-.27 4.92.46 10.42.44 12.21-.04l3.27-.88-2.84 5.07c-2.94 5.25-8.42 10.11-12.96 11.48-2.53.77-2.57 1.1-1.1 9.6 1.17 6.88 2.33 9.67 5.3 12.79 5.24 5.51 4.37 10.23-3.47 18.75l-5.96 6.49H439.2c-19.84 0-19.47-.15-33.89 13.58-7.6 7.23-7.8 7.6-7.78 13.8.03 8.7 2.44 18.56 9.05 36.99 8.78 24.49 9.77 26.16 18.99 32.18 6.86 4.48 8.28 6.04 9.46 10.43 2.17 8.04 1.47 8.64-10.09 8.64-9.49 0-10.35-.22-13.47-3.52-9.5-10.01-31.14-43.22-40.24-61.77-4.45-9.08-7.49-11.39-13.6-10.36-4.87.83-5.33 1.33-11.35 12.32a1371.6 1371.6 0 0 1-8.07 14.58c-.98 1.72-3.36 6.38-5.29 10.36-4.92 10.2-13.1 20.16-19.75 24.05-6.81 4-21.48 6.3-26.25 4.13-1.68-.76-3.96-3.31-5.08-5.66-1.83-3.87-1.84-4.56-.1-7.21 2.11-3.24 10.32-6.3 20.2-7.54 7.25-.91 8.4-1.5 10.36-5.2 1.22-2.33 3.9-25.42 3.94-33.87l.01-2.81h-47.3c-36.94 0-48.58-.38-53.12-1.75-5.47-1.65-6.01-1.6-9.2.94-1.87 1.48-10.16 6.13-18.43 10.34-14.51 7.4-15.06 7.83-16.07 12.5-.58 2.67-.86 8.56-.62 13.1.57 11.09 4.15 15.9 14.62 19.73 4.16 1.51 8.41 3.98 9.46 5.47 2.43 3.47 2.45 8.91.05 10.91-2.17 1.8-15.82 2.76-21.25 1.49zm276.77-152.4c-.1-7.12-.12-7.15-1.82-3.45-.94 2.07-1.74 4.65-1.77 5.73-.09 2.9-1.47 3.82-3.38 2.24-1.94-1.6-2.31-5.38-.42-4.21 1.4.87 2.99-2.27 2.25-4.48-.63-1.88-8.51 4.72-8.51 7.13 0 2.21 4.26 4.03 9.69 4.14l4.06.08-.1-7.19zm-259.62-101.38c-6.84-9.45-14.83-18.49-26.73-30.25-13.37-13.22-15.64-17.7-13.57-26.78.62-2.73.98-5.11.8-5.3-.18-.17-3.94 1.05-8.37 2.73-4.42 1.68-16.44 5.35-26.71 8.15-25.6 6.97-49.2 19.16-59.23 30.58-3.49 3.97-3.97 5.4-3.97 11.78 0 9.78-2.37 12.06-11.39 11-3.53-.43-7.83-1.69-9.54-2.8-2.81-1.85-3.06-2.68-2.55-8.75.86-10.44 7.16-21.46 18.37-32.15A207.45 207.45 0 0 1 95 1891.26c30.36-15.8 36.6-19.78 49.06-31.23 5.8-5.32 8.44-8.67 8.44-10.67 0-1.6 1.53-4.74 3.4-6.96l3.4-4.03-8.09.89c-20.86 2.3-64.36 15.3-92.07 27.5-12.77 5.64-20.37 6.86-24.73 4-5.32-3.48-4.33-8.59 2.59-13.34 14.15-9.74 55.76-26.72 77.38-31.57 15.73-3.54 33.4-5.9 53.12-7.1 10.66-.64 23.03-2.05 27.5-3.13 17.65-4.24 60.84-3.56 84.07 1.32 11.34 2.39 44.88 2.39 56.14 0 4.58-.97 12.92-3.21 18.53-4.98 5.6-1.77 11.7-2.95 13.54-2.6 19.2 3.55 28.54 1.54 39.65-8.51 6.94-6.28 20.58-15.85 22.58-15.85 1.34 0 14.72-10.2 15.86-12.1 3.97-6.53 4.04 5.15.1 16.73-1.73 5.12-1.72 5.72.2 7.12 1.64 1.2 3.68 1.16 9.77-.2a874.6 874.6 0 0 1 12.3-2.7l4.6-.96-3.01 5.74c-3.48 6.62-6.18 9.93-10.57 13-2.87 1.99-3.09 2.81-2.74 10.58.3 6.91 1.03 9.37 4.05 13.77 2.02 2.94 3.68 6.2 3.68 7.25 0 3.13-3.26 8.38-8.09 13.02-4.96 4.78-5.84 4.88-30.04 3.65-7.12-.36-9.7.06-13.87 2.26-5.97 3.15-9.25 7.58-9.24 12.49.01 4.66 10.72 26.59 18.9 38.7 13.76 20.42 25.37 33.07 34.68 37.82 5.95 3.04 8.91 7.42 8.91 13.2 0 5.47-2.88 6.88-14.06 6.88h-7.65l-10.08-10.33a7656.8 7656.8 0 0 1-35.53-36.9c-14-14.63-27.13-27.46-29.2-28.53-2.08-1.08-5.05-1.61-6.67-1.2-1.61.4-7.04 1.01-12.06 1.37-5.02.35-12.98.91-17.7 1.26l-8.57.63-10.02 9.04c-9.6 8.65-19.39 19.85-28.31 32.35-3.39 4.76-4.34 7.55-5.2 15.28-.6 5.2-1.7 10.62-2.46 12.05-1.68 3.13-6.12 4.98-11.96 4.98-5.94 0-9.27-5.43-9.28-15.15 0-7.87 3.1-15.8 15.32-39.2 3.96-7.57 7.5-14.69 7.85-15.8.56-1.77-1.16-2.16-12.82-2.9-20.52-1.29-33.8-3.03-43.84-5.75l-9.12-2.47-8.41 7.2c-4.63 3.96-10.55 8.6-13.16 10.32-6.74 4.45-9.83 10.82-8.17 16.84 1.57 5.7 19.24 24.62 25.2 27 9.64 3.84 15.6 10.99 14.1 16.92-.73 2.93-1.04 3-14.47 3h-13.71l-3.5-4.82zm255.21-137.17c1.1-2.84.94-12.36-.18-11.27-.51.51-1.8 3.5-2.87 6.63-1.82 5.37-2.06 5.58-4.06 3.57-2.4-2.4-2.81-4.6-.76-4.14 1.66.38 4.49-3.62 3.36-4.75-.86-.86-9.73 5.7-9.73 7.21 0 1.54 6.71 4.63 10.18 4.68 1.9.03 3.63-.8 4.06-1.93zM286.4 1722.5c-2.32-.55-4.6-1.6-5.05-2.34-.46-.74-.65-6.53-.44-12.88.33-9.77 4.88-32.85 9.87-50.1.59-2.01-.93-2.18-19.94-2.18-11.32 0-26.32-.59-33.34-1.31l-12.77-1.31-12.99 13.3c-7.14 7.3-12.99 13.81-12.99 14.45 0 1.11 9.28 7.4 26.04 17.66 8.78 5.37 12.1 10.34 10.23 15.28a9.63 9.63 0 0 1-4.34 4.63c-3.97 1.81-13.73-1.7-24.13-8.7-12.17-8.19-21.56-12.72-38.27-18.5-13.48-4.65-14.28-6.15-8.9-16.75 4.32-8.54 3.95-9.29-2.4-4.81-5.51 3.89-5.52 3.89-27.18 4.71-26.05 1-30.46 2.43-37.7 12.28-5.78 7.89-6 12.4-.85 18.25 3.97 4.52 4.99 10.42 2 11.57-2.89 1.1-19.75-1.72-21.67-3.63-1.31-1.32-1.84-5.59-2-16.1l-.2-14.32 4.22-4.82c2.32-2.66 5.78-8.13 7.69-12.17 3.33-7.04 3.88-7.53 13.76-12.31 5.67-2.74 12.05-6.23 14.18-7.75a235.87 235.87 0 0 1 23.27-14.01c11.36-5.81 26.25-22.4 26.25-29.23 0-1.36 1.53-4.28 3.4-6.5l3.4-4.04-4.97.92c-7.75 1.45-33.91 11.66-44.95 17.56-12.68 6.76-22 9.91-39.2 13.28-15.33 3-22.98 2.58-28.22-1.53-2.13-1.68-3.21-3.75-3.21-6.17 0-4-.4-3.84 14.25-6.18 9.96-1.6 32.22-8.8 41.08-13.3 3.34-1.68 10.5-4.7 15.9-6.7 5.4-1.98 13.22-5.33 17.36-7.42 19.05-9.61 63.07-16.1 99.27-14.64 11.14.45 27.86 1.36 37.14 2.01 22.63 1.6 50.36 1.6 59.46 0 4.08-.71 13.25-3.04 20.37-5.16l12.96-3.85 12.67 2.07c9.92 1.63 14.92 1.83 23.04.92 10.04-1.13 10.61-1.37 17.68-7.51 7.71-6.71 15.94-10.41 27.89-12.55 7.57-1.35 11.28-2.87 15.16-6.21 2.23-1.93 2.3-1.87 1.4 1.1-1.25 4.12-4.14 9.8-7.18 14.13-2.9 4.11-2.5 4.78 3.04 5.2 2.27.16 7.44 1 11.49 1.85 4.04.86 9.1 1.23 11.25.82 3.74-.72 3.58-.44-3.8 6.75-4.98 4.86-8.71 7.5-10.62 7.5-2.86 0-2.93.22-2.53 9.68.35 8.24.87 10.17 3.45 12.9 4.28 4.5 3.02 9.46-4.24 16.72-7.9 7.89-11.76 8.72-26.37 5.66a463.34 463.34 0 0 0-12.18-2.47c-.24 0-.44 2.11-.45 4.7 0 2.57-.59 6.78-1.3 9.35-1.75 6.3-.64 8.02 10.98 16.85 16.2 12.32 24.85 17.75 41.67 26.16 8.85 4.43 16.96 9.28 18 10.78 2.02 2.87 2.5 8.1.95 10.41-1.37 2.06-6.02 4.25-9 4.25-3.66 0-13.44-5.15-24.38-12.85-19.88-13.98-44.82-26.67-66.75-33.97-7.82-2.6-15.34-5.86-16.7-7.22-2.31-2.3-3.03-2.38-9.54-.95-3.88.85-9.86 1.98-13.3 2.5a215.1 215.1 0 0 0-15.52 3.29c-8.67 2.17-9.65 2.78-15 9.22a151.27 151.27 0 0 0-10 13.75c-2.35 3.77-6.05 9.67-8.22 13.1-3.55 5.64-5.12 9.05-7.37 16.01-.5 1.56.77 3.67 4.14 6.88 6.24 5.92 7.28 9.3 3.91 12.68-2.74 2.75-10.32 3.28-18.66 1.31zm165.53-138.05c1.28-8.53-.02-9.58-2.53-2.03l-2.25 6.8-2.33-2.88c-2.89-3.57-2.94-4.86-.18-4.64 1.18.1 2.35-.86 2.61-2.12.4-1.94.09-2.08-2.04-.94-3.54 1.9-6.46 5-6.46 6.88 0 2.03 4.62 4.29 8.99 4.4 3.03.07 3.44-.46 4.19-5.47zm-130.06-110.68c-6.15-2.46-13.13-14.12-12.28-20.54 1.24-9.32 2.25-30.93 1.89-40.14l-.4-10.03-12.73 1.11c-8.12.71-23 .6-41.17-.3l-28.45-1.43-3.65 4.16c-4.1 4.66-13.6 10.19-19.77 11.49-2.23.47-4.06 1.33-4.06 1.9 0 .57 2.74 4.33 6.08 8.34 9.06 10.88 15.02 20.84 16.63 27.8 1.8 7.83-.6 12.62-6.37 12.62-3.07 0-4.75-1.57-11.44-10.66-8.43-11.46-19.15-20.52-33.84-28.6-4.58-2.51-8.97-5.35-9.76-6.3-1.2-1.44-3.07-.78-11.06 3.91-11.97 7.04-32.22 22.08-33.88 25.19-1 1.86-.4 3.22 3.08 6.9 5 5.3 5.63 10.02 1.63 12.16-3.08 1.64-14.69.68-21.9-1.82l-4.62-1.6.03-8.15c.04-7.34.65-9.3 6.15-19.6 7.31-13.68 21.09-31.56 28.38-36.82 4.2-3.04 18.71-15.73 33.35-29.18 2.18-2 2.8-27.93.67-27.9-1.91.01-25.5 11.55-35.17 17.2-24.1 14.05-58.31 23.84-73.43 21-14.64-2.74-16.54-19.48-2.21-19.48 8.92 0 29.9-4.17 41.98-8.34 6.91-2.4 22.8-9.32 35.31-15.4 23.86-11.6 45.76-19.14 67.22-23.16 12.58-2.36 39.44-2.17 91.3.65 27.48 1.5 29.7 1.44 50-1.22 12.69-1.65 23.5-3.76 26.86-5.22 6.26-2.72 25.63-7.31 30.85-7.31 5.6 0 11.97-2.73 18.2-7.8 7.72-6.28 16.87-10.4 28.47-12.8 5.15-1.08 10.89-3.07 12.75-4.43 1.86-1.36 3.7-2.47 4.08-2.47 1.18 0-2.86 8.67-6.67 14.32-2 2.96-3.26 5.97-2.81 6.7.45.73 3.13 1.3 5.96 1.26a35.8 35.8 0 0 1 9.8 1.47c2.57.85 6.86 1.25 9.54.89l4.86-.66-3.24 3.95c-4.75 5.78-11.8 10.82-15.13 10.82-2.75 0-2.9.44-2.9 8.58 0 7.08.54 9.37 3.13 13.18 3.67 5.4 3.93 9.02.97 13.27-7.23 10.4-18.32 13.61-32.34 9.36-3.37-1.03-7.02-1.87-8.1-1.88-1.08 0-7.15 3.22-13.5 7.17-16.81 10.47-16.9 10.3 13.59 25.96 27.56 14.16 34 19.4 41.34 33.56 3.43 6.61 4 8.7 2.9 10.47-3.3 5.27-12.49 2.59-22.02-6.43-8.08-7.64-12.63-9.45-45.73-18.18-22.89-6.04-30.73-9.24-34.02-13.85-2.38-3.34-2.62-3.4-7.71-1.9-3.53 1.04-6.8 3.34-9.95 7-8.59 9.97-12.03 18.36-17.77 43.3l-1.78 7.75 4.24 6.59c4.68 7.27 5.2 9.96 2.36 12.31-2.3 1.9-10.3 2.64-13.73 1.26zm128.62-143.25c.42-1.08.71-4.32.66-7.18l-.1-5.21-2.37 5-2.94 6.24c-.32.7-1.46.16-2.54-1.17-2.46-3.06-2.5-4.58-.09-3.66 1.86.71 4.14-2.71 2.74-4.1-1.28-1.29-8.35 4.68-8.35 7.04 0 4.07 11.56 6.77 13 3.04zM125.4 1220.94c-2.07-3.27-1.98-28.95.13-37.29 2.89-11.38 9.88-25.53 16.4-33.15 4.25-4.98 5.57-7.54 5.57-10.82 0-5.05 3.13-8.43 7.8-8.43 1.79 0 4.11-.33 5.18-.74 1.71-.66 1.69-1.1-.21-4.01-1.66-2.53-2.12-5.9-2.04-14.88.06-6.4-.22-11.6-.62-11.57-.4.02-6.82 4.42-14.25 9.77-27.84 20.02-63.97 35.59-82.96 35.73-8.3.07-9.27-.2-12.87-3.65-2.7-2.58-3.78-4.68-3.52-6.84.32-2.71 1.57-3.47 9.74-5.88 26.88-7.92 65.79-25.4 84.35-37.9 19.8-13.32 34.4-19.5 58.3-24.65 14.04-3.02 59.89-2.98 86.1.09 31.06 3.63 39.75 3.9 48.17 1.44a840.5 840.5 0 0 1 18.8-5.14c6.23-1.63 13.36-3.8 15.86-4.85 2.49-1.04 10.04-2.48 16.78-3.2 18.44-1.95 19.04-2.17 27.23-9.98 5.12-4.88 11-8.83 18.34-12.31 7.86-3.73 12.26-6.76 16.1-11.1l5.29-5.95-.9 8.5c-.48 4.68-1.33 10.07-1.88 11.98-1.45 5.07 1.64 6.67 8.83 4.56 9.9-2.9 16.13-4.1 16.13-3.07 0 .55-.49 1.3-1.09 1.68-.6.37-1.4 2.25-1.79 4.17-.38 1.93-2.99 6.38-5.78 9.9-4.85 6.09-5.09 6.79-5.09 15.1 0 7.27.52 9.48 3.2 13.4 4.35 6.43 3.29 10.94-4.26 17.89-7.24 6.68-9.8 7.33-20.78 5.3-17.46-3.23-15.52-3.69-24.47 5.72-12.41 13.05-14.17 14.65-19.42 17.76a76.83 76.83 0 0 0-7.79 5.26l-2.89 2.37 7.1 7.46c9.55 10.03 12.59 14.5 15.55 22.94 3.59 10.2 3.25 15.23-1.53 23.13-5.84 9.63-12.16 10.13-16.71 1.33-2-3.88-1.96-12.6.08-17.5 1.1-2.64-8.62-10.45-21.5-17.25l-8.84-4.67-2.06 7.33c-2.34 8.32-2.8 31.15-.73 36.57.7 1.85 3.03 4.32 5.16 5.5 8.26 4.54 9.89 6.44 9.89 11.52 0 6.56-5.32 10.61-12.64 9.63-6.62-.89-10.56-3.67-13.57-9.57-3.72-7.28-13.12-37.78-15.76-51.14l-2.31-11.69-5.05.75c-16.61 2.46-76.9 1.73-88.8-1.08-1.84-.44-3.48.77-6.25 4.58-5.59 7.71-10.92 9.94-24.33 10.18-6.2.11-11.27.28-11.28.36 0 .09 1.44 2.76 3.22 5.94 3.59 6.42 7.98 22.7 8 29.66.04 9.32-8.96 16.65-17.72 14.45-4.74-1.19-5.99-5.39-4.68-15.77.86-6.85.72-9.94-.57-12.97-2.06-4.83-10.88-15.83-12.7-15.83-.72 0-4.24 2.85-7.81 6.35-5.35 5.24-6.96 7.88-9.13 15.03l-2.63 8.67 4.5 6.54c4.88 7.09 6 13.8 2.53 15.14-3.86 1.48-24.07.84-25.12-.8zm321.26-145.63c.3-.51.95-3.33 1.43-6.25 1.12-6.76-.9-6.96-3.09-.31-1.77 5.36-2.41 5.84-4.75 3.5-2.12-2.12-1.87-4.82.36-3.96 1.86.72 4.14-2.71 2.74-4.11-.94-.94-9.6 4.43-9.6 5.94 0 1.57 7.6 6.12 10.24 6.13 1.16 0 2.36-.42 2.67-.94zm-292.1-100.1c-1.13-1.25-2.06-3.03-2.06-3.95 0-.92-.9-4.54-2.01-8.05-2-6.33-2.05-6.37-6.72-5.93-8.61.83-10.96-6.76-6.25-20.17 3.99-11.34 4.32-19.78 1.35-33.87-5-23.61-2.9-34.15 6.46-32.43 2.22.41 6.3 1.71 9.04 2.89l5 2.13v-25.71l-3.12 2.02c-1.72 1.1-7.76 5.42-13.42 9.58-28.32 20.82-74.87 39.01-88.39 34.55-5.85-1.93-9.44-5.81-9.44-10.2 0-3.04.67-3.65 5.31-4.85 13.97-3.63 29.06-9.23 49.95-18.57 17.04-7.6 27.72-13.39 41.58-22.5C157.26 830 170.46 824.1 186.87 820c19.84-4.95 38.37-5.15 63.39-.67 24.27 4.34 41.36 5.04 65.38 2.7 11-1.09 22.76-2.8 26.12-3.8a94.05 94.05 0 0 1 13.11-2.69c4.17-.5 11.55-2.98 18.25-6.13 6.2-2.9 13.87-6.24 17.06-7.4 4.1-1.5 6.83-3.6 9.3-7.17 4.68-6.75 13.09-14 19.94-17.22l11.25-5.28c3.11-1.46 6.51-4.13 7.55-5.94 1.82-3.16 1.86-3.06 1.1 2.93a54.62 54.62 0 0 1-2.73 11.02c-1.1 2.75-1.45 5.25-.82 5.83 1.63 1.5 26.4-.6 28.6-2.42 1.3-1.08 1.88-1.13 1.88-.16 0 .77-.5 1.4-1.11 1.4-.62 0-1.44 1.28-1.83 2.85-1.07 4.24-9.06 13-12.69 13.91-2.52.64-2.94 1.25-2.06 2.96.6 1.18 1.8 5.13 2.66 8.77 1.18 5 2.59 7.45 5.8 10 4.88 3.9 5.3 7 1.86 13.75-5.65 11.05-11.5 14-27.87 14l-9.62.01-7.26 6.67a124.37 124.37 0 0 1-14.25 11.12c-4.43 2.8-11.5 9.66-19.23 18.63l-12.23 14.18.73 10.64c1.5 22.04 7.63 36.18 20.4 47.09 8.39 7.17 9.64 10.97 4.94 15.01-2.65 2.29-4.86 2.91-10.27 2.91-3.78 0-7.93-.56-9.21-1.24-1.28-.69-5.28-6.36-8.88-12.6-5.65-9.79-6.9-11.23-9.15-10.53-1.43.45-6.54 1.83-11.35 3.07a184.88 184.88 0 0 0-14.34 4.32c-8.62 3.18-13.7.14-13.77-8.24-.04-4.25 6-9.47 12.8-11.09 3.6-.85 6.97-2.17 7.47-2.93 1.12-1.7-.07-9.02-2.16-13.26-3.46-8.81-4.93-23.75-12.2-23.7-2.91.04-10.93.57-17.8 1.2-6.88.61-22.35 2-34.38 3.06a905.45 905.45 0 0 0-35.36 3.82c-7.41 1.03-16.93 1.87-21.15 1.87-14.17 0-35.73 13.21-46.06 28.23-5.84 8.5-4.85 16.2 2.62 20.4 6.18 3.47 9.95 8.26 9.95 12.66s-1.6 4.96-14.28 4.96c-8.42 0-10.72-.42-12.4-2.29zm286.92-160.84c-.55-8.58-2.21-9.6-3.23-1.95-.57 4.35-1.41 6.33-2.67 6.33-1 0-1.83-.24-1.83-.52 0-.29-.35-1.44-.78-2.55-.5-1.32-.19-1.9.9-1.67.95.2 1.89-.88 2.12-2.45.24-1.54-.04-2.81-.62-2.81-1.24 0-7.87 7.32-7.87 8.69 0 1.76 5.63 3.7 10 3.44l4.38-.25zm-243.4-90.93c-.4-1.03-4.49-4.88-9.09-8.55-4.6-3.67-11.9-9.93-16.22-13.91-4.33-3.98-8.39-7.23-9.03-7.23-2.31 0-4.99-7.5-5-14-.02-3.64-.45-7.29-.97-8.1-.59-.93-4.17-1.42-9.66-1.32-4.8.08-15.49-.31-23.74-.88l-15-1.03-5.72 6.1c-14.7 15.66-37 30.47-45.86 30.48-3.12 0-4.42-.72-5.48-3.03-2.88-6.34-.85-9.2 18.73-26.28 6.88-6.01 14.84-13.68 17.67-17.04 7.52-8.91 14.94-13.57 23.93-15.02 12.79-2.06 16-4.25 22.66-15.5 11.53-19.48 16.63-27.3 21.17-32.46l4.6-5.21-11.22 2.9c-12.8 3.32-18.58 5.64-42.98 17.27-27.6 13.17-44.79 17.9-59.96 16.48-13.04-1.22-27.98-8.27-26.56-12.53.27-.81 4.59-1.86 9.75-2.37 21.43-2.13 55.14-10.43 72.4-17.83 70.07-25.58 66.06-41.4 135-32.56 23.78 3.17 64.95 3.82 86.25 1.35 9.97-1.15 20.13-2.04 22.57-1.97 4.71.13 12.25-2.54 17.43-6.18 1.72-1.2 6.65-3.47 10.96-5.03 6.81-2.47 8.66-3.89 14.1-10.8 7.31-9.31 13.7-14.26 24.94-19.32 4.47-2.02 9.44-5.2 11.05-7.08l2.93-3.42-.8 5a91.3 91.3 0 0 1-2.77 11.09c-1.64 5.09-1.68 6.25-.26 7.13.96.6 2.23.53 2.9-.14.66-.66 5.17-1.2 10.01-1.2 5.37-.01 10.21-.74 12.4-1.88a28.2 28.2 0 0 1 4.02-1.87c.25 0-.97 2.67-2.7 5.94-3.57 6.7-8.97 12.81-11.32 12.81-2.88 0-2.97 2.2-.41 10.48 1.92 6.24 3.59 9.07 6.87 11.69 4.99 3.98 5.42 7.04 1.96 13.82-5.7 11.12-11.48 14-28.29 14-12.11.01-14.8 1.52-17.35 9.74-1 3.24-3.35 9.83-5.2 14.64-4.41 11.43-6.31 26.47-4.4 34.93 2.59 11.52 12.78 30.51 22.17 41.32 7.53 8.69 9.47 10.2 14.66 11.5 7.74 1.92 9.53 3.53 9.53 8.57 0 6.67-2.62 8.22-13.39 7.94-8.97-.24-9.6-.46-15.79-5.52-3.54-2.9-9.92-9.14-14.16-13.88-13.4-18.5-42.8-38.1-42.92-51.1l-7.16 8.02c-8.9 9.98-12.62 14.77-19.57 25.2-9.57 14.38-16.35 18.08-39.27 21.42-8.11 1.18-10.41 1.14-12.01-.18-5.83-4.84 1.68-13.35 12.94-14.69l6.44-.76 4.88-8.83c4.94-8.95 13.35-32.89 12.02-34.22-.4-.4-7.34-.05-15.43.76l-33.46 3.32a1472.7 1472.7 0 0 0-30.9 3.35l-12.16 1.52-12.54 11.92c-6.9 6.55-12.54 12.8-12.54 13.9.01 1.08 2.41 5.69 5.33 10.23 4.78 7.44 6.04 8.54 12.55 11.01 8.12 3.07 10.89 6.1 10.89 11.91 0 3.7-.34 4-5.31 4.7-16.93 2.35-18.38 2.39-19.12.48zm231.72-160.8c.23-1.63 0-5-.5-7.5-.88-4.3-.96-4.37-1.86-1.39a33.9 33.9 0 0 0-1.07 7.19c-.14 4.83-1.81 5.2-4.56 1.01-2.04-3.12-5.56-3.12-5.56 0 0 2.56 3.88 4.32 8.75 3.98 3.55-.25 4.45-.87 4.8-3.28zm-5.22-4.6c1.11-2.9-1.35-4.8-3.24-2.52-1.6 1.93-.88 4.48 1.27 4.48.67 0 1.56-.88 1.97-1.96zm-416.4-87.6c-5.56-5.73-5.78-10.36-.85-18 4.19-6.5 7.58-9.75 19.7-18.87 4.88-3.68 17.21-13.1 27.4-20.91 18.21-14 26.2-18.83 31.26-18.88 2.92-.03 14.31-6.88 14.31-8.6 0-.96 11.62-15.11 20.48-24.95l2.6-2.9-3.1 1.2c-1.7.66-7.32 3.2-12.48 5.64-13.07 6.2-38.8 15.48-47.2 17.03-13.76 2.55-26.77 1.25-31.64-3.15-4.62-4.2-.97-6.5 15.72-9.91 13.27-2.72 24.31-6.29 35.15-11.36 23.74-11.1 66.7-27.72 74.22-28.7 5.88-.78 9.58-1.51 25-4.94 7.22-1.6 17.34-3.82 22.5-4.94 13.25-2.86 41.33-4.46 53.27-3.04l18.6 2.2c17.7 2.07 47.84 1.6 65.63-1.04 22.28-3.3 23.42-3.63 39.1-11.28 12.42-6.06 13.9-7.17 18.97-14.24 3.02-4.22 10.89-12.65 17.49-18.72 6.6-6.08 12.9-12.82 14.02-14.98l2.03-3.92 1.19 3.1c.65 1.7.9 7.46.56 12.8-.56 8.62-.36 9.85 1.75 10.98 1.74.93 3.42.72 6.33-.78 3.24-1.68 16.81-6.78 18.03-6.78.69 0-2.33 9.53-4.1 12.98a27.58 27.58 0 0 1-4.81 6.35l-2.95 2.73 2.52 8.66c1.84 6.3 3.7 9.76 6.82 12.73 5.57 5.29 5.65 9.86.32 18.16-5.13 8-9.45 9.78-26 10.75l-13.1.76-2.57 10.17c-3.35 13.18-6.19 19.6-12.2 27.6l-4.9 6.53 2.64 3.35c1.45 1.84 7.33 7.74 13.07 13.11a351.3 351.3 0 0 1 21.5 22.63 972.16 972.16 0 0 0 17.2 19.51c5.55 6.01 6.07 7.07 5.42 11.1-.88 5.4-.85 5.37-6.19 6.57-5.16 1.16-6.98.3-15.32-7.31-10.92-9.98-17.37-15.16-26.33-21.17a305.55 305.55 0 0 1-17.4-12.84c-31.57-21.72-48.57-32.95-83.82-12.19-19.09 11.37-45.52 37.14-45.52 44.38 0 .87 1.4 2.98 3.13 4.7 3.5 3.52 4.07 8.4 1.23 10.75-2.83 2.35-12.73.58-17.6-3.14-4.72-3.6-6.25-9.65-5.84-23 .18-6.12.95-9.04 3.28-12.5 4.87-7.2 17.75-19.7 25.33-24.54 3.85-2.46 6.7-4.76 6.35-5.11-.35-.36-4.06.03-8.24.85-7.26 1.43-20.06.85-45.78-2.07l-6.27-.71-3.93 7.92c-4.94 9.97-6.62 22.62-3.73 28.05 3 5.62 9.52 11.86 14.46 13.82 8.5 3.38 10.05 4.57 11.45 8.8.77 2.34 1.04 5.7.6 7.45-.8 3.19-.86 3.2-10.25 2.32-5.37-.5-11.15-1.87-13.38-3.16-4.9-2.83-16.36-6.24-21-6.24-4.02 0-12.31-6.91-12.31-10.26 0-4.68-8.91-36.94-11.67-42.24-2.75-5.3-3.21-5.61-7.82-5.42-2.69.11-12.48 2.71-21.76 5.77-9.28 3.06-22.5 6.8-29.38 8.3a316.9 316.9 0 0 0-20.04 5.08c-7.36 2.27-32.28 15.5-42.4 22.5-6.8 4.71-16.74 14.6-21.22 21.11C22.35 470.97 17 475 13.87 475c-.69 0-3.25-2.06-5.68-4.57zM439.8 313.9c1.22-.78 1.43-2.62.8-6.88-1.2-8-3.09-8.53-3.09-.85 0 6.46-1.54 8.03-4.75 4.82-1.94-1.94-1.92-3.59.03-3.19.85.17 1.73-.95 1.96-2.5.24-1.54-.03-2.81-.59-2.81-1.07 0-7.9 8.08-7.9 9.35 0 2.35 10.55 3.95 13.54 2.06zM52.5 227.85c-1.72-.31-4.73-2.06-6.7-3.9-3.53-3.3-3.55-3.42-2.96-15.2.52-10.37 1.33-13.76 6.4-26.75 9.23-23.64 10.72-25.85 19.87-29.35 4.27-1.63 10.01-4.5 12.76-6.36 23.4-15.84 33.54-23.68 45-34.8 16.95-16.44 13.66-14.82-25 12.3-20.41 14.31-45.29 23.61-57.2 21.39-8.65-1.62-12.17-4.36-12.17-9.46v-4.22l9.38-2.09c23.65-5.26 36.09-10.66 65-28.2 26.88-16.33 27.1-16.43 56.25-25.36 5.5-1.69 13.37-3.75 17.5-4.58 4.12-.83 11.15-2.41 15.62-3.51 6.08-1.5 14.57-2.01 33.75-2.04 22.64-.03 28.83.45 53.13 4.07 38.63 5.75 47.25 4.72 78.12-9.38 19.07-8.71 21-9.9 25.63-15.8 8.95-11.43 14.95-16.51 26.53-22.5 6.27-3.23 12.54-7.42 13.93-9.3l2.55-3.43-.73 5a87.1 87.1 0 0 1-2.88 11.6c-1.2 3.63-1.78 6.83-1.31 7.12 1.41.88 25.26-1.89 27.74-3.21 2.83-1.52 2.83-1.48-.14 4.67-3.2 6.63-9.2 12.94-12.31 12.94-2.45 0-2.45.14.37 9.01 1.98 6.26 4.04 10.07 6.74 12.49 5.08 4.54 5.15 9.77.2 17.56-5.2 8.2-9.37 10-25.32 10.85-7.36.4-13.89 1.28-14.51 1.96-.63.7-2.67 5.2-4.54 10a64.67 64.67 0 0 0-3.92 30.96c.75 5.95 1.61 7.6 6.62 12.6 5.66 5.67 15.7 12.97 36.6 26.62 13.92 9.08 23.75 18.63 23.75 23.07 0 5.62-2.76 6.8-12.07 5.21-6.77-1.16-10.67-3-23.34-11.04a2893.73 2893.73 0 0 0-18.17-11.47c-6.99-4.29-36.67-19.28-46.4-23.44-15.53-4.68-15.17-7.57-24.6-5.76-14.42 2.79-47.98 37.23-47.9 49.15.02 3.53.92 4.82 5.3 7.6 4.16 2.65 4.46 6.73.84 11.34-2.88 3.65-7.19 4.2-15.28 1.96-3.28-.91-5.13-2.31-5.97-4.52-.67-1.76-1.3-11.71-1.4-22.11-.2-19.45.7-24.88 5.4-32.66l3.65-6.05c1.32-2.17.92-2.26-7.14-1.48-4.7.46-15.01 1.64-22.92 2.63-7.9 1-20.14 2.17-27.19 2.6-10.18.64-12.81 1.18-12.81 2.67 0 3.7-8.84 12.72-15.13 15.43-3.42 1.47-6.02 3.23-5.8 3.92.24.7 4.45 3.57 9.38 6.4 13.77 7.89 19.45 12.35 22.16 17.4 2.91 5.45 1.93 8.01-4 10.43-3.6 1.47-4.39 1.18-14.44-5.2-5.85-3.7-19.49-10.56-30.3-15.23-10.82-4.66-19.98-9.28-20.35-10.25-.37-.97.03-3.51.89-5.65 3.22-7.98 3.9-13.18 2.45-18.9-.94-3.76-2.07-5.6-3.44-5.6-1.12 0-7.1 1.64-13.3 3.63-20.37 6.58-44.88 13.78-51.87 15.24-8.78 1.83-14.19 4.6-21.38 10.95-4.94 4.35-5.98 6.13-7.34 12.52-1.53 7.21-1.48 7.57 1.6 11.61 8.67 11.4 3.6 16.86-12.88 13.9zM431.08 66.38c1.27-.8 1.48-2.68.82-7.48-1.06-7.65-3.15-7.29-3.15.55 0 6.26-2.28 7.44-5.5 2.85-1.58-2.26-2.2-2.44-3.82-1.1-2.67 2.22-2.42 3.69.88 5.01 3.64 1.46 8.6 1.54 10.77.17zm-4.83-8.95c0-1.34-.5-2.43-1.12-2.43-1.46 0-2.84 3.66-1.92 5.13 1.09 1.77 3.04.03 3.04-2.7z"/></svg>