<svg xmlns="http://www.w3.org/2000/svg" xmlns:xlink="http://www.w3.org/1999/xlink" width="1772.76" height="4498.85"><svg xmlns="http://www.w3.org/2000/svg" width="443.19" height="899.77"><path d="M177.3 673.5s12.15-12.1 16.72-19.27c16.6-26.05 37.8-84.6 37.8-84.6l-67.85 2.21s-.47 13.63-1.2 20.4c-1.88 26.2-4.64 34.7-22.6 55.33z" fill="#fcd9bb" stroke="#020710"/><path d="M270.3 670.31l15.23-119.8-61.46 19.19 2.56 100.26z" fill="#fcd9bb" stroke="#020710"/><path d="M139.55 648.32l37.03 25.9s-11.58 10.4-16.42 16.44c-24 38.38-49.25 72.91-59.68 113.48-1.26 4.96-2.28 15.18-2.28 15.18s13.15 33.82 26.7 44.66c16.43 8.1 19.78-.36 17.96 23.29l-48.23.05c-14.83-13.22-31.8-24.86-49.13-34.54.94-15.65 5.5-28.26 14.05-41.37l13.28-18.97c10.46-40.62 23.83-90.34 44.82-120.37 6.31-8.73 21.9-23.75 21.9-23.75zm87.02 22.61l43.64.38c-3.77 54.84-4.58 106.7.83 161.38 13.64 25.16 38.72 26.97 58.19 36.34 5.52 3.92 3.25 12.3 3.4 18.25l-94.96-.04 1.23-33s3.05-30.2 1.33-45.17c-8.3-32.69-16.96-61.4-17.45-93.36-.17-14.98 3.8-44.78 3.8-44.78z" fill="#020710" stroke="#020710"/></svg><svg xmlns="http://www.w3.org/2000/svg" width="443.19" height="899.77" x="443.19"><path d="M154.57 647.12c-.53 1.07-20.04 22.96-28.98 35.28-17.74 22.48-24.76 50.21-39.72 73.8-7.7 24.05-34.76 36.23-42.93 55.55-2.89 7.33-.54 23.62-.54 23.62l47.77 52.06 32.47.27-.54-16.9c-24.35-21.32-28.72-39.94-28.44-71.4 12.35-28.07 31.32-55.61 49.1-76.74 14.09-16.67 45.23-47.34 45.23-47.34z" fill="#040a15" stroke="#030914"/><path d="M291.09 573.01c-.5 34.41-10.66 66.94-21.63 99.44l-41.75-6.08 9.87-114.99z" fill="#fcdcc1" stroke="#040a15"/><path d="M227.84 665.23c-8.84 30.65-9.74 65.18-8.86 93.66 1.9 27.22 5.33 46.12 3.31 72.48 0 0-6.1 17.44-7.07 26.54-1.03 9.75 1.48 29.39 1.48 29.39h99.56c-8.23-21.55-25.77-20.68-40.92-31-10.14-7.15-26.84-25.76-26.84-25.76s3.3-36.53 5.37-54.75c4-38.12 8.17-68.13 16.1-105.2z" fill="#040a15" stroke="#040a15"/><path d="M247.96 574.8c-15.14 38.9-28.73 73.05-60.38 100.9l-32.37-29.25s10.7-7.75 13.59-13.42c9.62-18.95 9.39-63.07 9.39-63.07z" fill="#fcdcc1" stroke="#040a15"/></svg><svg xmlns="http://www.w3.org/2000/svg" width="443.19" height="899.77" x="886.38"><g stroke="#040b16"><path d="M305.89 574.15a578.2 578.2 0 0 1-35.49 100.38l-41.17-9.49 13.09-111.76z" fill="#fcddc2"/><path d="M263.76 567.32c-16.63 32.06-22 77.17-47.25 101.71-4.97 4.8-16.5 12.52-16.5 12.52l-27.56-33.06 9.82-11.2c5.83-22.94 7.74-46.57 9.57-70.16z" fill="#fcddc2"/><path d="M171.88 649.1s-24.34 22.1-35.55 34.11c-14.59 14.3-24.02 33.76-34.35 49.1-12.82 20.48-26.46 34.8-43.21 50.2-5.7 5.4-13.31 9.75-16.32 17.01-3.35 8.07-.59 26.19-.59 26.19L78.3 887.3l23.35-.07c-4.67-33.25-18.43-56.85-10.4-88.36 2.03-7.66 10.2-21.47 10.2-21.47 13.62-18.58 31.33-36.65 46.43-50.72 16.84-15.67 52.2-45.16 52.2-45.16zm57.26 16.35s-9.69 26.88-14.33 40.4c-16.2 40.37.83 94-9.5 130.55-2.5 8.4-10.28 14.66-12.52 23.15-2.35 8.9-.57 27.6-.57 27.6l102.22.12c-.56-10.12-2.7-19.43-12.37-20.7-19.61-1.77-38.83-23.9-50.19-36.63-.28-30.11 10.1-61.08 17.46-86.53 6.7-23.32 21.3-69.61 21.3-69.61z" fill="#040b16"/></g></svg><svg xmlns="http://www.w3.org/2000/svg" width="443.19" height="899.77" x="1329.57"><g stroke="#050d1b"><path d="M252.52 673.55c19.44-36.85 30.16-77.42 41.06-117.54l-41.6.27-30.58 113.24z" fill="#fce1c9"/><path d="M198.05 692.07c-13.01 39.85-5.08 84.3-9.4 119.42-1.09 8.19-5.63 24.15-5.63 24.15-10.57 18.67-12.59 30.03-12.23 51.67l99.71-.1c1.38-24.95-8.71-18.38-23.34-24.47-14.98-7.26-38.38-31.93-38.38-31.93s8-39.73 13.15-59.31c10.2-36.1 19.3-64.06 30.93-98.93l-52.4-5.73z" fill="#050d1b"/><path d="M198.05 583.11l-9.13 60.38-7.78 7.25 24.15 39.45s13.97-9.65 18.97-16.33c21.14-35.42 30.4-76.89 42.49-115.97z" fill="#fce1c9"/><path d="M181.14 650.74s-20.7 15.53-30.32 24.15c-25.86 25.66-45.94 48.63-73.8 67.9-10.15 7.62-20.08 11.49-32.47 15.02 0 0-5.86 41.59-1.61 61.73 3.71 17.62 23.08 48.84 23.08 48.84 9.33-1.72 20.06-5.04 17.98-16.1-11.25-20.73-7.01-46.71-3.5-70.58 0 0 7.11-9.84 11.28-14.23 35.42-33.86 71.42-54.07 113.51-78.36z" fill="#050d1b"/></g></svg><svg xmlns="http://www.w3.org/2000/svg" width="443.19" height="899.77" y="899.77"><g stroke="#040c18"><path d="M229.8 679.66s-27.62 83.6-35.78 126.73c-1.52 8.03-5.26 16.75-2.41 24.42 8.8 25.1 34.95 23.88 52.06 34.88 5.19 5.98 4.33 14.52 3.49 22l-101.71-.53c.84-19.82 8.88-37.56 13.95-54.2 11.86-50.37 12.78-98.96 13.96-152.17z" fill="#040c18"/><path d="M199.62 584.02l-2.65 65.65-5.31 6.08 19.73 39.09 20.5-11.39c23.19-38.45 33.32-86.88 43.64-130.55z" fill="#fce1c9"/><path d="M191.84 656.13s-27.08 13.93-39.84 22.2c-19.95 12.93-36.13 31.54-57.12 42.7-16.7 8.07-32.3 10.8-50.86 12.9-4.92 41.67-5.24 77.04 11.77 115.75 18.4-5.97 16.82-8.03 16.32-19.74 1.48-28.43-1.68-55.72 18.21-75.14 36-27.88 78.77-43.54 122.2-60.72z" fill="#040c18"/></g></svg><svg xmlns="http://www.w3.org/2000/svg" width="443.19" height="899.77" x="443.19" y="899.77"><g stroke="#060e1c"><path d="M182.17 580.98c-1.48 28-5.11 55.56-10.25 83.12l41.37 6.83 12.9-95.64z" fill="#fce1c9"/><path d="M202.34 653.74l-34.4 22.31c-22.23 19.48-44.16 45.9-68.5 59.4-19.43 7.29-34.77 12.8-52.95 23.15L92.6 859.17c13.23-9.17 16.29-10.41 13.28-26.76-7.62-19.29-3.89-44.47-1.13-65.47 0 0 16-16.38 25.42-22.77 16.49-11.17 53.52-26.56 53.52-26.56l40.62-27.05z" fill="#060e1c"/><path d="M171.87 664.35s-20.07 53.7-25.38 81.72c-2.04 34.91-5.18 63.74-13.28 94.5-2.29 8.68-8.2 16.23-9.87 25.05-1.35 7.14 0 21.82 0 21.82l97.54-.23s1.53-12.92-1.52-18.18c-21.63-11.7-32.7-20.96-50.1-40.6l42.13-161.68z" fill="#060e1c"/><path d="M197.51 584.19s10.38 32.51 11.54 49.37c.4 5.83-1.6 17.45-1.6 17.45l-4.57 2.41 22 36.77 24.96-15.57 5.1-8.05 11.27-106z" fill="#fce1c9"/></g></svg><svg xmlns="http://www.w3.org/2000/svg" width="443.19" height="899.77" x="886.38" y="899.77"><g stroke="#050d1b"><path d="M171.21 573.99c-5.21 30.42-6.86 58.72-18.25 87.48l41.33 16.1 48.3-111.63z" fill="#fce1c9"/><path d="M202.88 887.16l-103.32-.27 15.03-51.52-42.13-64.4s37.47-25.6 53.94-34.63c5.61-28.35 13.1-50.81 26.83-76.2l40.52 16.9 6.84-13.65 20.25-11.9 24.65 30.86-66.76 49.43c-15.95 29.07-24.5 59.8-30.6 92.32 0 0 8.63 16.54 15.3 22.8 9.94 11.95 24.82 9.85 35.42 17.72 7.52 5.02 5.63 14.37 4.03 22.54z" fill="#050d1b"/><path d="M265.28 563.9c9.24 32.4 7.94 65.59 5.7 99.06l-25.43 19.35-24.67-30.74 6.07-4.55c-6.41-27.76-17.8-54.36-27.33-81.22z" fill="#fce1c9"/></g></svg><svg xmlns="http://www.w3.org/2000/svg" width="443.19" height="899.77" x="1329.57" y="899.77"><g stroke="#050c19"><path d="M283.88 563.9c3.25 25.05 12.06 59.87 8.35 81.22-1.75 9.17-11.77 25.43-11.77 25.43L241 649.29l4.94-17.07-32.26-63.38z" fill="#fce1c9"/><path d="M166.23 580.22c-3.78 25.01-11.04 48.25-21.26 71.35l37.96 19.74c21.48-29.87 33.79-64.32 45.54-99.06l-61.86 6.45z" fill="#fce1c9"/><path d="M144.97 651.57s-16.02 27.2-22 41.75c-17.95 41.33-21.34 93.7-37.96 130.55-11.5 17.34-14.82 20.92-15.56 43.27 0 0 26.19 16.53 41 19.98 19.09 4.45 58.81.22 58.81.22-1.16-11.72 4.87-15.14-6.83-20.2-4.05-1.81-8.97-1.89-12.52-4.56-14.4-10.82-31.88-43.64-31.88-43.64 17.99-51.08 41.34-99.84 65.28-148.4zm95.86-1.77s-14.06 30.5-18.81 46.55c-8.79 33.85-10.96 70.66-14.8 102.47-.49 3.93-.2 8.04-1.52 11.77-11.58 17.39-15.67 27.59-19.74 49.34l101.71 20.49s4.7-13.27 1.9-18.98c-7.36-15-31.52-14.82-42.5-26.56-5.05-5.26-11.26-10.2-13.67-17.08-2.55-7.28-1.19-15.53 0-23.15 10.08-46.41 25.45-82.16 47.06-124.1z" fill="#050c19"/></g></svg><svg xmlns="http://www.w3.org/2000/svg" width="443.19" height="899.77" y="1799.54"><g stroke="#050c19"><path d="M275.9 569.98c-4.17 34.43 2.14 66.77-12.14 98.67 0 0-17.74.42-26.18-1.9-5.73-1.57-15.94-7.97-15.94-7.97l-6.83-87.67z" fill="#fce1c9"/><path d="M163.2 577.95c-5.23 22.97-12.57 45.14-20.88 67.17l34.53 21.25c21.04-24.57 31.55-55.8 42.13-86.15z" fill="#fce1c9"/><path d="M141.94 645.88s-15.12 16.66-21.63 25.8c-14.91 19.86-22.95 44.24-30.36 65.66-7.08 22.69-11.62 40.27-21.76 61.02-20.1 15.67-22.63 26.94-29.1 50.94l55.27 38.05h46.96c4.08-25.26-11.1-17.01-24.05-28.94-9.47-9.38-17.78-20.75-22.01-33.4-1.93-5.77-1.14-18.22-1.14-18.22 19.64-41 40.8-87.58 65.28-121.06 5.06-6.84 17.09-18.97 17.09-18.97zm79.59 13.18s-5.3 38.77-4.07 58.17c1.97 31.02 14.73 60.57 18.22 91.46 2.94 27.46.87 50.9-3.23 78.6l97 .02c1.38-33.5-26.65-20.69-44.81-31.18-10.77-8.6-22.25-19.82-24.67-33.78-7.86-50.9 3.8-154.46 3.8-154.46s-17.44.52-25.81-1.52c-5.83-1.42-16.43-7.31-16.43-7.31z" fill="#050c19"/></g></svg><svg xmlns="http://www.w3.org/2000/svg" width="443.19" height="899.77" x="443.19" y="1799.54"><g stroke="#050d19"><path d="M284.2 567.82c-2.7 37.98 1.77 73.23-16.38 105.73l-22.27-1.34-17.45-7.52-.26-101.44z" fill="#fce1c9"/><path d="M181.41 581.5l-.54 52.6-9.12 16.64 30.6 29.52 15.56-17.18c7.72-27.74 9.79-56.06 10.73-84.8z" fill="#fce1c9"/><path d="M201.96 680.66c-37.31 34.74-69.13 73.83-99.5 114.75 0 0-1.84 26.7 0 39.85 2.5 17.72 28.3 31.31 14.81 51.61H97.91l-57.68-67.55c6.6-16.5 22.41-26.1 37.2-35.3 0 0 20.93-36.22 31.5-54.27 15.08-27.43 26.42-49.37 48.57-68.69 4.22-3.66 13.69-9.7 13.69-9.7zm26.13-15.49s-6.77 17.72-9.11 26.9c-9.4 32.94-3.02 69.66-.8 100.36 1 16.17 1.07 48.57 1.07 48.57-13.62 13.57-11 26.91-8.32 45.63l97.41.26c-1.37-15.37 1.54-13.04-11.54-18.24-23.08-7.34-32.98-13.92-50.45-31.94-1.1-43.97 5.28-88.43 13.42-127.74 2.49-12.04 8.29-35.94 8.29-35.94-14.66.69-26.65-1.73-39.97-7.86z" fill="#050d19"/></g></svg><svg xmlns="http://www.w3.org/2000/svg" width="443.19" height="899.77" x="886.38" y="1799.54"><g stroke="#040b17"><path d="M206.84 587.81l1.9 63-6.08 4.18 5.35 17.17 17.8 7.88 33.02-81.98-12.9-40.6z" fill="#fce0c8"/><path d="M238.3 573.45c2.3 35.77 2.04 59.02-10.2 92.85l22 9.13 16.11 1.6c27.9-32.62 34.71-80.55 41.86-122.36z" fill="#fce0c8"/><path d="M228.39 665.47l-12.1 31.96c-11.51 42.85-13.36 87.53-15.56 131.77-13.18 24.01-16.1 26.79-11.96 58.1l98.64.26s-.89-12.43-5.1-16.23c-24.88-6.64-47.48-18.47-55.82-37.57 0 0 4.54-30.59 8.05-45.62 8.89-37.98 32.88-112.31 32.88-112.31-14.58 1.5-26.33-3.27-39.03-10.36z" fill="#040b17"/><path d="M202.14 655.44s-16.58 13.59-23.95 21.33c-25 29.02-44.14 54.77-67.63 85.6-17.25 3.95-28.95 17.41-40.25 30.6 13.1 32 17.18 56.64 35.95 85.55 7.76-7.2 13.41-7.04 11.77-18.21-7.2-21.2-3.1-46.83-.38-65.66 28.7-29.62 61.4-58.31 85.77-84.25 8.7-9.34 24.83-29.15 24.83-29.15-14.29-7.75-18.93-10.76-26.11-25.81z" fill="#040b17"/></g></svg><svg xmlns="http://www.w3.org/2000/svg" width="443.19" height="899.77" x="1329.57" y="1799.54"><g stroke="#040b18"><path d="M284.46 573.45c2 31.04-.29 61-6.17 91.51-10.15 15.1-26.15 22.28-42.67 29.25l25.5-126.93z" fill="#fce1c9"/><path d="M222.78 587.05l-11.01 81.22 11.48 14.52 25.33-.86c17.4-29.13 27.1-61.58 36.44-94.12v-36.05z" fill="#fce1c9"/><path d="M211.01 668.65s-16.23 42.62-20.5 64.9c-5.58 29.15.51 59.95-6.45 88.8-3.03 14.14-13.1 25.05-16.7 37.58-2.42 8.88-2.46 27.51-2.46 27.51l99.69-.08c-.82-5.23 1.14-15.69-4.62-17.57-22.97-7.5-34.5-10.09-54.65-31.12 0 0 .96-18.33 2.65-27.32 10.99-45.12 25.29-85.34 41-130.56 0 0-15.53-.89-22.78-3.41-5.51-1.92-15.18-8.73-15.18-8.73z" fill="#040b18"/><path d="M214.43 651.2s-30.33 25.27-44.4 39.08c-14.88 12.87-23.87 29.8-37.96 40.99a85.65 85.65 0 0 1-23.15 12.9c-15.53 2.1-21.65 6.04-34.54 16.7 5.45 33.94 11.92 60.18 27.71 90.7 6.59-.18 11.54-2.6 13.66-8.72-.46-29.62 1.48-48.99 16.32-76.66 23.32-22.57 50.6-40.63 77.42-58.83z" fill="#040b18"/></g></svg><svg xmlns="http://www.w3.org/2000/svg" width="443.19" height="899.77" y="2699.31"><g stroke="#050c18"><path d="M103.05 830.8c0-1.07-19.6-96.87-19.6-96.87 9.9-9.37 39.15-9.11 47.78-13.69 1.07-.8 115.66-66.01 115.66-66.01l16.64 33c-37.4 21.01-99.26 32.85-124.52 66.29-18.89 20.62-12.58 48.15-20.93 71.11-3.56 5.24-9.07 6.4-15.03 6.18z" fill="#050c18"/><path d="M300.02 561.64c.55 38.77-.17 74.1-7.51 112.18l-29.52 13.95-26.84-46.16 32.2-85.87z" fill="#fce1c9"/><path d="M203.42 585.16l-.76 42.5-13.28 39.1 14.96 23.45 30.2-6.76s11.7-25.32 16.7-38.33c6.14-15.94 13.46-31.74 16.32-48.58 1.71-10.1.38-30.74.38-30.74z" fill="#fce1c9"/><path d="M189.2 667.38s-16 51.98-21.2 78.63c-4.1 40.02-2.49 66.31-16.65 101.7-2.3 5.82-5.01 11.57-6.17 17.71-1.37 7.3-.8 22.28-.8 22.28l99.29.27c.18-7.9 1.88-15.36-5.9-19.6-21.18-3.5-45.05-15.18-50.46-34.34-2.86-10.94.5-22.72 2.69-33.82 10.43-43.08 25.39-77.56 44.54-118.07-21.67 2.95-27.76-.56-45.35-14.76z" fill="#050c18"/></g></svg><svg xmlns="http://www.w3.org/2000/svg" width="443.19" height="899.77" x="443.19" y="2699.31"><g stroke="#040b16"><path d="M257.31 686.87l-85.01 39.09-23.25 19.78c-19.09 14.09-14.91 61.31-20.4 77.37-3.15 6.22-10.58 9.4-16.7 12.53l-29.22-100.2c38.48-13.99 75.26-31.98 111.96-50.1l41.75-33.77z" fill="#040b16"/><path d="M291.97 564.6c-1.1 37.85 8.7 72.05-3.75 108.14l-31.67 14.76-20.4-35.69 6.71-93.12z" fill="#fce1c9"/><path d="M187.85 587.4s-4.06 35.2-9.12 52.07c-2.97 9.9-12.35 28.44-12.35 28.44l40.26 17.72c27.62-39.17 41.1-83.56 54.74-129.35z" fill="#fce1c9"/><path d="M165.85 668.27l-16.1 41.5c-6.69 39.14-8.78 78.53-10.74 118.08-7.39 19.21-8.8 38.3-8.05 58.8l90.36 1.44c-.63-7.08.03-15.75-6.63-19.44-23.85-3.04-32.95-13.88-49.38-33.82 0 0-1.05-15.1 0-22.54 9.75-45.95 24.73-83.87 42.4-128.27z" fill="#040b16"/></g></svg><svg xmlns="http://www.w3.org/2000/svg" width="443.19" height="899.77" x="886.38" y="2699.31"><g stroke="#040b18"><path d="M286.15 568.08c-1.38 31.67 13.96 88.91-1.13 106.64-7.2 6.97-27.33 12.53-27.33 12.53-9.7-11.1-15.67-23.2-20.11-37.2l3.8-19.35-25.06-62.24z" fill="#fce1c8"/><path d="M141.42 665.77c-17.93 34.33-18.77 63.47-23.88 101.7l-3.49 63.6c-16.92 18.8-17.35 27.12-15.03 53.14l96.08 3.76c.24-7.39.72-16.05-5.9-20.13-23.2-3.15-34.81-15.78-51.53-34.08 1.32-33.18 12.3-64.79 23.08-96.07l22-57.7z" fill="#040b18"/><path d="M236.82 650.43s-10.3 3.92-15.18 6.46c-47.2 24.51-135.49 84.25-135.49 84.25l33.02 77.8 41.74-82.74 97.54-48.57c-9.78-11.2-16.51-23.27-21.63-37.2z" fill="#040b18"/><path d="M169.07 576.67l-6.98 49.38-20.93 39.72 41.86 15.02 60.65-112.7z" fill="#fce1c8"/></g></svg><svg xmlns="http://www.w3.org/2000/svg" width="443.19" height="899.77" x="1329.57" y="2699.31"><g stroke="#050c19"><path d="M166.11 580.7c.1 19.58-2.23 34.58-9.93 52.6l-16.63 22.8 39.18 20.4c22.95-31.6 39.54-66.32 54.74-102.24z" fill="#fce0c8"/><path d="M139.38 656.36s-12.17 19.58-17.18 29.94c-18.1 31.46-18.55 65.63-24.29 97.34-1.64 8.78-5.69 26.19-5.69 26.19-14.02 16.66-19.2 36.91-23.53 58.07 35.4 15.1 62.36 18.64 100.95 17.83-1-5.47 1.97-14.9-3.41-18.21-27.17-5.28-36.02-20.5-50.86-43.27 3-32.89 19.47-65.28 31.88-91.08 9.34-19.4 31.31-56.46 31.31-56.46z" fill="#050c19"/><path d="M286.53 570.74c5.77 25.7 25.2 63.57 19.74 88.42-2.01 8.54-12.53 23.15-12.53 23.15l-39.09-18.97s3.96-10.54 3.42-15.94c-2.77-27.86-33.4-77.04-33.4-77.04z" fill="#fce0c8"/><path d="M254.37 663.62c-28.37 37.66-30.25 84.56-41.08 123.44-1.66 5.68-6.07 16.7-6.07 16.7-15.04 12.04-16.98 23.44-20.12 42.5l95.26 31.5c4.03-23.1-3.33-16.48-15.18-27.7-19.76-19.56-33.87-35.62-25.8-62.62 18.23-37.18 34.88-66.41 52.27-104.94z" fill="#050c19"/></g></svg><svg width="443.19" height="899.77" y="3599.08"><defs><linearGradient id="c"><stop offset="0" stop-color="#fcd0ad"/><stop offset="1" stop-color="#fce1c9"/></linearGradient><linearGradient id="b"><stop offset="0" stop-color="#020710"/><stop offset=".25" stop-color="#091426"/><stop offset=".5" stop-color="#020710"/><stop offset=".75" stop-color="#0c1f32"/><stop offset="1" stop-color="#020710"/></linearGradient><linearGradient id="d"><stop offset="0" stop-color="#bfcdcb"/><stop offset="1" stop-color="#a89db2"/></linearGradient><linearGradient id="a"><stop offset="0" stop-color="#022a14"/><stop offset="1" stop-color="#6eb57a"/></linearGradient><linearGradient xlink:href="#a" id="k" x1="349.14" y1="176.88" x2="355.06" y2="199.06" gradientUnits="userSpaceOnUse" gradientTransform="rotate(9.99 593.89 -390.42)"/><linearGradient xlink:href="#b" id="g" x1="204.67" y1="535.95" x2="322.97" y2="505.43" gradientUnits="userSpaceOnUse" gradientTransform="matrix(.80974 0 0 1.00041 -26.62 -56.41)"/><linearGradient xlink:href="#c" id="f" x1="268.69" y1="549.68" x2="287.43" y2="517.49" gradientUnits="userSpaceOnUse" gradientTransform="rotate(-3.97 -516.76 1664.12)"/><linearGradient xlink:href="#c" id="i" x1="307.11" y1="187.34" x2="363.81" y2="214.76" gradientUnits="userSpaceOnUse" gradientTransform="rotate(-13.69 114.9 557.86)"/><linearGradient xlink:href="#d" id="l" x1="379.44" y1="188.88" x2="372.79" y2="105.12" gradientUnits="userSpaceOnUse" gradientTransform="rotate(-13.69 114.9 557.86)"/><linearGradient xlink:href="#d" id="h" x1="243.18" y1="186.1" x2="244.8" y2="215.51" gradientUnits="userSpaceOnUse"/><linearGradient xlink:href="#d" id="j" x1="220.37" y1="188.9" x2="236.18" y2="188.9" gradientUnits="userSpaceOnUse"/><linearGradient xlink:href="#b" id="e" x1="253.11" y1="567.43" x2="353.57" y2="567.43" gradientUnits="userSpaceOnUse"/></defs><path d="M255 569.35s6.2 7.55 9.5 11.15l12.35 1.1 8.4-6.22 5.5.64s2.55 4.89 4.57 6.68c3.04 2.32 7.37 3.32 10.79 2.56 1.85-.44 4.3-2.75 4.3-2.75l5.58-.36.27 5.94 10.52-.36 1 7.86 12.35-.64c4.27.33 4.65-4.19 6.58-5.49 1.8-1.09 6.31-.27 6.31-.27l-4.15-49.84-95.19 21.47z" fill="url(#e)"/><path d="M146.25 506.9l6.98.27s12.35 1.34 16.37 1.34c4.03 0 22.28.27 28.18-3.22 5.9-3.49 17.44-8.05 18.52-8.86 1.07-.8 35.42-6.7 35.42-6.7l-6.44-19.33-78.1-12.61-23.88 30.32z" fill="none" stroke="#000"/><path d="M152.27 419.5c-25.94 38.17-77.3 101.43-90 144.17 1.8 10.67 11.09 16.32 19.3 22.77l9.81-1.3c21.4 11 27.9 9.7 49.53-.52 26.47-10.6 45.93 5.53 67.76 9.05 27.55-12.02 53.31-28.89 82.67-33.99 11.77-2.04 24.35-1.75 35.8 1.66 15.55 5.5 21.32 11.17 25.87 27.16l.12 9.96s3.37 2.04 5.18 1.8c3.7-1.96 6.4-4.24 10.22-6.33 4.32-.35 9.47-.41 12.15-3.88 2.87-5.12 3.4-11.3 2.98-17.07-.53-7.33-3.82-14.26-6.86-20.95-29.82-50.66-53.23-87.87-78.63-139.42l-8.54-21.72z" fill="#065f2d" stroke="#000"/><path d="M272.7 431.78c-1.92-2.12-4.05-4.52-4.07-7.31 0-.92.4-1.8.76-2.66 1.06-3 5.78-5.5 5.78-5.5s-4.54.75-5.81 3.61c-.47-4.72 2.74-8.15 6.48-9.87 3.16-1.38 7.23-.94 10.34-.2 2.9.71 4.03 2.06 5.03 4.85 0 0-2.25-.1-3.32.19-3.16.82-6.44 2.22-8.83 4.27a23 23 0 0 0-6.07 9.67c-.26.95-.28 2.95-.28 2.95zm-148.24 49c-1.93-2.12-4.06-4.52-4.08-7.3 0-.93.4-1.82.76-2.66 1.06-3.01 5.78-5.5 5.78-5.5s-4.54.74-5.81 3.6c-.47-4.71 2.74-8.15 6.48-9.87 3.16-1.38 7.23-.94 10.34-.19 2.9.7 4.03 2.05 5.03 4.84 0 0-2.25-.09-3.32.19-3.16.82-6.44 2.22-8.83 4.27a23 23 0 0 0-6.07 9.68c-.26.94-.28 2.94-.28 2.94zm43.58 24.12c.9-6 2.02-12.71 6.57-16.48 1.52-1.23 3.52-1.75 5.4-2.3 6.36-2.27 16.8 2.17 16.8 2.17s-7.32-6.48-13.73-4.75c7.14-7.08 17.09-6.38 24.92-2.53 6.5 3.36 11.23 10.66 14.14 16.78 2.71 5.71 2.02 9.37-1.24 14.75 0 0-2.86-3.82-4.76-5.21-5.58-4.11-12.26-7.64-18.82-8.83-8.18-1-17.05-.02-24.06 2.94-1.92.83-5.22 3.47-5.22 3.47zm80.93-5.26c-4.23-4.64-8.9-9.92-8.96-16.03 0-2.02.88-3.97 1.67-5.83 2.33-6.6 12.7-12.08 12.7-12.08s-9.98 1.64-12.76 7.92c-1.03-10.35 6.01-17.88 14.22-21.66 6.93-3.04 15.88-2.07 22.7-.42 6.35 1.55 8.84 4.5 11.03 10.62 0 0-4.93-.2-7.29.42-6.94 1.8-14.13 4.87-19.36 9.37-6.14 5.91-11.14 13.67-13.33 21.24-.58 2.08-.62 6.45-.62 6.45z" fill="#032f16"/><path d="M169.1 489.78s-4.25 6.65-5.78 10.27c-5.46 11.73-3.44 22.7 2.72 33.05 2.58 4.33 8.73 12.35 8.73 12.35-14.23-.88-28-17.77-30.93-28.68 0-15.35 10.45-30 25.27-26.99z" fill="#032f16"/><path d="M186.81 504.58c-5.57 4.52-12.08 8.98-10.7 16.39 2.8 7 8.32 12.26 14.6 16.18 0 0-3.39.36-5.09.29-7.63-.79-17-2.69-19.76-9.44-3.14-7.68-1.43-18.7 8.5-23.4 4.74-2.45 7.65-2.47 12.45-.02z" fill="#032f16"/><path d="M189.34 523.64c3.65 5.37 7.59 7.6 13.52 4.84-5.34 5.79-9.62 6.4-14.28 4.6-4.88-1.9-8.9-8.5-7.82-13.62.82-3.84 5.54-6.13 9.52-6.95-1.57 4.4-2.43 7.72-.94 11.13z" fill="#032f16"/><path d="M200.55 526.7a6.12 5.05 50.93 0 1-7.78-1.57 6.12 5.05 50.93 0 1 .06-7.94 6.12 5.05 50.93 0 1 7.78 1.56 6.12 5.05 50.93 0 1-.06 7.94" fill="#032f16"/><path d="M216.6 512.83c1.3 2.27 1.8 4.98 1.95 7.59 0 10.29-10.14 19.86-18.63 20.62-1.52.07-4.45-.96-4.45-.96s2.68-1.97 3.95-3.03c4.5-3.02 7.85-11.24 5.57-16.62-2.97-7.01-13.76-8.5-20.63-9.83 8.53-11.72 25.33-8.75 32.25 2.23zm20.91-23.91s2.57 7.76 4.48 11.35c5.86 12.03 15.99 17.56 28.32 19.37 5.16.75 15.62 1.04 15.62 1.04-10 10.85-32.54 10.9-43.21 6.14-12.34-10-17.3-27.96-5.2-37.9z" fill="#032f16"/><path d="M189.68 456.64l-10.58 12.83-4.54 10.5-4.95 10.5-5.61 5.69-6.46 4.23c-4.51 3.99.9 5.57 4 4.78 5.24-2.84 9.78-6.3 14.27-10.14l1.34-3.99-1.44 4.41-2.88 6.72a300.11 300.11 0 0 1-7.23 13.65c-1.65 4.72-.18 5.4 4.62 3.53 4.91-3.04 8.43-8.37 10.17-13.05l3.7-10.9-1.44 4.4-1.84 6.29c-.97 3.61-2.02 7.18-3.28 10.7l-.6 3.56c-.58 4.81 1.68 6.3 5.67 3.1 0 0 2.7-2.74 2.9-3.79 1.99-4.07 7.88-24.02 8.55-19.73 1.68 6.73.5 13.57-.7 20.52-1.43 5.15 3.72 7.13 6.3 2.88 1.35-4.57 2.67-9.74 3.04-14.04-.1-4.63-.7-7.8.76-12.14 2.4 1.79 4.08 4.15 5.7 6.65 3.13 2.22 6.24 2.74 10.06 2.66l2.92-.86c2.04-1.76 2.6-3.3-.03-4.81-4-2.31-6.28-5.05-8.43-9.16 0 0-.88-6.06-1.74-8.98-1.4-4.75-3.8-9.14-5.53-13.78l-1.55-12.34z" fill="url(#f)" stroke="#1a0019" stroke-width=".57"/><path d="M129.92 473.8c0 3.4-.3 7.1 2.81 8.8 3.4 1.05 6.97.6 10.27-.54 0 0-.88 1.35-1.41 1.95-2.56 2.56-6.03 5.42-9.33 4.42-3.74-1.13-7.26-5.02-6.03-10.06.5-2.46 1.36-3.53 3.69-4.56z" fill="#032f16"/><path d="M141.8 465.36c1.2.2 2.35.82 3.35 1.54 3.76 3.06 4.25 9.61 2 12.95-.42.57-1.67 1.34-1.67 1.34s.08-1.57.07-2.35c.23-2.54-1.78-6.21-4.43-6.98-3.45-1-7.2 2.52-9.73 4.63-1.76-6.6 4.33-11.87 10.4-11.13z" fill="#032f16"/><path d="M137.65 478.55c3.04.26 5.03-.52 5.78-3.51.54 3.67-.51 5.42-2.56 6.6-2.14 1.22-5.75.72-7.3-1.2-1.17-1.44-.6-3.84.28-5.54 1.14 1.88 2.1 3.18 3.8 3.65zm-18.41-2.65s1.17 3.53 2.04 5.16c2.67 5.48 7.28 8 12.9 8.83 2.35.34 7.12.47 7.12.47-4.55 4.95-14.83 4.97-19.69 2.8-5.62-4.56-7.88-12.74-2.37-17.27z" fill="#032f16"/><path d="M137.69 478.2s-2.31 6.47-3.14 9.84c-1.57 5-1.8 7.74 1.46 11.12 2.9 3.03 9.85 7.12 9.85 7.12l9.53-22.9 7.85-3.36s3.48-4.88 5.76-6.34c14.95-7.05 32.87-7.35 46.6.77 3.33 1.98 9.32 7.38 9.32 7.38l22.2-1.17 4.72 8.54c.73-14.75-7.34-27.6-14.03-39.33l-38.13-30.37-41.17 21.23z" fill="url(#g)" stroke="#000" stroke-width=".9"/><path d="M281.45 515.89s6.7-3.76 9.79-6.04c14.38-12.62 15.39-22.68 12-34.31-1.68-5.74-9.68-10.46-14.08-11.09 8.35-3.04 16.9-1.64 21.65 3.96 10.74 12.65 13.24 39.27.84 49.77-7.29 5.2-16.16 4.37-23.74 1.25a63.72 63.72 0 0 1-6.46-3.54z" fill="#032f16"/><path opacity=".52" fill="#fce1c9" d="M208.51 186.75h22.54v34.89h-22.54z"/><path d="M290.04 416.35c1.21.2 2.36.83 3.36 1.55 3.76 3.06 4.25 9.61 2 12.95-.42.57-1.67 1.34-1.67 1.34s.08-1.57.07-2.35c.23-2.54-1.78-6.21-4.43-6.98-3.45-1-7.2 2.52-9.73 4.63-1.76-6.6 4.33-11.87 10.4-11.14zm-22.55 10.54s1.17 3.54 2.04 5.17c2.67 5.48 7.28 8 12.9 8.82 2.35.35 7.12.48 7.12.48-4.55 4.95-14.83 4.97-19.69 2.8-5.62-4.56-7.88-12.74-2.37-17.27z" fill="#032f16"/><path d="M278.17 424.8c0 3.39-.3 7.1 2.81 8.8 3.4 1.05 6.97.6 10.27-.54 0 0-.88 1.35-1.41 1.95-2.56 2.56-6.03 5.42-9.33 4.42-3.74-1.13-7.26-5.02-6.03-10.06.5-2.46 1.36-3.53 3.69-4.56z" fill="#032f16"/><path d="M205.04 423.08c21.4 3.98 36.49 19.65 52.8 38.57 14.7-15.92 23.48-36.07 31.9-58 2.62-.04 4.25.81 6.2 3.37 0 0 1.15-2.38 1.13-3.75-1.78-8.6-6.4-17.32-10.24-23.54-1.35-2.18-4.55-5.9-4.55-5.9l-3.1 7.53c3.12-8.66 6.43-16.35 6.95-26.19l-12.09-8.82-.83-12.27-4.3-4.71-5.36 9.29 8.61-15.03c-.74-9.65-1.24-18.8-4.02-27.84l-4.92 12.01s7.95-17.43 10.03-27.27c4.5-24.37-13.63-39.05-28.18-50.16-23.1-10.65-27.36-24.01-27.36-24.01l-6.59 21.74-10.28 145.93z" fill="#fcc332" stroke="#000" stroke-width="1.19"/><path d="M287.5 439.18s3.06-1.72 4.47-2.75c6.55-5.75 7-10.34 5.46-15.64-.76-2.61-4.4-4.76-6.41-5.05 3.8-1.38 7.7-.75 9.87 1.8 4.89 5.77 6.03 17.9.38 22.68-3.32 2.37-7.36 2-10.82.57a29.91 29.91 0 0 1-2.94-1.61zm-26.55 45.17c0 7.42-.67 15.56 6.18 19.29 7.47 2.31 15.28 1.3 22.53-1.18 0 0-1.93 2.96-3.1 4.27-5.6 5.63-13.23 11.9-20.46 9.72-8.22-2.48-15.95-11.04-13.25-22.09 1.11-5.4 3-7.75 8.1-10z" fill="#032f16"/><path d="M262.69 389.83c7.66 7.18 13.72 16.89 23.4 21.35-6.39 15.48-12.76 32.32-28.24 49.64l-29.95-33.8 12.58-109.63c5.22 22.92 8.32 54.67 22.21 72.44z" fill="#e79d27"/><path d="M287 465.8c2.67.44 5.18 1.8 7.37 3.38 8.27 6.72 9.35 21.1 4.42 28.42-.93 1.27-3.68 2.95-3.68 2.95s.17-3.44.15-5.16c.5-5.57-3.91-13.64-9.72-15.31-7.58-2.18-15.8 5.52-21.35 10.16-3.86-14.5 9.49-26.05 22.82-24.44z" fill="#032f16"/><path d="M137.7 478.5l15.45-96.17c8.75-13.75 16.18-29.14 23.3-45.2l.66 12.51s-.86-18.67-.75-24.4c1.25-27.22 11.54-98.75 11.54-98.75l35.93 1.8s1.92 14.58 3.05 21.8c5.14 20.61 5.54 41.58 4.37 62.05-.75 12.92-4.09 38.36-4.09 38.36s-11.04 14-15.5 22.67c-3.88 7.52-9.59 25.02-9.59 25.02s5.88-17.25 9.75-24.75c4.46-8.64 15.3-22.91 15.3-22.91 3.9 21.47 7.7 46.2 11.81 67.57l-3.15 15.63 2.31 16.77 8.44 15.82s-17.52-8.57-20.31-12.61c-8.37-11.82-19.13-17.2-29.3-16.97-13.6 2.3-26.63 5.48-37.31 13.24-9.7 7.05-21.9 28.53-21.9 28.53z" fill="#fcc332" stroke="#000" stroke-width="1.04"/><path d="M226.75 350.3s-11.2 14.13-15.45 22.42c-3.98 7.73-9.2 25.01-9.2 25.01s6.05-16.55 10.08-24.1c4.27-8 14.77-22.16 14.77-22.16s7.48 44.84 11.59 66.2l-3.23 16.01 2.38 16.91 7.7 14.46s-16.87-8.34-19.66-12.4c-8.81-11.26-17.43-17.76-28.17-16.28-34.6 4.78-44.1 18.72-44.1 18.72s11.48-16.61 12.03-18.9c5.36-24.45 17.24-39.08 27.3-55.16 8.78-13.1 15.78-30.82 23.8-42.59 4.15-6 13.28-15.39 13.28-15.39z" fill="#e79d27"/><path d="M277.91 494.75c6.7.57 11.06-1.14 12.7-7.7 1.17 8.06-1.13 11.9-5.62 14.47-4.7 2.69-12.63 1.6-16.03-2.6-2.56-3.17-1.32-8.45.62-12.19 2.51 4.13 4.62 7 8.33 8.02z" fill="#032f16"/><path d="M159.29 395.44s-5.07 31.17-4.56 30.15c6.2-11.82 10.75-24.51 14.52-38.8" fill="#e79d27" stroke="#000" stroke-width="1.04"/><path d="M192.76 345.84c3.82-18.72 7.25-40.59 12.95-55.1.96-2.4 2.3-4.37 3.64-6.18 1-1.36 3.28-3.48 3.28-3.48l3.4-24.72s-5.86-7.8-8.25-12.55c-4.04-8.01-10.07-26.45-10.07-26.45l25.9 11.6 3.3 21.81c4.2 18.2 4.92 36.89 4.16 55.58-5.22-.71-9.82.6-14.93 2.38-5.52 15.47-11.61 28.16-19.63 39.5-2.07.67-3.18 1.51-3.75-2.39z" fill="#e79d27"/><path d="M221.83 208.68c7.57 5.3 16.2 11.1 22 17.08 2.45 2.53 7.15 9.18 7.15 9.18s-6.29-2.57-9.23-4.25a63.43 63.43 0 0 1-10.44-7.21c-1.41-1.24-3.8-4.18-3.8-4.18s.32 4.59.77 6.84c2 7.26 3.88 13.3 5.88 20.68l-33.2-13.85z" fill="#091426" stroke="#000"/><path d="M274.3 276.04c.26-7.94 3.46-19.76-.4-27.16-5.27-6.82-14.74-13.24-23.05-15l4.98 20.95z" fill="#49c3b4"/><path d="M234.95 190.64a995.2 995.2 0 0 0 3.89 30.32s3.56-5.22 4.96-8.05a59.83 59.83 0 0 0 3.9-10.87c.9-2.5 2.52-1.6 2.68.81l2.28 11s2.7-2.53 3.49-4.16c3.39-7.05 4.62-23.02 4.62-23.02 4.62 14.36 4.7 35.22 2.47 48.11 0 0 3.73-3.65 5.24-5.77 1.45-2.03 2.93-4.16 3.62-6.57 1.43-5.04.94-10.46.8-15.7-.19-7.28-.84-14.8-2.26-21.74-.77-3.88-1.2-11.8-1.2-11.8l-34.22-6.04z" fill="url(#h)" stroke="#1a0019"/><path d="M365.74 34.47c14.69 5.33 25.85 22.07 28.78 35.57 2.07 13.27-.44 25.92-7.95 35.98-26.07 30.78-83.1 41.89-122.86 51.22-29.26 6.7-88.95 13.94-88.95 13.94l154.2-135.02z" fill="#091527" stroke="#605544" stroke-width=".8"/><path d="M232.75 190.47s14.44 6.4 22.16 6.85c.82.04 1.76.03 2.42-.46 2.93-2.16 2.97-6.7 5.11-9.63 1.36-1.86 4.83-4.94 4.83-4.94a8.16 8.16 0 0 1-6.98-2.79c1.83 2.28 4.7 2.54 8.1 1.79 0 0 5.18-5.11 7.28-8.06 2.37-3.34 4.54-6.5 5.9-10.76.15-.5-.05-1.1-.37-1.5-1.45-1.9-4.37-1.99-6.28-3.4-4.84-3.65-7.17-6.97-6.96-13.15 4.57-7.94 10.46-10.64 9.17-20.93l12.01-17.16-30.22-21-50.7 58.53z" fill="url(#i)" stroke="#1a0019"/><path d="M222.11 158.58s4.78 8.71 6.93 13.19c3.93 7.47 5.9 15.64 6.54 23.62a24.26 24.26 0 0 1-2.75 14.8c-2.9 4.56-6.24 7.48-10.62 10.54 0 0 2.34-4.1 2.84-6.36 1.27-7.71-.95-14.42-4.17-21.54z" fill="url(#j)" stroke="#1a0019"/><path d="M244.29 143.44c.1.11 1.28 2.36 2.12 3.4a17.8 17.8 0 0 0 9.88 5.97c.52.11 1.57.2 1.57.2 1-11.32 4.86-18.6.18-28.03l-10.19 4.34-6.93 8.01 3.52 6.33z" fill="#fff"/><path d="M252.54 127.69c-.62 6.56-1.62 15.63 2.38 20.77.8 1 1.42.9 2.36.42 1.66-7.09 2-16.1-.54-23.01z" fill="url(#k)" stroke="#1a0019"/><path d="M239.5 136.82c.39-.66 2.45-4.36 4.06-6.25a36.81 36.81 0 0 1 6.1-5.5 26.1 26.1 0 0 1 8.38-4.36s3.36.91 5.08.96c.88.03 2.62-.32 2.62-.32l-5.1 2.12 5.91 1.1s-.58.85-1.03 1c-1.29.45-4.06-.45-4.06-.45 1.99 2.18 3.95 3.6 4.09 6.63a19.6 19.6 0 0 0-3.04-3.22l-.24 3.57c-.94-2.08-1.74-3.82-3.65-4.98 0 0-1.9-.41-2.84-.3-3.06.54-5.7 2.55-7.75 4.47-2.02 1.92-5.4 6.4-5.4 6.4l2.28 7.96z" fill="#1a0019"/><path d="M256.86 128.15c.76 1.76 1.08 3.9 1.04 5.64 0 0-.5.01-.7-.13a5.3 5.3 0 0 1-.34-5.5z" fill="#fff"/><path d="M274.66 72.4s13.75 9.86 18.04 16.89c5.02 8.23 8.24 18.5 7.9 27.81-.14 7.88-3.3 11.34-10.64 14.27 0 0 2.84-5.13 3.33-7.97.34-1.9-.27-5.77-.27-5.77s-3.34 7.35-5.48 10.75c-.67 1.07-2.28 3-2.28 3l1.92 13.28-6.3-8.82c-1.7 3.78-7.94 8.9-7.94 8.9 3.07-4.84 5.18-10.12 7.18-15.47l-12.24 15.76s-.11-1.7.15-2.48c1.02-3.12 3.92-5.3 5.33-8.27 4.32-8.76 5.11-16.54 4.5-26.32-3.54 7.99-2.8 9.98-13.35 13.7 4.26-4.31 8.03-7.76 10.35-15.98-7.4 7.88-8.07 8.55-12.8 11.98a42.05 42.05 0 0 1-9.3 5.09c-2.56.99-8 1.94-8 1.94s7.87-3.3 11.17-5.92c6.17-4.91 7.84-6.2 15.5-17.9-7.24 8-15.44 14.03-24.87 19.23l-26.53 7.78z" fill="url(#l)" stroke="#1a0019"/><path d="M255.17 255.23c5.48 7.95 12.06 13.83 19.14 20.84 0 0 .53-7.58.34-11.28-.46-4.2.35-9.54-3.62-11.9-2.6-1.32-5.53-.58-8.02-.13-2.1.37-6.21 1.43-6.21 1.43s6.63-4.29 7.86-5.82c2.87-6.47-9.6-10.6-13.8-14.49 0 0 1.39 15.05 4.31 21.35z" fill="#164c5d"/><path d="M222.45 149.98c-1.3 27.27 2.23 59.86-3.43 86.04-13.9 9.86-27.81 9.63-44.43 7.69-.81-21.49.96-41.03 4.45-61.7z" fill="#fed245" stroke="#000" stroke-width=".8"/><path d="M263.71 307.94l-6.93 20.87a357.02 357.02 0 0 0 13.01-22.9l-1.5-8.79z" fill="#e79d27"/><path d="M141.54 201.14c1.4 25.8 1.81 52.01-.78 76.41 0 0-7.96 1.02-11.8.13-5.55-1.3-10.5-4.6-15.26-7.72-4.57-3-12.6-10.48-12.6-10.48 1.84-15.9-1.56-32.18-.6-48.23.22-3.78 1.48-11.25 1.48-11.25z" fill="#fed245" stroke="#000" stroke-width=".8"/><path d="M105.64 143.49c-6.55 8.34-15.71 15.5-22.64 21.87-11.36 11.42-20.95 18.7-28.37 32.25 0 0 4.16 3.08 6.54 4.02 10.47 3.39 21.65 3.95 31.8 4 4.34 0 8.68-.27 13-.62 12.02-.96 24.21-1.56 35.92-4.08 15.82-3.7 31.06-13.48 42.1-21.68l38.65-29.6s9.22-7.37 13.64-11.28c15.26-14.54 31.2-29.53 44.91-44.1 17.87-19.52 34.36-41.14 56.8-53.6 3.4-1.87 7.1-3.23 10.86-4.17 5.56-1.4 17.06-2.16 17.06-2.16s-7.83-1.94-11.83-2.32c-21.29-.24-53.66 3.43-70.86 13.13 0 0-5.3-4.9-8.18-7.07-4.7-3.52-9.71-6.62-14.79-9.57C240.44 17.59 227 8.7 204.8 10.67c-35.93 4.74-69.92 31.5-77.87 64.14-.59 2.75-.77 8.4-.77 8.4z" fill="#091527" stroke="#010b16" stroke-width=".8"/><path d="M107.2 146.59c-7.75 12.8-22.1 24.66-31.06 35.16.58-.08 14.77-2 22.04-1.84 14.63-.1 30.37.5 42.7 6.51 4.12 2.14 7.62 3.85 9.49 8.06 12.88-5.66 16.92-9.25 28.7-16.94l41.76-31.18s8.63-7.87 12.87-11.88c16.42-15.47 32.84-30.94 48.75-46.94 9.13-9.17 17.48-19.12 26.8-28.11 3.4-3.3 9.62-9.32 10.64-9.45 1.03-.13 9.87-7.48 9.87-7.48l4.46-5.76c-19.24 6.19-38.88 10.65-58.57 15.08 0 0-11.9-16.75-20.1-22.6-26.98-16.8-48.7-16.5-76.58-7.38-12.46 3.36-25.58 15.85-30.15 26.26-2.86 9.79-5.9 27.87-10.7 35.43-5.33 8.08-21.66 19.36-21.66 19.36z" fill="#020710"/><path d="M149.98 124.35s-3.71 12.01-4.97 17.8c-2.2 10.72-3.59 20.36-3.82 30.42a495.3 495.3 0 0 0 .5 28.44c-13.73 4.44-23.54 4.16-40.5 4.55 0 0 1.63-12.9 3.09-19.22 1.82-7.88 2.88-16.3 7.06-23.23 4.65-7.72 12.14-20.65 20.58-28.24 8.44-7.59 18.06-10.52 18.06-10.52z" fill="#fcc332" stroke="#000" stroke-width=".8"/><path d="M208.33 81.52c25.08-11.56 48.77-24.67 73.05-37.84-7.59-4.03-12.31-7.94-19.22-11.47-21.65 12.74-40.32 19.2-61.58 31.59z" fill="#fcc332" stroke="#fcc332" stroke-width=".8"/><path d="M155.48 59.67c.01-.31 1.78-8.43 3.26-12.46 4.97-11.76 14.47-27.8 28.9-23.81 6.07 3.6 9.29 10.36 12.48 16.6zm36.47 51.13c5.42-.23 9.14-1.58 13.17-5.23l-1.34-8.17-24.01 2.83z" fill="#fed245" stroke="#000" stroke-width=".8"/><path d="M139.18 128.86c.2-.03 8.53-3.34 12.55-5.53 3.75-2.05 6.4-3.93 9-7.22l-3.86-32.87.99-3.11c-4.86-.4-8.9 3.26-12.12 5.71-2.87 2.16-7.8 6.68-7.8 6.68l-6.11 6.97 5.26 29z" fill="#fcc332" stroke="#000" stroke-width=".8"/><path d="M138.21 91.97s-9.82-11.86-15.52-17c-5.61-7.22-20.56-7.58-28.85-7.36-4.4.22-8.7 1.04-12.96 2.06l-2.68-1.42s-.66 4.65-.74 7c-.42 7 .7 13.8 3.52 19.69 5.4 9.5 10.3 16.67 17.32 24.26 0 0 .09 5.57.46 8.32.45 3.29.87 6.65 2.11 9.73 1.36 3.37 5.73 9.27 5.73 9.27 5.78 1.27 11.06-.91 15.56-3.58 6.4-4.35 10.98-8.54 16.48-13.84 0 0-2.53-7.68-3.24-11.64-1.15-6.47-1.6-19.64-1.6-19.64z" fill="#fcc332" stroke="#000" stroke-width=".8"/><path d="M100.7 135.79c-1.07-6.79 2.98-13.88 3.81-18.92-.53-4.9.3-8.97-4.12-11.22C89.7 101.2 81.51 84.8 82.42 76.02c.21-1.59 1.5-4.56 1.5-4.56s14.3 2.69 21.35 4.48c4.11 1.04 8.29 2 12.2 3.65 5.91 2.88 12 7.28 15.83 11.82 1.04 1.26 2.08 3.69 2.08 3.69l-1.93 2.63 1.16 17.27c.91 5.21 2.35 10.26 3.98 15.3a46.09 46.09 0 0 1 8.66-4.37s-1.75 6.48-3.08 9.76c-5.72 10.57-11.72 22.43-18.81 30.8-2.44 2.89-3.75 4.35-7.02 1.56l2.62-7.18-9.09 2.2c2.01-6.75 4.92-12.58 7.66-19.06-4.15 2.02-8.02 2.6-12.6 2.27-2.35-3.39-4.7-6.63-6.22-10.5z" fill="#e79d27"/><path d="M156.75 75.9c-1.7-5.7-1.92-11.05-1.15-16.92 3.37-3.79 6.7-7.68 10.2-11.37 5.8-5.87 11.9-10.9 19.7-11.94 5.45-.43 11.32-.25 14.55 4.2 2.69 4.84 2.7 10.13 2.6 15.66l-.14 3.76c3.94 8.1 5.53 17.57 5.94 25.65-.52 6.33 1.15 14.02-1.83 19.25-.32.53-1.38 1.25-1.38 1.25s-.58-2.5-1.39-3.4c-2.84-2.7-6.62-3.32-10.12-2.77-4.4.68-7.14 2.05-9.9 5.5L157.96 80.1z" fill="#fcc332" stroke="#000" stroke-width=".8"/><path d="M159.72 117.7s3.87 7.82 5.34 11.93c3.44 9.6 5.35 19.67 8.08 29.5 1.98 8.42 5.51 15.93 5.54 24 15.57-9.34 29.77-21.85 43.84-33.32-6.08-9.64-12.97-20.27-19.7-27.94-6.87-7.76-22.4-21.56-22.4-21.56L158.2 80.34l-3.5 10.73z" fill="#fcc332" stroke="#000" stroke-width=".8"/><path d="M154.78 80.79s-.11 8.28-.77 12.35a94.27 94.27 0 0 1-3.98 15.05c-1.25 3.71-4.5 10.85-4.5 10.85-1.58 1.29-2.82 2.32-2.61 4.37l9.36-3.82s1.3-1.72 2.12-2.4c1.49-1.34 2.43-1.57 3.99-.43 1.2.94 2.18 2.2 2.94 3.52 1.71 2.98 3.5 9.7 3.5 9.7s1.6.23 2.16.76c1.49 1.42 2.34 5.73 2.34 5.73-.28-6.04-.34-12.5.16-17.88a62.7 62.7 0 0 0-.01-5.36c1.99-2.98 6.13-4.89 7.95-7.4 1.66-2.56-.56-3.7-3.08-4.02-4.18-6.03-7.31-11.56-14.63-12.92.33-3.68.45-9.07-3.48-8.38-.51.06-1.46.28-1.46.28zm3.53-.83l10.2 9.18 13.4 12.03.64-.76c-.08-2.78 1.38-5.22-.63-7.34-1.15-1.2-2.99-1.51-4.29-2.55-2.96-2.23-2.48-7.34-.05-9.7 1.18-1.1 4.47-1.88 4.47-1.88a65.9 65.9 0 0 1-1.93-8.28c-2.25.18-3.9 2.6-5.56 3.13-2.79.63-4.76-.83-7.24-1.51 1.07-2.7 2.35-3.88 5.13-4.76a18.45 18.45 0 0 1 4.6-4.92s.1-2.94-.12-4.4c-.2-1.35-.3-2.85-1.09-3.97-1.93-2.2-4.16-.84-5.76.95-2.12 2.4-3.4 5.44-4.82 8.32a132.34 132.34 0 0 0-3.66 8.91l-4.51 3.11z" fill="#e79d27"/><path d="M260.05 33.06c5.62 5.8 8.78 8.2 13.14 15.21l9.02-4.6s-5.03-4.69-7.78-6.74c-3.2-2.4-10.11-6.47-10.11-6.47z" fill="#fed245"/><path d="M175.64 539.17s6.9 2.75 10.5 3.67c18.21 3.1 26.38-2.27 33.04-11.9 3.29-4.75 1.96-13.63-.26-17.32 7.37 4.42 11.53 11.7 10.23 18.66-2.96 15.76-21.41 33.86-36.84 30.94-8.34-2.3-13.12-9.45-15.4-17.05-.67-2.27-1.27-7-1.27-7z" fill="#032f16"/><path d="M66.96 551.77s5.38 1.76 7.99 2.85c11.47 4.76 21.65 12.74 33.62 16.03 5.43 1.5 11.27 2.52 16.82 1.55 5.43-.94 9.62-5.76 15-6.98 10-2.26 20.57-1.3 30.78-.26 9.74 1 18.93 5.8 28.71 6.21 2 .08 4.02-.25 5.95-.78 27.9-7.54 51.42-28.84 79.92-33.62a78.08 78.08 0 0 1 35.18 2.33c8.72 2.65 23.66 13.7 23.66 13.7l1.14-.53" fill="none" stroke="#fcc332" stroke-width="2.5"/><path d="M352.97 588.84l-.31-16.3c-8.72-26.39-27.01-62.49-40.42-86.82" fill="none" stroke="#000"/><path d="M287.67 487.74a6.33 5.23 0 0 1-6.33 5.22 6.33 5.23 0 0 1-6.33-5.22 6.33 5.23 0 0 1 6.32-5.23 6.33 5.23 0 0 1 6.34 5.22" fill="#032f16"/><path d="M65.17 556.46s6.93 2.5 10.31 3.94c11.42 4.9 21.66 12.74 33.63 16.04 5.42 1.5 11.27 2.51 16.81 1.55 5.44-.94 9.62-5.77 15-6.98 10.01-2.26 20.58-1.3 30.78-.26 9.74 1 18.93 5.8 28.71 6.2 2 .09 4.02-.25 5.95-.77 27.9-7.54 51.42-28.85 79.93-33.63a77.12 77.12 0 0 1 35.18 2.33c9.19 2.86 24.8 14.77 24.8 14.77l1.2-.43m5.82 19.15c16.33-.21 17.96-6.1 23.96-21.85l.85-.38" fill="none" stroke="#fcc332" stroke-width="2.5"/><path d="M353.36 583.4c16.34-.21 20.29-5.12 26.3-20.88l.96-.33" fill="none" stroke="#fcc332" stroke-width="2.5"/><path d="M283.08 105.75s0 5.67-.25 8.5c-.33 3.67-1 7.32-1.67 10.95-.47 2.52-2.04 7.9-1.63 7.52.42-.37 4.11-4.24 5.2-6.91 1.02-4.86 1.9-10.64.82-15.13-.44-1.78-2.09-4.4-2.47-4.93zM288 94.66s1.94 5.33 2.66 8.07c.94 3.58 1.55 7.23 2.16 10.87.42 2.53.77 8.12 1.03 7.63.27-.49 2.42-5.4 2.54-8.27-.7-4.92-1.85-10.64-4.39-14.5-1.03-1.53-3.46-3.43-4-3.8z" fill="#a8a0b4"/><path d="M94.7 535.99c-2.89-3.18-6.09-6.8-6.13-10.99 0-1.38.6-2.71 1.14-3.99 1.6-4.52 8.7-8.27 8.7-8.27s-6.83 1.12-8.74 5.42c-.7-7.09 4.12-12.25 9.74-14.84 4.75-2.07 10.88-1.41 15.55-.28 4.35 1.06 6.05 3.08 7.56 7.27 0 0-3.38-.13-5 .29-4.75 1.23-9.67 3.34-13.26 6.42-4.2 4.05-7.62 9.36-9.13 14.54-.4 1.43-.42 4.43-.42 4.43zm22.26 11.12s4.59-2.57 6.7-4.14c9.85-8.64 10.54-15.53 8.22-23.5-1.15-3.92-6.63-7.16-9.65-7.59 5.73-2.08 11.59-1.12 14.84 2.71 7.35 8.67 9.06 26.9.57 34.09-5 3.56-11.07 3-16.26.86a44.02 44.02 0 0 1-4.42-2.43z" fill="#032f16"/><path d="M102.91 525.51c0 5.09-.45 10.66 4.24 13.21 5.11 1.59 10.46.9 15.43-.8 0 0-1.32 2.02-2.12 2.92-3.84 3.85-9.07 8.15-14.02 6.66-5.63-1.7-10.92-7.56-9.07-15.13.76-3.7 2.05-5.31 5.54-6.86z" fill="#032f16"/><path d="M120.76 512.8c1.83.3 3.54 1.24 5.05 2.32 5.66 4.6 6.4 14.46 3.02 19.47-.64.86-2.52 2.02-2.52 2.02s.12-2.36.1-3.53c.35-3.82-2.68-9.35-6.66-10.5-5.18-1.49-10.82 3.78-14.62 6.97-2.64-9.93 6.5-17.85 15.63-16.75zm-33.9 15.84s1.76 5.32 3.07 7.77c4.01 8.24 10.95 12.03 19.4 13.27 3.53.52 10.7.71 10.7.71-6.85 7.44-22.3 7.47-29.6 4.2-8.45-6.84-11.84-19.14-3.57-25.95z" fill="#032f16"/><path d="M114.53 532.63c4.59.4 7.57-.77 8.7-5.27.8 5.52-.77 8.15-3.85 9.91-3.22 1.84-8.65 1.1-10.98-1.78-1.75-2.17-.9-5.79.43-8.35 1.72 2.83 3.16 4.79 5.7 5.5z" fill="#032f16"/><path d="M121.22 527.83a4.34 3.58 0 0 1-4.34 3.58 4.34 3.58 0 0 1-4.34-3.58 4.34 3.58 0 0 1 4.34-3.58 4.34 3.58 0 0 1 4.34 3.58m164.68-98.28c3.04.26 5.03-.52 5.78-3.51.54 3.67-.51 5.42-2.56 6.59-2.14 1.23-5.75.73-7.3-1.19-1.17-1.44-.6-3.84.28-5.55 1.14 1.88 2.1 3.19 3.8 3.66z" fill="#032f16"/><path d="M290.34 426.35a2.88 2.38 0 0 1-2.88 2.38 2.88 2.38 0 0 1-2.89-2.38 2.88 2.38 0 0 1 2.88-2.38 2.88 2.38 0 0 1 2.9 2.38m68.66 103.98c-5.06.67-10.77 1.32-14.88-1.49-1.34-.94-2.23-2.43-3.11-3.83-3.32-4.63-2.15-14.1-2.15-14.1s-3.55 7.42-.66 12.2c-7.39-4.13-9.14-12.34-7.84-19.58 1.2-6.04 4.54-9.83 8.82-13.6l7.3 12.16c-.28 2-.03.44.53 6.03 1.09 6.85 3.94 13.8 7.97 18.79 1.12 1.36 4.02 3.42 4.02 3.42z" fill="#032f16"/><path d="M354.38 515.21l8.7 14.79s.34 2.23-5.78-4.72c-3.1-3.26-2.92-10.07-2.92-10.07zm-7.86 17.78s6.37 1.9 9.66 2.3c10.76 1.69 10.43.44 10.43.44l6.9 11.7s-25.98-1.74-27-14.44z" fill="#032f16"/><path d="M137.14 586.68l17.85-90.8c-13.97 30.25-11.8 77.29-38.32 96.71 3.87.3 20.47-5.9 20.47-5.9zm231.18 6.64l-37.95-83.88-15.1-18.11c14.46 26.01 26.47 53.04 37.57 80.65l-.27 26.27 5.5 2.47z" fill-opacity=".5"/></svg></svg>