<svg xmlns:dc="http://purl.org/dc/elements/1.1/" xmlns:cc="http://creativecommons.org/ns#" xmlns:rdf="http://www.w3.org/1999/02/22-rdf-syntax-ns#" xmlns:svg="http://www.w3.org/2000/svg" xmlns="http://www.w3.org/2000/svg" width="128" height="128">
  <svg viewBox="0 0 712.08916 1716.9999" width="32" height="32">
    <g stroke="#000" stroke-width="2.5" fill-rule="evenodd">
      <path d="M386.8 1168.5c-29 112.9 1.3 229.8 12.8 332.7 1.5 15.1.7 45.6.7 45.6 31.8 3.2 49.8 5.8 61.3-28.3-16.3-37.3-9.6-79.4-10-114.2 2.6-53-8.1-110 2.2-157.4 6.3-27.7 31.3-79.1 31.3-79.1zm-21.4 33.5s-64.7 67.1-94 103.3c-29.2 35.9-59.7 71.6-81.2 112.5-9 17.3-19.7 55-19.7 55-25.4 12.4-46.1-8.1-61.6-29.5 32-43.4 62-121.2 101.2-176.7 23.8-33.6 48.9-54.6 80.5-93.8z" fill="#211e27"/>
      <path d="M400.2 1546l-.6 57.8 197-2.9s2.5-9.8.7-14.3c-2.2-5.6-7.8-9.9-13.2-12.8-50.2-9-91.3-34-122.1-57.3z" fill="#141217"/>
      <path d="M399.6 1603.7l.2 17 183.8-1.2c9.8-4.3 11-8.4 13.1-19.2z"/>
      <path d="M108.3 1443.7l-40.9 40.9 142.7 135.8s8.6-5.3 10.5-9.7c2.4-5.6 1.4-12.5-.5-18.4-29.5-41.7-41.4-88.2-47-126.4z" fill="#141217"/>
      <path d="M67.4 1484.6l-11.7 12.2 132 127.9c10 3.7 13.8 1.7 22.8-4.6z"/>
    </g>
  </svg>
  <svg viewBox="0 0 712.08916 1716.9999" width="32" height="32" y="32">
    <g stroke="#000" stroke-width="2.5" fill-rule="evenodd">
      <path d="M390.4 1164.8c-38.8 109.8-19 229-16.7 332.5.1 15.2-3.3 45.5-3.3 45.5 31.3 6 49 10.2 63.5-22.8-13-38.6-2.5-80 .2-114.6 7.3-52.6 1.6-110.3 16-156.6 8.8-27 38.3-76 38.3-76z" fill="#211e27"/>
      <path d="M371 1542.9l-.6 57.7 197-2.8s2.5-9.8.7-14.2c-2.2-5.7-7.7-10-13.2-12.9-50.2-9-91.3-34-122.1-57.3z" fill="#141217"/>
      <path d="M370.4 1600.6l.2 17 183.8-1.1c9.8-4.4 11-8.5 13.1-19.3z"/>
      <path d="M375 1193.4s-74.8 70.5-107.9 109.7c-29.8 35.4-61 70.9-81.2 112.6-7.9 16.3-14.7 52.5-14.7 52.5-25.4 12.3-50.2-6.2-65.7-27.6 0 0 6-6.7 8.5-10.4 54.3-98.7 119.5-220.3 176.6-257.5z" fill="#211e27"/>
      <path d="M114.1 1429.3L65 1459.5l107 165.4s9.6-3.2 12.4-7c3.7-5 4.3-11.9 3.9-18-19-47.4-19.7-95.4-16.3-134z" fill="#141217"/>
      <path d="M64.9 1459.5l-14.3 9.1 98.5 155.2c8.9 6 13 4.9 23.3 1z"/>
    </g>
  </svg>
  <svg viewBox="0 0 712.08916 1716.9999" width="32" height="32" y="64">
    <g stroke="#000" stroke-width="2.5" fill-rule="evenodd">
      <path d="M388.6 1214.6s-72.2 60.3-106.4 92.6c-29.6 28-59.5 56-85.3 87.6-10.6 13-28.3 41.9-28.3 41.9-26.3 10.1-49.5-10.4-63.1-33 0 0 7-5.7 10.3-8.8 73.1-74 115.4-152.3 200.7-215.6z" fill="#211e27"/>
      <path d="M346.9 1165.2c-38.8 109.8-19.1 229-16.8 332.5.1 15.2-3.3 45.5-3.3 45.5 31.4 6 49 10.2 63.5-22.8-13-38.6-2.5-80 .2-114.6 7.3-52.6 1.7-110.3 16.1-156.6 8.8-27 38.3-76 38.3-76z" fill="#211e27"/>
      <path d="M327.4 1543.4l-.5 57.7 197-2.8s2.4-9.8.7-14.2a28 28 0 0 0-13.2-12.9c-50.3-9-91.4-34-122.2-57.3z" fill="#141217"/>
      <path d="M326.9 1601.1l.2 17 183.8-1.1c9.7-4.4 11-8.5 13-19.3z"/>
      <path d="M112.3 1397.1L61 1423.9l95.7 172.2s9.8-2.5 12.8-6c4-4.8 5.1-11.6 5.1-17.8-15.8-48.6-13.2-96.5-7.2-134.7z" fill="#141217"/>
      <path d="M61.1 1423.9l-14.8 8.2 87.8 161.4c8.5 6.5 12.7 5.7 23.2 2.4z"/>
    </g>
  </svg>
  <svg viewBox="0 0 712.08916 1716.9999" width="32" height="32" y="96">
    <g stroke="#000" stroke-width="2.5" fill-rule="evenodd">
      <path d="M431 1233.4c-30.1 25.6-79 43.6-116 69.3a779.7 779.7 0 0 0-95.5 76.4c-12.1 11.6-33.2 38-33.2 38-27.5 7-47.9-16.3-58.6-40.4 0 0 7.6-4.8 11.2-7.5a891.8 891.8 0 0 0 78.7-67.3c22.5-21.6 42.7-45.5 64-68.4l63-68.2 88.5 15.4s11.2 41.3-2.2 52.7z" fill="#211e27"/>
      <path d="M296 1171.8c-39.3 109.6-20.2 229-18.4 332.4 0 15.2-3.6 45.5-3.6 45.5 31.4 6.1 49 10.4 63.7-22.5-12.8-38.7-2.2-80 .8-114.6 7.5-52.5 2.2-110.3 16.9-156.5 8.8-27 38.6-75.8 38.6-75.8z" fill="#211e27"/>
      <path d="M273.6 1551.1l-.5 57.7 197-2.8s2.4-9.8.6-14.2c-2.2-5.7-7.7-10-13.1-12.9-50.3-9-91.4-34-122.2-57.3z" fill="#141217"/>
      <path d="M273 1608.8l.2 17 183.9-1.1c9.7-4.4 11-8.5 13-19.3z"/>
      <path d="M135.2 1371l-54 20.3 73.7 182.7s10-1.3 13.5-4.5a27.3 27.3 0 0 0 7.2-17c-9.6-50-1.2-97.4 9.4-134.6z" fill="#141217"/>
      <path d="M81.1 1391.3l-15.7 6.3 67.4 171c7.5 7.5 11.9 7.2 22.6 5.3z"/>
    </g>
  </svg>
  <svg viewBox="0 0 712.08916 1716.9999" width="32" height="32" x="32">
    <g stroke="#000" stroke-width="2.5" fill-rule="evenodd">
      <path d="M455.5 1234.3c-28 27.8-75.4 49.5-110.3 78a778 778 0 0 0-89.3 83.5c-11.2 12.6-30.2 40.5-30.2 40.5-26.8 9-49-12.6-61.6-35.9 0 0 7.3-5.3 10.7-8.3 25.9-22.8 48-49.5 73.3-73.1 18-16.9 37-32.6 55.7-48.9l74-64.3 72.2-55.5s18 71.6 5.5 84z" fill="#211e27"/>
      <path d="M268.7 1169.7c-39.2 109.7-19.8 229-17.8 332.4 0 15.3-3.4 45.5-3.4 45.5 31.3 6.1 49 10.4 63.6-22.6-12.9-38.6-2.3-79.9.5-114.5 7.4-52.6 2-110.4 16.6-156.6 8.8-27 38.4-75.9 38.4-75.9z" fill="#211e27"/>
      <path d="M246.3 1549.4l-.5 57.7 197-2.8s2.4-9.8.7-14.2a28 28 0 0 0-13.2-12.9c-50.3-9-91.4-34-122.2-57.3z" fill="#141217"/>
      <path d="M245.8 1607.2l.2 17 183.8-1.1c9.7-4.4 11-8.5 13-19.3z"/>
      <path d="M168.4 1398.5l-49.7 29.4 104.3 167s9.7-2.9 12.6-6.7a27.2 27.2 0 0 0 4.1-17.9c-18.2-47.7-18.1-95.8-14-134.2z" fill="#141217"/>
      <path d="M118.7 1427.9l-14.4 8.9 96 156.8c8.7 6 13 5 23.2 1.2z"/>
    </g>
  </svg>
  <svg viewBox="0 0 712.08916 1716.9999" width="32" height="32" x="32" y="32">
    <g stroke="#000" stroke-width="2.5" fill-rule="evenodd">
      <path d="M483.7 1232.8c-28 27.8-75.4 49.5-110.3 78a778 778 0 0 0-89.3 83.5c-11.2 12.6-30.2 40.5-30.2 40.5-26.8 9-49-12.6-61.6-35.9 0 0 7.3-5.3 10.7-8.3 25.9-22.8 48-49.5 73.2-73.1 18-16.9 37.1-32.6 55.7-48.9l74-64.3 72.3-55.5s18 71.6 5.5 84z" fill="#211e27"/>
      <path d="M194.4 1397.5l-44.7 36.6 128.7 149.2s9-4.4 11.4-8.6a27.3 27.3 0 0 0 1.3-18.3c-25.3-44.4-32.5-91.9-34.4-130.5z" fill="#141217"/>
      <path d="M149.7 1434.1l-12.8 11 118.8 140.2c9.6 4.7 13.6 3 23.2-2.3z"/>
      <path d="M263 1163.5c-49.6 105.4-41 238.1-49 341.3a570.7 570.7 0 0 1-7.9 44.9c30.6 9.1 47.8 15 65.5-16.3-9-39.7 5.4-79.8 11.6-114 12.5-51.6 12.6-109.6 31.6-154.3 11.4-26 45-83.9 45-83.9z" fill="#211e27"/>
      <path d="M205.7 1551.9l-.5 57.7 197-2.8s2.4-9.8.6-14.3c-2.2-5.7-7.7-9.9-13.1-12.8-50.3-9-91.4-34-122.2-57.3z" fill="#141217"/>
      <path d="M205.2 1609.6l.1 17 183.8-1.1c9.8-4.4 11-8.5 13.1-19.3z"/>
    </g>
  </svg>
  <svg viewBox="0 0 712.08916 1716.9999" width="32" height="32" x="32" y="64">
    <g stroke="#000" stroke-width="2.5" fill-rule="evenodd">
      <path d="M514.3 1215.8c-12.2 37.5-43.7 78.8-62.7 119.6a1691 1691 0 0 0-46.3 113 1739 1739 0 0 0-12.5 35.4c-19.8 20.2-44 33.2-65.7 18.2 0 0 6.6-11.7 9.1-18 13.2-31.8 20.3-66 32-98.4 8.3-23.2 18.2-45.9 27.3-68.8l36.6-91 39.1-82.3s48.6 55.6 43.1 72.3z" fill="#211e27"/>
      <path d="M327.1 1502.6l-10 56.9 194.7 29.6s4-9.3 3-14c-1.2-6-6-11-10.8-14.8-48.1-17.2-84.5-48.6-111-76.7z" fill="#141217"/>
      <path d="M317 1559.4l-2.5 16.7 181.4 29.2c10.4-2.7 12.3-6.5 16.1-16.8z"/>
      <path d="M278.6 1151.7c-64.8 96.8-76.3 229.3-99.6 330.1a555.3 555.3 0 0 1-14.5 43.2c28.9 13.6 45 22 67.2-6.3-3-40.6 17.3-78 28.5-111 20-49.1 28.9-106.5 54.4-147.7 15.1-24 57-76.3 57-76.3z" fill="#211e27"/>
      <path d="M164.4 1522.2l-17.2 55.1 189.4 54s5.2-8.6 4.8-13.4c-.5-6-4.6-11.7-8.9-16-45.5-23.2-77.7-59-100.5-90.2z" fill="#141217"/>
      <path d="M147.2 1577.4l-4.7 16.3 176.3 51.9c10.6-1.4 13-5 18-14.6z"/>
    </g>
  </svg>
  <svg viewBox="0 0 712.08916 1716.9999" width="32" height="32" x="32" y="96">
    <g stroke="#000" stroke-width="2.5" fill-rule="evenodd">
      <path d="M386.8 1168.5c-29 112.9 1.3 229.8 12.8 332.7 1.5 15.1.7 45.6.7 45.6 31.8 3.2 49.8 5.8 61.3-28.3-16.3-37.3-9.6-79.4-10-114.2 2.6-53-8.1-110 2.2-157.4 6.3-27.7 31.3-79.1 31.3-79.1zm-21.4 33.5s-64.7 67.1-94 103.3c-29.2 35.9-59.7 71.6-81.2 112.5-9 17.3-19.7 55-19.7 55-25.4 12.4-46.1-8.1-61.6-29.5 32-43.4 62-121.2 101.2-176.7 23.8-33.6 48.9-54.6 80.5-93.8z" fill="#211e27"/>
      <path d="M400.2 1546l-.6 57.8 197-2.9s2.5-9.8.7-14.3c-2.2-5.6-7.8-9.9-13.2-12.8-50.2-9-91.3-34-122.1-57.3z" fill="#141217"/>
      <path d="M399.6 1603.7l.2 17 183.8-1.2c9.8-4.3 11-8.4 13.1-19.2z"/>
      <path d="M108.3 1443.7l-40.9 40.9 142.7 135.8s8.6-5.3 10.5-9.7c2.4-5.6 1.4-12.5-.5-18.4-29.5-41.7-41.4-88.2-47-126.4z" fill="#141217"/>
      <path d="M67.4 1484.6l-11.7 12.2 132 127.9c10 3.7 13.8 1.7 22.8-4.6z"/>
    </g>
  </svg>
  <svg viewBox="0 0 712.08916 1716.9999" width="32" height="32" x="64">
    <g stroke="#000" stroke-width="2.5" fill-rule="evenodd">
      <path d="M390.4 1164.8c-38.8 109.8-19 229-16.7 332.5.1 15.2-3.3 45.5-3.3 45.5 31.3 6 49 10.2 63.5-22.8-13-38.6-2.5-80 .2-114.6 7.3-52.6 1.6-110.3 16-156.6 8.8-27 38.3-76 38.3-76z" fill="#211e27"/>
      <path d="M371 1542.9l-.6 57.7 197-2.8s2.5-9.8.7-14.2c-2.2-5.7-7.7-10-13.2-12.9-50.2-9-91.3-34-122.1-57.3z" fill="#141217"/>
      <path d="M370.4 1600.6l.2 17 183.8-1.1c9.8-4.4 11-8.5 13.1-19.3z"/>
      <path d="M375 1193.4s-74.8 70.5-107.9 109.7c-29.8 35.4-61 70.9-81.2 112.6-7.9 16.3-14.7 52.5-14.7 52.5-25.4 12.3-50.2-6.2-65.7-27.6 0 0 6-6.7 8.5-10.4 54.3-98.7 119.5-220.3 176.6-257.5z" fill="#211e27"/>
      <path d="M114.1 1429.3L65 1459.5l107 165.4s9.6-3.2 12.4-7c3.7-5 4.3-11.9 3.9-18-19-47.4-19.7-95.4-16.3-134z" fill="#141217"/>
      <path d="M64.9 1459.5l-14.3 9.1 98.5 155.2c8.9 6 13 4.9 23.3 1z"/>
    </g>
  </svg>
  <svg viewBox="0 0 712.08916 1716.9999" width="32" height="32" x="64" y="32">
    <g stroke="#000" stroke-width="2.5" fill-rule="evenodd">
      <path d="M346.9 1165.2c-38.8 109.8-19.1 229-16.8 332.5.1 15.2-3.3 45.5-3.3 45.5 31.4 6 49 10.2 63.5-22.8-13-38.6-2.5-80 .2-114.6 7.3-52.6 1.7-110.3 16.1-156.6 8.8-27 38.3-76 38.3-76z" fill="#211e27"/>
      <path d="M410.8 1185.9s-86.6 80-128.6 121.3c-29 28.6-59.5 56-85.3 87.6-10.6 13-28.3 41.9-28.3 41.9-26.3 10.2-49.5-10.4-63.1-33 0 0 7-5.7 10.3-8.8 73.1-74 115.4-152.2 200.7-215.6z" fill="#211e27"/>
      <path d="M327.4 1543.4l-.5 57.7 197-2.8s2.4-9.8.7-14.2a28 28 0 0 0-13.2-12.9c-50.3-9-91.4-34-122.2-57.3z" fill="#141217"/>
      <path d="M326.9 1601.1l.2 17 183.8-1.1c9.7-4.4 11-8.5 13-19.3z"/>
      <path d="M112.3 1397.1L61 1423.9l95.7 172.2s9.8-2.5 12.8-6c4-4.8 5.1-11.6 5.1-17.8-15.8-48.6-13.2-96.5-7.2-134.7z" fill="#141217"/>
      <path d="M61.1 1423.9l-14.8 8.2 87.8 161.4c8.5 6.5 12.7 5.7 23.2 2.4z"/>
    </g>
  </svg>
  <svg viewBox="0 0 712.08916 1716.9999" width="32" height="32" x="64" y="64">
    <g stroke="#000" stroke-width="2.5" fill-rule="evenodd">
      <path d="M296 1171.8c-39.3 109.6-20.2 229-18.4 332.4 0 15.2-3.6 45.5-3.6 45.5 31.4 6.1 49 10.4 63.7-22.5-12.8-38.7-2.2-80 .8-114.6 7.5-52.5 2.2-110.3 16.9-156.5 8.8-27 38.6-75.8 38.6-75.8z" fill="#211e27"/>
      <path d="M431 1233.4c-30.1 25.6-79 43.6-116 69.3a779.7 779.7 0 0 0-95.5 76.4c-12.1 11.6-33.2 38-33.2 38-27.5 7-47.9-16.3-58.6-40.4 0 0 7.6-4.8 11.2-7.5a891.8 891.8 0 0 0 78.7-67.3c22.5-21.6 42.7-45.5 64-68.4l63-68.2 88.5 15.4s11.2 41.3-2.2 52.7z" fill="#211e27"/>
      <path d="M273.6 1551.1l-.5 57.7 197-2.8s2.4-9.8.6-14.2c-2.2-5.7-7.7-10-13.1-12.9-50.3-9-91.4-34-122.2-57.3z" fill="#141217"/>
      <path d="M273 1608.8l.2 17 183.9-1.1c9.7-4.4 11-8.5 13-19.3z"/>
      <path d="M135.2 1371l-54 20.3 73.7 182.7s10-1.3 13.5-4.5a27.3 27.3 0 0 0 7.2-17c-9.6-50-1.2-97.4 9.4-134.6z" fill="#141217"/>
      <path d="M81.1 1391.3l-15.7 6.3 67.4 171c7.5 7.5 11.9 7.2 22.6 5.3z"/>
    </g>
  </svg>
  <svg viewBox="0 0 712.08916 1716.9999" width="32" height="32" x="64" y="96">
    <g stroke="#000" stroke-width="2.5" fill-rule="evenodd">
      <path d="M268.7 1169.7c-39.2 109.7-19.8 229-17.8 332.4 0 15.3-3.4 45.5-3.4 45.5 31.3 6.1 49 10.4 63.6-22.6-12.9-38.6-2.3-79.9.5-114.5 7.4-52.6 2-110.4 16.6-156.6 8.8-27 38.4-75.9 38.4-75.9z" fill="#211e27"/>
      <path d="M455.5 1234.3c-28 27.8-75.4 49.5-110.3 78a778 778 0 0 0-89.3 83.5c-11.2 12.6-30.2 40.5-30.2 40.5-26.8 9-49-12.6-61.6-35.9 0 0 7.3-5.3 10.7-8.3 25.9-22.8 48-49.5 73.3-73.1 18-16.9 37-32.6 55.7-48.9l74-64.3 72.2-55.5s18 71.6 5.5 84z" fill="#211e27"/>
      <path d="M246.3 1549.4l-.5 57.7 197-2.8s2.4-9.8.7-14.2a28 28 0 0 0-13.2-12.9c-50.3-9-91.4-34-122.2-57.3z" fill="#141217"/>
      <path d="M245.8 1607.2l.2 17 183.8-1.1c9.7-4.4 11-8.5 13-19.3z"/>
      <path d="M168.4 1398.5l-49.7 29.4 104.3 167s9.7-2.9 12.6-6.7a27.2 27.2 0 0 0 4.1-17.9c-18.2-47.7-18.1-95.8-14-134.2z" fill="#141217"/>
      <path d="M118.7 1427.9l-14.4 8.9 96 156.8c8.7 6 13 5 23.2 1.2z"/>
    </g>
  </svg>
  <svg viewBox="0 0 712.08916 1716.9999" width="32" height="32" x="96">
    <g stroke="#000" stroke-width="2.5" fill-rule="evenodd">
      <path d="M263 1163.5c-49.6 105.4-41 238.1-49 341.3a570.7 570.7 0 0 1-7.9 44.9c30.6 9.1 47.8 15 65.5-16.3-9-39.7 5.4-79.8 11.6-114 12.5-51.6 12.6-109.6 31.6-154.3 11.4-26 45-83.9 45-83.9z" fill="#211e27"/>
      <path d="M483.7 1232.8c-28 27.8-75.4 49.5-110.3 78a778 778 0 0 0-89.3 83.5c-11.2 12.6-30.2 40.5-30.2 40.5-26.8 9-49-12.6-61.6-35.9 0 0 7.3-5.3 10.7-8.3 25.9-22.8 48-49.5 73.2-73.1 18-16.9 37.1-32.6 55.7-48.9l74-64.3 72.3-55.5s18 71.6 5.5 84z" fill="#211e27"/>
      <path d="M205.7 1551.9l-.5 57.7 197-2.8s2.4-9.8.6-14.3c-2.2-5.7-7.7-9.9-13.1-12.8-50.3-9-91.4-34-122.2-57.3z" fill="#141217"/>
      <path d="M205.2 1609.6l.1 17 183.8-1.1c9.8-4.4 11-8.5 13.1-19.3z"/>
      <path d="M194.4 1397.5l-44.7 36.6 128.7 149.2s9-4.4 11.4-8.6a27.3 27.3 0 0 0 1.3-18.3c-25.3-44.4-32.5-91.9-34.4-130.5z" fill="#141217"/>
      <path d="M149.7 1434.1l-12.8 11 118.8 140.2c9.6 4.7 13.6 3 23.2-2.3z"/>
    </g>
  </svg>
  <svg viewBox="0 0 712.08916 1716.9999" width="32" height="32" x="96" y="32">
    <g stroke="#000" stroke-width="2.5" fill-rule="evenodd">
      <path d="M514.3 1215.8c-12.2 37.5-43.7 78.8-62.7 119.6a1691 1691 0 0 0-46.3 113 1739 1739 0 0 0-12.5 35.4c-19.8 20.2-44 33.2-65.7 18.2 0 0 6.6-11.7 9.1-18 13.2-31.8 20.3-66 32-98.4 8.3-23.2 18.2-45.9 27.3-68.8l36.6-91 39.1-82.3s48.6 55.6 43.1 72.3z" fill="#211e27"/>
      <path d="M327.1 1502.6l-10 56.9 194.7 29.6s4-9.3 3-14c-1.2-6-6-11-10.8-14.8-48.1-17.2-84.5-48.6-111-76.7z" fill="#141217"/>
      <path d="M317 1559.4l-2.5 16.7 181.4 29.2c10.4-2.7 12.3-6.5 16.1-16.8z"/>
      <path d="M278.6 1151.7c-64.8 96.8-76.3 229.3-99.6 330.1a555.3 555.3 0 0 1-14.5 43.2c28.9 13.6 45 22 67.2-6.3-3-40.6 17.3-78 28.5-111 20-49.1 28.9-106.5 54.4-147.7 15.1-24 57-76.3 57-76.3z" fill="#211e27"/>
      <path d="M164.4 1522.2l-17.2 55.1 189.4 54s5.2-8.6 4.8-13.4c-.5-6-4.6-11.7-8.9-16-45.5-23.2-77.7-59-100.5-90.2z" fill="#141217"/>
      <path d="M147.2 1577.4l-4.7 16.3 176.3 51.9c10.6-1.4 13-5 18-14.6z"/>
    </g>
  </svg>
  <svg viewBox="0 0 712.08916 1716.9999" width="32" height="32" x="96" y="64">
    <g fill-rule="evenodd">
      <path stroke-width="2.5" stroke="#000" d="M650.7 1084.5v43.1l-23.5-11-3.5 27.4-34.8-13.8.5 22.7-4.6 31.7-31-17.8-6.7 27.4-29.2-15.3-4.3 29.8-27.8-17.4-10 22.9-26.4-13.9-14.9 17.3-26.9-16.6-19.7 20-25-21.1-19.5 19.6-23.2-23.2-14.2 21.8-16.8-24.6-19.2 18.2-17.8-24-19.3 16.8-14.6-22-23.1 14.6-16-22.8s-23.2 16.4-25 15.3a244 244 0 0 1-13.9-24.2l-24.2 15.6-12.1-25-27 16.8-13.6-27 103-30z" fill="#241d37"/>
      <path stroke-width="2.5" stroke="#000" d="M451.4 584.3s-4.5 41.7-2 61.8c11 39.2 20.6 70.1 28.8 110.9 0 0 2.6 26-6.8 28.2-19 4.6-32.3-29-38.3-44.3 5.6 13.7 18.8 48.6 37.7 44.4 9.8-2.2 7.8-29 7.8-29 53.8 75 96.6 155.3 135.9 238.5 12.8 27.4 29.7 53.9 35.7 83.6a30 30 0 0 1-6.5 24.7c-14 15-54.5 34.8-54.5 34.8s-26.3-91.5-41.7-136.6c-11.6-34-38.3-100.7-38.3-100.7s26.2 67.5 37.8 101.7c15.2 45 33.9 89.3 41.8 136 .8 4.7.5 14.1.5 14.1l-106.6 39.2-2.7-125.8 2.5 126s-17 5.7-25.7 7c-25 3.7-76 2.1-76 2.1l-5.6-727 103.3 2.5 1.5 8.9-.5 53.9z" fill="#3c3661"/>
      <path d="M383.6 1199.9l18.1.2-23.6-286.3z" fill="#241d37"/>
      <path stroke-width="2.5" stroke="#000" d="M315.6 591c14.6 109.6-33.1 164.7-84 240.1-66 100.9-168 313-168 313 107.2 32.7 207 50.9 318.9 57L365.4 586z" fill="#23243d"/>
      <path d="M468.2 452.2l-6 25.3 15.4-2zm60.6-202.9L532 269l8.4 18.4-13 17-4.3 6.6-7.1 3 .5 2.4-12.8 26.5-4.8 6.2-84-41.3 40.4-122 87.4 12.2z" fill="#e7d5dc"/>
      <path d="M499.8 347.3s-24.4-11-35.3-18.6c-6.6-4.6-14.6-9-18-16.3-5.3-12-.4-39.3-.4-39.3l9.5-48.7 14.2 26.4c-.3 10.8 1.3 21.1 3.8 31.6L458.3 272l4.3 22.6-29.8-38.5-15.5-38.3-2.6 29.7-15.6-33.2-11.7 7.1-3.8 20.1 2.3 17 9.4 18-11.6 19.4-2.5-10.1-9.3 19.1-12.6 36.3 79 18.6 8.4-21.9 4.8-3.5s28 10.6 29 10.8c1 .3 19.3 2 19.3 2zm9.1-89l.8-13.3 7 5.2zm8.2-50.3a47.8 47.8 0 0 1 .3 42.9s18.8-22.2 20.9-36c1.6-11-9.1-32.2-9.1-32.2z" fill="#6d646e"/>
      <path stroke-width="2.5" stroke="#000" d="M407.3 937.7s7.6 32.1 5.6 48.2a29.5 29.5 0 0 1-5.7 15.5c-2.4 2.8-5.9 5.5-9.5 5.5-2.1 0-5.4-3-5.4-3l7-11.4s-5.5 7.8-9 13.8c-1 1.7-7.8 1.6-9.7-1-1-1.5 1.2-5.4 1.2-5.4l5.7-10.2s-6.2 12.1-11.8 15.3c-2.8 1.5-6.7 2.4-9.5 1-1.8-.9-3.1-5-3.1-5l9.3-15s-6 12-11.9 18.4c-3.3 3.6-5.8 1.1-8-.4-6.2-4.6-8.7-13.2-8.2-21.7 1.6-10.5 7.8-3.8 9.8-.3 2 3-1.1 10.2-1.1 10.2s4.6-13.1 6.3-19.9c3.1-12.2 7.3-37 7.3-37z" fill="#776b65"/>
    </g>
    <path stroke="#1a1a2b" stroke-width="2.5" d="M529.5 251.6s.9 12.9 2.8 19c1.9 5.9 8.3 16.6 8.3 16.6-7.8 6-17.6 23.2-17.6 23.2s-5 2.2-7.3 4.3c-.5.3 1.4 1 1.4 1-7 8.6-10 24.1-15.7 31.2-.6.7-1.4 1.6-2.3 1.6a230 230 0 0 1-46.8-14.6c-7-2.1-14 26.2-14 26.2L362 336.4s5.8-18.7 9.3-27.8c.8-2 3.8-11 3.8-11s-4.2-12.7-8-18c3.8 5.3 8 18 8 18l6-11.6 1.3 5 1.4 5 6-10 6.2-9.8s12.2 5.5 16 10.6a50 50 0 0 1 5.7 17.3s-2-12.3-5.6-17.1c-3.9-5.2-16.2-10.7-16.2-10.7s-7.5-11.6-9.5-18a54 54 0 0 1-2.7-21.8 31 31 0 0 1 6.1-17.1c2.5-2.9 10.3-5.2 10.3-5.2l2.7 9.1-13.7 18.2 13.5-18 12.3 24.4s-4.7 4.2-6 7c-.8 1.8-.8 3.9-.8 5.8-.1 3.5 3.6 8.2.9 10.3-1.7 1.2-4-1.2-5.7-2.3-3-1.8-7.8-7-7.8-7s4.8 6.2 8.2 8c1.7.8 4.3 2.3 5.6 1 2.5-2.6-2-7-1.8-10.5.2-2.2 1-4.5 2.2-6.4 1.4-2.3 5.6-5.9 5.6-5.9l2.1-100.8 87.8 70.6 24.4 6.8-24.2-7-2.8 8.9a49.8 49.8 0 0 1 28 4.3z" fill="none"/>
    <path fill-rule="evenodd" d="M358.3 930.5l-26.2-520.8s88.9-61.7 90-61.7c1 0 12.5-4.6 12.5-4.6l4.8 15.4 16.9-2.3-17 35.8 7 4.8 16.8 34.7 5 16.4-6.3 32-10.6 32.7-19.1 34.3-37.8 34.2.8 84 16.3 166 13.2 110.1-17.3-3.8-42.8 2.9z" fill="#28253a"/>
    <path fill-rule="evenodd" d="M425.8 347.7l-11.2 24.2s-12.9 8.8-19.4 13c-15.8 10-38.7 19.7-46.6 35.6-8 28.3-7.3 59.1-6.8 86.4 1.8 55.4 7.5 109.7 13.8 160.9 9 54 12.2 111.7 13.7 162.1.7 24.7-.7 49.5 0 74.2.3 12.1 2 36.3 2 36.3L367 943l-3.7 14.7-19-6.3-6-5.8-2.3-22.8 2.4-50.1 2.6-90.5-3.8-84-7.4-80-4.3-26.7-22.8-4.2-1-31.7 4.6-46.4 6.7-50.4 13.2-41 29.6-63.3L353 333l.6-11.3 9.7 8.6 16.5-8.8 16 16.2 11.2-8.9 12.6 19.8z" fill="#0a0a14"/>
    <g stroke="#000" stroke-width="2.5" fill="none">
      <path d="M356 353.9s-2.4-9.8-2.8-14.8c-.5-5.9.4-17.6.4-17.6l10 9.4 16.5-10 15 17.7 11.9-10.4 12.6 21 15.7-5.7 5 16 15.9-3-13.6 28S414.7 370 400 365c-14.3-5-44-11-44-11z"/>
      <path d="M443.1 383.5l-3.7 8.4c-19-10-39.3-14.9-59.7-21.2 0 0-15.7-5.8-23.6-4.4-2.2.3-5.7 3.4-5.7 3.4l5.3-15s24.5 3.4 36.2 7a498 498 0 0 1 51.2 21.8z"/>
      <path d="M349.7 370.7c-9.8 19.5-21.7 40.9-28.2 59.5a313.6 313.6 0 0 0-12.1 48.7c-3.5 34.4-7.9 66.9-8 99 0 3.2.6 9.7.6 9.7l24.5 4.2s-5.4-47.1-7-70.8c-1.6-22.5-2.7-67.5-2.7-67.5l9.1 138.6s6.2 49.8 8 72.2c7.8 75.1 6.8 145.2 4.4 217-.6 20-3.9 40.5-.6 60.4.4 2.3.7 5 2.4 6.7 5.5 5.8 22.5 8.9 22.5 8.9s.9-14.3 6.3-16c12.6-3.8 28.3-4 42.5-3 4.7.3 13.8 3 13.8 3l-9.4-76.6c-7-65-16.4-125.4-20-186-1.8-30.3-1.6-60.7-2.1-91a8266 8266 0 0 1-.6-72.6l1.7-64.3-1.3 64.4 19.6-55.5-19.8 55.5.5 66.5s22-17 31.8-27.3C450.2 527.9 461.3 486 468 451c-1.2-16.6-10.9-35-20.5-50.5-2-3-7.5-8.2-7.5-8.2l-53.7-20.1c-20-5-30.6-9.4-36.7-1.5z"/>
    </g>
    <g fill-rule="evenodd">
      <path stroke-width="2.5" stroke="#000" d="M468.1 449.4l11.6 34.8-.4 82.5s-1.2 3.7-2.6 5c-6.6 7-25.3 13.7-25.3 13.7s.7-10.4 2-15c6.3-15.5 19-30.2 23.4-44.3 1.4-4.8 2.8-15.1 2.8-15.1v-26l-18.4-.6 18.2-.3-1.6-7h-15.4l14.9-1.6z" fill="#0a0a14"/>
      <path d="M383.2 26.1l9.9 20.4 3.5 30.2 31.5-.2 31 10.8-46.7 5 35.3 19.2-32 51.6-63.7-37.5-13.3-57.7 43.5 4.5z" fill="#d4d5fa"/>
      <path d="M384.5 28.9c-.2 19.2 13.8 68.9-6.9 50-3.4-3-7.4-5.6-11.7-6.8-4.5-1.2-14 0-14 0l-16.3-34.5-21-19 25.6 4.7L357 32l13.5 16.7 10 25z" fill="#595f8f" fill-opacity=".94117647"/>
      <path d="M572.1 229.9l1.5-29-5-24-17.6-32.2-23.2-24.9-19.6-11.8-15.2-3-17.6 3.2-39.8 13.4-24.4 83.8 15.4 28.7 23.6 45.1 4.3-58.2 26.2 40-2.5-26.4 26.2-28 14.6-2.2 9-13.8 2.6 15.8-1.3 34.8-3 12.6 16.1-21-3.3 22.7 16.4-29.7 3-5.3-7.3 26-5 19.6 12.6-19.9 9.3-30.4z" fill="#d4d5fa"/>
      <path d="M486.8 117.9c-.5 0-15.6-3.2-23.4-2.5-28 5-38.8 53.4-38.8 71.8.1 9.6 1 19.3 2.5 28.8 1.7 10.6 3.7 21.2 7.5 31.2 3.5 9.1 13.7 25.8 13.7 25.8s-1.4-24.3-.9-36.5c.6-6 .8-33 5.5-34.5 6.7 17.5 12 32 23.7 49.6l6-31.7s11.9-10.6 16.8-16.8c4-5 10.5-16.5 10.5-16.5l2.9 17.1 15.4-17.7-10.6 21.3-26 28.3 10.5-25.3-23.7 27.7 4.3 26-15.5-15.6-12.3-25.3.7 20.5 2.7 30.8 4.4 20.1-16.7-18.7-17-26-11.9-32.4-1.4 32.6-16.7-36.3s-9.2 3.4-11.6 7.3c-5.4 8.5-5.2 20-3.7 30a56.2 56.2 0 0 0 11.4 25.3l-11 16.6-3-9.4-5.7 11.6s-4.3-11.8-8-16.8a100 100 0 0 0-14-13.4l-23.8 62.9-13.7-10.3 2.8-70L345 194l-7-34.3 27.4-32.7c16.3 1.3 29.5 8.6 43 17.7l13.3-19.5 21.4-15.7 21.2-5.7 16.9 8.4z" fill="#595f85"/>
    </g>
    <g stroke="#1a1a2b" stroke-width="2.5">
      <path d="M466.8 105c-9.6-1.5-20.3 2.9-28.3 7.4a92.7 92.7 0 0 0-32.2 36.5c-7 15.2-8.3 32.1-7.7 47.5 0 21 5.4 34.8 16.6 52.9l1.8-33.6s4.4 16.5 7.8 24.2a165.4 165.4 0 0 0 15.3 28.2c6.9 10 23.5 27.8 23.5 27.8s-5.2-19.2-6.6-29c-2-15-2.2-45.4-2.2-45.4s5.9 16.1 10.5 23.2c4.6 7.2 17 19.2 17 19.2l-7.7-42.3 4.7 15.7s1.8-15.2 4-22.5c2.3-7.4 9.2-21.2 9.2-21.2s-6.7 13.8-9 21.2c-2.1 7.3-4.2 22.5-4.2 22.5l24.6-29.9-13.4 29.8s15.7-14.7 22.2-23.2c5.9-7.6 15-24.7 15-24.7s3.6 17.7 3.6 26.7c0 13.2-5.3 39.3-5.3 39.3l18-24.4-6.3 27.4s10.5-15.8 14-24.6a111.4 111.4 0 0 0 7.6-29c.8-7-.5-21-.5-21s1.4 24-.3 35.7c-2.4 16.8-14 48.8-14 48.8 14.5-18.3 19-33.5 23.3-56.5 0 0 2.3 15.7 2 23.6-.3 6.7-3.5 20-3.5 20 4.3-21.2 10.3-49 5.3-68-5.5-20-18-40.3-30.5-54.4-12.8-13.9-28.2-25.5-46-27.5a82.7 82.7 0 0 0-19.6 2.5l12.2 10.4s-12.7-12-20.9-13.3z" fill="none"/>
      <path d="M494.4 235.8s15.4 7.6 21.9 13.2c1.4 1.2-1.3 1.4-2 2.1-2.6 3-5.5 10.8-8 8.9a29.8 29.8 0 0 1-8.6-10.2c-2.1-4.3-3.3-14-3.3-14z" fill="none"/>
      <path fill-rule="evenodd" d="M365.2 107.2c-5-16.2-10-31.7-19.3-46.3-10.8-6.7-28.7-19.1-44-20.5-17.4 4.2-38.3 18.9-51.2 24.5-16.9 1.2-31.6-7.3-46.3-15.6a83.3 83.3 0 0 0 30.2 30l10.1-5.3c-46.5 20.7-67 54.3-84.1 94.4-2 4.8-5 16.6-3.8 15.1 1.3-1.5 10.4-18.3 16.9-26.4 5.1-6.5 17.4-17.7 17.4-17.7s-11 17.8-15.7 27.2a91.4 91.4 0 0 0-10.8 44.4c0 12.6 4 37.4 4 37.4s5.1-28 9.5-41.6c2.8-8.5 10.4-24.5 10.4-24.5s-4.4 30.7-1 45.5c3.5 15.3 21.3 42 21.3 42l3-17.1s-4 27-8.9 39.7a145 145 0 0 1-14.8 27c-5.8 8.9-22.4 17.2-22.4 17.2s15.6-2.8 23-5.5c6-2.3 17-9 17-9l6-16s-9.2 19.5-11.1 30c-1.6 12.2-3.6 29.3-1.6 38 1.4 5.7 7.8 17.9 7.8 16.4s1-21 3.2-31.3c2-9.2 9.3-26.8 9.3-26.8l-4.1-16.3 4.1 16.3s6.6 13.8 11 20c4.6 6.3 15.7 17.3 15.7 17.3s-6.6 19.1-12 27.6c-5 8-18.5 21.4-18.5 21.4s16.9-1.7 24.3-5.4c9-4.4 22.8-19.6 22.8-19.6s.7 13.5 2.5 20a61.8 61.8 0 0 0 7.3 17.6c2.6 4.2 9.8 11 9.8 11l-3.6-49.6s16.2-2.6 27.8-13.5c12.7-12 34.3-37.7 34.3-37.7l-37.1-21 1.6-53.6-18 20s11.3-26 15.6-39.5c4-12.5 9.3-38.1 9.3-38.1s-5.5 25.5-9.5 37.9a618.4 618.4 0 0 1-15.4 39.4l18-20s13.8-19.5 19.7-30c4.9-8.5 12.8-26.6 12.8-26.6l21 23.5s-15.5-39.5-19.2-60.2c-3.7-20.7-5.3-42-3-62.9 1.3-12 9.6-35 9.6-35s-7.8 22.8-9.6 34.7c-1.5 9.4-.8 28.7-.8 28.7z" fill="#595f85"/>
    </g>
    <g stroke-width="2.5">
      <path stroke="#000" fill-rule="evenodd" d="M301.8 270.5l-4.5 53.6c5.4 3.7 17.8 12.9 36.5 14.1a43.6 43.6 0 0 0-18.3-21.4l3.3-70z" fill="#1b1541"/>
      <path stroke="#1a1a2b" d="M252 175.4s10.3-25.7 17.5-37.4A285.5 285.5 0 0 1 306 91.2c8-8.4 26-22.6 26-22.6s-18.4 14.4-26.3 23a287.6 287.6 0 0 0-36 46.6 360.4 360.4 0 0 0-17.6 37.2z" fill="none"/>
      <path stroke="#000" fill-rule="evenodd" d="M327.2 232.4l-3.7 88.7 8.5 12.6 4-93-6.4-13.2zm19.5 27l-4 120.6-11.2 25.1 5.1-163.6z" fill="#1b1541"/>
      <path stroke="#000" fill-rule="evenodd" d="M347.2 259.6l5.4 6-.5 69.3-7.4-15.9z" fill="#1b1541"/>
      <path stroke="#1a1a2b" d="M443.6 109.4l-31.4-17 48.4-5s-20-8.3-30.5-10.2c-11-2-33.5-1.2-33.5-1.2s-1-19.4-3.6-28.7c-2-7.6-9.5-21.7-9.5-21.7L381.2 74s-6-19-11.6-27a61.1 61.1 0 0 0-20-19.2c-10.6-5.9-35.4-8.6-35.4-8.6 24 16.6 28.2 29.7 32 41.2l19.4 47.3 11 7.3s24.4-5.6 36.9-6.5c10-.8 30.1.9 30.1.9z" fill="none"/>
    </g>
    <path fill-rule="evenodd" d="M347 65.3c-1-.6-2.3-.6-3.4-.3-24.5 11-22.3 38.3-20.5 59.1a237 237 0 0 0 6.8 36.5 599.6 599.6 0 0 0 12.5 38.9l.7-7.7-5.8-23.8-3.3-35 1.2-23.1 5-21.4 5.2-13.7 2.3 1-4 10c.8 11 10.8 18.3 16 25.7l4.4-5.2-6.6-18.9s-5.2-12.7-8.4-18.7c-.6-1.1-1-2.6-2.1-3.4z" fill="#d4d5fa"/>
    <path stroke-width="2.5" stroke="#1a1a2b" fill-rule="evenodd" d="M336.1 137.8L365 107l11.7 7.9-17 18.7c21.5-7 44.9-10.3 67.4-12a401 401 0 0 0-67.5 12L343.2 153l31.7 24.2-31.7-24.2-5.4 7z" fill="#533981"/>
    <path stroke="#1a1a2b" stroke-width="2.5" d="M349.5 232.4s9 12 14.1 17.4c4.8 5 16.5 13.8 15.6 13.6-.9-.2-10.9-8.6-15.7-13.5-5.1-5.4-14-17.5-14-17.5zm15-52.4s9 11.6 14 17.1c4.5 5 14 14.5 14 14.5s-9.6-9.2-14-14.1c-5-5.6-14-17.5-14-17.5z" fill="none"/>
    <g fill-rule="evenodd">
      <path d="M426.7 943s-5 4.3-7.8 5.9c-3 1.6-9.4 3.7-9.4 3.7l-2.3-15.1z"/>
      <path d="M510.8 900.4l102.1 223.2-23.2 12.7s-16.8-61-26.6-91.2c-16-48.8-52.3-144.7-52.3-144.7zm-78.8-159s15.2 39.4 23.6 59c15.9 37.8 32.2 32.5 29-8.1-.8-10.6-4.7-32.4-4.7-32.4s0 7-.3 10c-1.3 15.1-8.8 21.6-22.2 13.2-13-9.9-25.4-41.8-25.4-41.8zm49.2 324.3L492 1187l-8 3z" fill="#241d37"/>
      <path d="M407.1 941.2s-17.9 3.1-22 10a30.9 30.9 0 0 0 2.1 32.9c5.2 6.2 23.6 6.1 23.6 6.1 2.7-14-1.1-35-3.7-49z" fill="#eed4db"/>
    </g>
  </svg>
</svg>
